<?xml version="1.0" encoding="utf-8"?>
<svg xmlns="http://www.w3.org/2000/svg" xmlns:xlink="http://www.w3.org/1999/xlink" width="600" height="400" viewBox="0 0 2400 1600">
<defs>
  <clipPath id="clip190">
    <rect x="0" y="0" width="2400" height="1600"/>
  </clipPath>
</defs>
<path clip-path="url(#clip190)" d="M0 1600 L2400 1600 L2400 0 L0 0  Z" fill="#ffffff" fill-rule="evenodd" fill-opacity="1"/>
<defs>
  <clipPath id="clip191">
    <rect x="480" y="0" width="1681" height="1600"/>
  </clipPath>
</defs>
<path clip-path="url(#clip190)" d="M234.125 1410.9 L2352.76 1410.9 L2352.76 47.2441 L234.125 47.2441  Z" fill="#ffffff" fill-rule="evenodd" fill-opacity="1"/>
<defs>
  <clipPath id="clip192">
    <rect x="234" y="47" width="2120" height="1365"/>
  </clipPath>
</defs>
<polyline clip-path="url(#clip192)" style="stroke:#000000; stroke-linecap:round; stroke-linejoin:round; stroke-width:2; stroke-opacity:0.1; fill:none" points="795.829,1410.9 795.829,47.2441 "/>
<polyline clip-path="url(#clip192)" style="stroke:#000000; stroke-linecap:round; stroke-linejoin:round; stroke-width:2; stroke-opacity:0.1; fill:none" points="1802.77,1410.9 1802.77,47.2441 "/>
<polyline clip-path="url(#clip192)" style="stroke:#000000; stroke-linecap:round; stroke-linejoin:round; stroke-width:2; stroke-opacity:0.1; fill:none" points="795.829,1410.9 795.829,47.2441 "/>
<polyline clip-path="url(#clip192)" style="stroke:#000000; stroke-linecap:round; stroke-linejoin:round; stroke-width:2; stroke-opacity:0.1; fill:none" points="1802.77,1410.9 1802.77,47.2441 "/>
<polyline clip-path="url(#clip190)" style="stroke:#000000; stroke-linecap:round; stroke-linejoin:round; stroke-width:4; stroke-opacity:1; fill:none" points="234.125,1410.9 2352.76,1410.9 "/>
<polyline clip-path="url(#clip190)" style="stroke:#000000; stroke-linecap:round; stroke-linejoin:round; stroke-width:4; stroke-opacity:1; fill:none" points="234.125,47.2441 2352.76,47.2441 "/>
<polyline clip-path="url(#clip190)" style="stroke:#000000; stroke-linecap:round; stroke-linejoin:round; stroke-width:4; stroke-opacity:1; fill:none" points="795.829,1410.9 795.829,1392 "/>
<polyline clip-path="url(#clip190)" style="stroke:#000000; stroke-linecap:round; stroke-linejoin:round; stroke-width:4; stroke-opacity:1; fill:none" points="1802.77,1410.9 1802.77,1392 "/>
<polyline clip-path="url(#clip190)" style="stroke:#000000; stroke-linecap:round; stroke-linejoin:round; stroke-width:4; stroke-opacity:1; fill:none" points="795.829,47.2441 795.829,66.1417 "/>
<polyline clip-path="url(#clip190)" style="stroke:#000000; stroke-linecap:round; stroke-linejoin:round; stroke-width:4; stroke-opacity:1; fill:none" points="1802.77,47.2441 1802.77,66.1417 "/>
<path clip-path="url(#clip190)" d="M761.273 1485.02 L768.912 1485.02 L768.912 1458.66 L760.602 1460.32 L760.602 1456.06 L768.866 1454.4 L773.541 1454.4 L773.541 1485.02 L781.18 1485.02 L781.18 1488.96 L761.273 1488.96 L761.273 1485.02 Z" fill="#000000" fill-rule="nonzero" fill-opacity="1" /><path clip-path="url(#clip190)" d="M800.625 1457.48 Q797.014 1457.48 795.185 1461.04 Q793.379 1464.58 793.379 1471.71 Q793.379 1478.82 795.185 1482.38 Q797.014 1485.92 800.625 1485.92 Q804.259 1485.92 806.064 1482.38 Q807.893 1478.82 807.893 1471.71 Q807.893 1464.58 806.064 1461.04 Q804.259 1457.48 800.625 1457.48 M800.625 1453.77 Q806.435 1453.77 809.49 1458.38 Q812.569 1462.96 812.569 1471.71 Q812.569 1480.44 809.49 1485.04 Q806.435 1489.63 800.625 1489.63 Q794.814 1489.63 791.736 1485.04 Q788.68 1480.44 788.68 1471.71 Q788.68 1462.96 791.736 1458.38 Q794.814 1453.77 800.625 1453.77 Z" fill="#000000" fill-rule="nonzero" fill-opacity="1" /><path clip-path="url(#clip190)" d="M825.264 1446.41 Q827.991 1446.99 829.515 1448.83 Q831.057 1450.68 831.057 1453.38 Q831.057 1457.54 828.198 1459.82 Q825.339 1462.09 820.073 1462.09 Q818.305 1462.09 816.425 1461.73 Q814.563 1461.4 812.569 1460.7 L812.569 1457.03 Q814.149 1457.95 816.03 1458.42 Q817.91 1458.89 819.96 1458.89 Q823.534 1458.89 825.396 1457.48 Q827.277 1456.07 827.277 1453.38 Q827.277 1450.9 825.528 1449.51 Q823.797 1448.1 820.694 1448.1 L817.421 1448.1 L817.421 1444.98 L820.844 1444.98 Q823.647 1444.98 825.133 1443.87 Q826.618 1442.74 826.618 1440.63 Q826.618 1438.47 825.076 1437.32 Q823.553 1436.16 820.694 1436.16 Q819.133 1436.16 817.346 1436.49 Q815.559 1436.83 813.415 1437.55 L813.415 1434.16 Q815.578 1433.56 817.459 1433.26 Q819.359 1432.96 821.033 1432.96 Q825.358 1432.96 827.879 1434.93 Q830.399 1436.89 830.399 1440.24 Q830.399 1442.57 829.063 1444.19 Q827.728 1445.79 825.264 1446.41 Z" fill="#000000" fill-rule="nonzero" fill-opacity="1" /><path clip-path="url(#clip190)" d="M1767.76 1485.02 L1775.4 1485.02 L1775.4 1458.66 L1767.09 1460.32 L1767.09 1456.06 L1775.36 1454.4 L1780.03 1454.4 L1780.03 1485.02 L1787.67 1485.02 L1787.67 1488.96 L1767.76 1488.96 L1767.76 1485.02 Z" fill="#000000" fill-rule="nonzero" fill-opacity="1" /><path clip-path="url(#clip190)" d="M1807.12 1457.48 Q1803.5 1457.48 1801.68 1461.04 Q1799.87 1464.58 1799.87 1471.71 Q1799.87 1478.82 1801.68 1482.38 Q1803.5 1485.92 1807.12 1485.92 Q1810.75 1485.92 1812.56 1482.38 Q1814.38 1478.82 1814.38 1471.71 Q1814.38 1464.58 1812.56 1461.04 Q1810.75 1457.48 1807.12 1457.48 M1807.12 1453.77 Q1812.93 1453.77 1815.98 1458.38 Q1819.06 1462.96 1819.06 1471.71 Q1819.06 1480.44 1815.98 1485.04 Q1812.93 1489.63 1807.12 1489.63 Q1801.31 1489.63 1798.23 1485.04 Q1795.17 1480.44 1795.17 1471.71 Q1795.17 1462.96 1798.23 1458.38 Q1801.31 1453.77 1807.12 1453.77 Z" fill="#000000" fill-rule="nonzero" fill-opacity="1" /><path clip-path="url(#clip190)" d="M1829.08 1445.99 Q1826.53 1445.99 1825.02 1447.74 Q1823.54 1449.49 1823.54 1452.54 Q1823.54 1455.57 1825.02 1457.33 Q1826.53 1459.08 1829.08 1459.08 Q1831.64 1459.08 1833.13 1457.33 Q1834.63 1455.57 1834.63 1452.54 Q1834.63 1449.49 1833.13 1447.74 Q1831.64 1445.99 1829.08 1445.99 M1836.63 1434.09 L1836.63 1437.55 Q1835.2 1436.87 1833.73 1436.51 Q1832.28 1436.16 1830.85 1436.16 Q1827.09 1436.16 1825.1 1438.69 Q1823.12 1441.23 1822.84 1446.37 Q1823.95 1444.73 1825.62 1443.87 Q1827.3 1442.98 1829.31 1442.98 Q1833.54 1442.98 1835.99 1445.56 Q1838.45 1448.12 1838.45 1452.54 Q1838.45 1456.86 1835.89 1459.48 Q1833.34 1462.09 1829.08 1462.09 Q1824.21 1462.09 1821.64 1458.37 Q1819.06 1454.62 1819.06 1447.53 Q1819.06 1440.88 1822.22 1436.93 Q1825.38 1432.96 1830.7 1432.96 Q1832.13 1432.96 1833.58 1433.24 Q1835.05 1433.52 1836.63 1434.09 Z" fill="#000000" fill-rule="nonzero" fill-opacity="1" /><path clip-path="url(#clip190)" d="M1089.23 1538.54 L1095.44 1538.54 L1106.58 1568.46 L1117.72 1538.54 L1123.92 1538.54 L1110.55 1574.19 L1102.6 1574.19 L1089.23 1538.54 Z" fill="#000000" fill-rule="nonzero" fill-opacity="1" /><path clip-path="url(#clip190)" d="M1162.5 1554.9 L1162.5 1557.76 L1135.57 1557.76 Q1135.95 1563.81 1139.2 1566.99 Q1142.48 1570.14 1148.3 1570.14 Q1151.68 1570.14 1154.83 1569.32 Q1158.01 1568.49 1161.13 1566.83 L1161.13 1572.37 Q1157.98 1573.71 1154.67 1574.41 Q1151.36 1575.11 1147.95 1575.11 Q1139.42 1575.11 1134.43 1570.14 Q1129.46 1565.18 1129.46 1556.71 Q1129.46 1547.96 1134.17 1542.83 Q1138.91 1537.68 1146.93 1537.68 Q1154.13 1537.68 1158.3 1542.33 Q1162.5 1546.94 1162.5 1554.9 M1156.64 1553.18 Q1156.58 1548.37 1153.94 1545.51 Q1151.33 1542.64 1147 1542.64 Q1142.1 1542.64 1139.14 1545.41 Q1136.21 1548.18 1135.76 1553.21 L1156.64 1553.18 Z" fill="#000000" fill-rule="nonzero" fill-opacity="1" /><path clip-path="url(#clip190)" d="M1197.76 1539.91 L1197.76 1545.38 Q1195.28 1544.01 1192.77 1543.34 Q1190.28 1542.64 1187.74 1542.64 Q1182.04 1542.64 1178.89 1546.27 Q1175.74 1549.87 1175.74 1556.39 Q1175.74 1562.92 1178.89 1566.55 Q1182.04 1570.14 1187.74 1570.14 Q1190.28 1570.14 1192.77 1569.47 Q1195.28 1568.77 1197.76 1567.41 L1197.76 1572.82 Q1195.31 1573.96 1192.67 1574.54 Q1190.06 1575.11 1187.1 1575.11 Q1179.05 1575.11 1174.31 1570.05 Q1169.56 1564.99 1169.56 1556.39 Q1169.56 1547.67 1174.34 1542.68 Q1179.14 1537.68 1187.48 1537.68 Q1190.19 1537.68 1192.77 1538.25 Q1195.35 1538.79 1197.76 1539.91 Z" fill="#000000" fill-rule="nonzero" fill-opacity="1" /><path clip-path="url(#clip190)" d="M1213.74 1528.42 L1213.74 1538.54 L1225.81 1538.54 L1225.81 1543.09 L1213.74 1543.09 L1213.74 1562.44 Q1213.74 1566.8 1214.92 1568.04 Q1216.13 1569.28 1219.79 1569.28 L1225.81 1569.28 L1225.81 1574.19 L1219.79 1574.19 Q1213.01 1574.19 1210.43 1571.67 Q1207.85 1569.12 1207.85 1562.44 L1207.85 1543.09 L1203.56 1543.09 L1203.56 1538.54 L1207.85 1538.54 L1207.85 1528.42 L1213.74 1528.42 Z" fill="#000000" fill-rule="nonzero" fill-opacity="1" /><path clip-path="url(#clip190)" d="M1247.32 1542.64 Q1242.61 1542.64 1239.87 1546.34 Q1237.14 1550 1237.14 1556.39 Q1237.14 1562.79 1239.84 1566.48 Q1242.58 1570.14 1247.32 1570.14 Q1252 1570.14 1254.74 1566.45 Q1257.47 1562.76 1257.47 1556.39 Q1257.47 1550.06 1254.74 1546.37 Q1252 1542.64 1247.32 1542.64 M1247.32 1537.68 Q1254.96 1537.68 1259.32 1542.64 Q1263.68 1547.61 1263.68 1556.39 Q1263.68 1565.15 1259.32 1570.14 Q1254.96 1575.11 1247.32 1575.11 Q1239.65 1575.11 1235.29 1570.14 Q1230.96 1565.15 1230.96 1556.39 Q1230.96 1547.61 1235.29 1542.64 Q1239.65 1537.68 1247.32 1537.68 Z" fill="#000000" fill-rule="nonzero" fill-opacity="1" /><path clip-path="url(#clip190)" d="M1294.05 1544.01 Q1293.06 1543.44 1291.88 1543.18 Q1290.74 1542.9 1289.33 1542.9 Q1284.37 1542.9 1281.7 1546.14 Q1279.05 1549.36 1279.05 1555.41 L1279.05 1574.19 L1273.17 1574.19 L1273.17 1538.54 L1279.05 1538.54 L1279.05 1544.08 Q1280.9 1540.83 1283.86 1539.27 Q1286.82 1537.68 1291.05 1537.68 Q1291.66 1537.68 1292.39 1537.77 Q1293.12 1537.84 1294.01 1538 L1294.05 1544.01 Z" fill="#000000" fill-rule="nonzero" fill-opacity="1" /><path clip-path="url(#clip190)" d="M1343.63 1539.59 L1343.63 1545.13 Q1341.15 1543.85 1338.48 1543.22 Q1335.8 1542.58 1332.94 1542.58 Q1328.58 1542.58 1326.38 1543.92 Q1324.22 1545.25 1324.22 1547.93 Q1324.22 1549.96 1325.78 1551.14 Q1327.34 1552.29 1332.05 1553.34 L1334.05 1553.78 Q1340.29 1555.12 1342.9 1557.57 Q1345.54 1559.99 1345.54 1564.35 Q1345.54 1569.32 1341.6 1572.21 Q1337.68 1575.11 1330.81 1575.11 Q1327.94 1575.11 1324.82 1574.54 Q1321.74 1573.99 1318.3 1572.88 L1318.3 1566.83 Q1321.55 1568.52 1324.7 1569.38 Q1327.85 1570.21 1330.93 1570.21 Q1335.07 1570.21 1337.3 1568.81 Q1339.53 1567.37 1339.53 1564.8 Q1339.53 1562.41 1337.91 1561.14 Q1336.31 1559.86 1330.87 1558.68 L1328.83 1558.21 Q1323.39 1557.06 1320.97 1554.71 Q1318.55 1552.32 1318.55 1548.18 Q1318.55 1543.15 1322.12 1540.42 Q1325.68 1537.68 1332.24 1537.68 Q1335.49 1537.68 1338.35 1538.16 Q1341.22 1538.63 1343.63 1539.59 Z" fill="#000000" fill-rule="nonzero" fill-opacity="1" /><path clip-path="url(#clip190)" d="M1354.87 1538.54 L1360.73 1538.54 L1360.73 1574.19 L1354.87 1574.19 L1354.87 1538.54 M1354.87 1524.66 L1360.73 1524.66 L1360.73 1532.08 L1354.87 1532.08 L1354.87 1524.66 Z" fill="#000000" fill-rule="nonzero" fill-opacity="1" /><path clip-path="url(#clip190)" d="M1370.43 1538.54 L1398.25 1538.54 L1398.25 1543.88 L1376.23 1569.51 L1398.25 1569.51 L1398.25 1574.19 L1369.64 1574.19 L1369.64 1568.84 L1391.66 1543.22 L1370.43 1543.22 L1370.43 1538.54 Z" fill="#000000" fill-rule="nonzero" fill-opacity="1" /><path clip-path="url(#clip190)" d="M1437.69 1554.9 L1437.69 1557.76 L1410.76 1557.76 Q1411.14 1563.81 1414.39 1566.99 Q1417.67 1570.14 1423.49 1570.14 Q1426.87 1570.14 1430.02 1569.32 Q1433.2 1568.49 1436.32 1566.83 L1436.32 1572.37 Q1433.17 1573.71 1429.86 1574.41 Q1426.55 1575.11 1423.14 1575.11 Q1414.61 1575.11 1409.61 1570.14 Q1404.65 1565.18 1404.65 1556.71 Q1404.65 1547.96 1409.36 1542.83 Q1414.1 1537.68 1422.12 1537.68 Q1429.32 1537.68 1433.49 1542.33 Q1437.69 1546.94 1437.69 1554.9 M1431.83 1553.18 Q1431.77 1548.37 1429.13 1545.51 Q1426.52 1542.64 1422.19 1542.64 Q1417.29 1542.64 1414.33 1545.41 Q1411.4 1548.18 1410.95 1553.21 L1431.83 1553.18 Z" fill="#000000" fill-rule="nonzero" fill-opacity="1" /><path clip-path="url(#clip190)" d="M1497.65 1552.67 L1497.65 1574.19 L1491.8 1574.19 L1491.8 1552.86 Q1491.8 1547.8 1489.82 1545.29 Q1487.85 1542.77 1483.9 1542.77 Q1479.16 1542.77 1476.42 1545.79 Q1473.69 1548.82 1473.69 1554.04 L1473.69 1574.19 L1467.8 1574.19 L1467.8 1538.54 L1473.69 1538.54 L1473.69 1544.08 Q1475.79 1540.86 1478.62 1539.27 Q1481.48 1537.68 1485.21 1537.68 Q1491.35 1537.68 1494.5 1541.5 Q1497.65 1545.29 1497.65 1552.67 Z" fill="#000000" fill-rule="nonzero" fill-opacity="1" /><polyline clip-path="url(#clip192)" style="stroke:#000000; stroke-linecap:round; stroke-linejoin:round; stroke-width:2; stroke-opacity:0.1; fill:none" points="234.125,1169.72 2352.76,1169.72 "/>
<polyline clip-path="url(#clip192)" style="stroke:#000000; stroke-linecap:round; stroke-linejoin:round; stroke-width:2; stroke-opacity:0.1; fill:none" points="234.125,864.381 2352.76,864.381 "/>
<polyline clip-path="url(#clip192)" style="stroke:#000000; stroke-linecap:round; stroke-linejoin:round; stroke-width:2; stroke-opacity:0.1; fill:none" points="234.125,559.041 2352.76,559.041 "/>
<polyline clip-path="url(#clip192)" style="stroke:#000000; stroke-linecap:round; stroke-linejoin:round; stroke-width:2; stroke-opacity:0.1; fill:none" points="234.125,253.701 2352.76,253.701 "/>
<polyline clip-path="url(#clip192)" style="stroke:#000000; stroke-linecap:round; stroke-linejoin:round; stroke-width:2; stroke-opacity:0.1; fill:none" points="234.125,1169.72 2352.76,1169.72 "/>
<polyline clip-path="url(#clip192)" style="stroke:#000000; stroke-linecap:round; stroke-linejoin:round; stroke-width:2; stroke-opacity:0.1; fill:none" points="234.125,864.381 2352.76,864.381 "/>
<polyline clip-path="url(#clip192)" style="stroke:#000000; stroke-linecap:round; stroke-linejoin:round; stroke-width:2; stroke-opacity:0.1; fill:none" points="234.125,559.041 2352.76,559.041 "/>
<polyline clip-path="url(#clip192)" style="stroke:#000000; stroke-linecap:round; stroke-linejoin:round; stroke-width:2; stroke-opacity:0.1; fill:none" points="234.125,253.701 2352.76,253.701 "/>
<polyline clip-path="url(#clip190)" style="stroke:#000000; stroke-linecap:round; stroke-linejoin:round; stroke-width:4; stroke-opacity:1; fill:none" points="234.125,1410.9 234.125,47.2441 "/>
<polyline clip-path="url(#clip190)" style="stroke:#000000; stroke-linecap:round; stroke-linejoin:round; stroke-width:4; stroke-opacity:1; fill:none" points="2352.76,1410.9 2352.76,47.2441 "/>
<polyline clip-path="url(#clip190)" style="stroke:#000000; stroke-linecap:round; stroke-linejoin:round; stroke-width:4; stroke-opacity:1; fill:none" points="234.125,1169.72 253.023,1169.72 "/>
<polyline clip-path="url(#clip190)" style="stroke:#000000; stroke-linecap:round; stroke-linejoin:round; stroke-width:4; stroke-opacity:1; fill:none" points="234.125,864.381 253.023,864.381 "/>
<polyline clip-path="url(#clip190)" style="stroke:#000000; stroke-linecap:round; stroke-linejoin:round; stroke-width:4; stroke-opacity:1; fill:none" points="234.125,559.041 253.023,559.041 "/>
<polyline clip-path="url(#clip190)" style="stroke:#000000; stroke-linecap:round; stroke-linejoin:round; stroke-width:4; stroke-opacity:1; fill:none" points="234.125,253.701 253.023,253.701 "/>
<polyline clip-path="url(#clip190)" style="stroke:#000000; stroke-linecap:round; stroke-linejoin:round; stroke-width:4; stroke-opacity:1; fill:none" points="2352.76,1169.72 2333.86,1169.72 "/>
<polyline clip-path="url(#clip190)" style="stroke:#000000; stroke-linecap:round; stroke-linejoin:round; stroke-width:4; stroke-opacity:1; fill:none" points="2352.76,864.381 2333.86,864.381 "/>
<polyline clip-path="url(#clip190)" style="stroke:#000000; stroke-linecap:round; stroke-linejoin:round; stroke-width:4; stroke-opacity:1; fill:none" points="2352.76,559.041 2333.86,559.041 "/>
<polyline clip-path="url(#clip190)" style="stroke:#000000; stroke-linecap:round; stroke-linejoin:round; stroke-width:4; stroke-opacity:1; fill:none" points="2352.76,253.701 2333.86,253.701 "/>
<path clip-path="url(#clip190)" d="M146.066 1152.44 L164.422 1152.44 L164.422 1156.38 L150.348 1156.38 L150.348 1164.85 Q151.366 1164.5 152.385 1164.34 Q153.403 1164.15 154.422 1164.15 Q160.209 1164.15 163.589 1167.32 Q166.968 1170.5 166.968 1175.91 Q166.968 1181.49 163.496 1184.59 Q160.024 1187.67 153.704 1187.67 Q151.528 1187.67 149.26 1187.3 Q147.015 1186.93 144.607 1186.19 L144.607 1181.49 Q146.691 1182.63 148.913 1183.18 Q151.135 1183.74 153.612 1183.74 Q157.616 1183.74 159.954 1181.63 Q162.292 1179.52 162.292 1175.91 Q162.292 1172.3 159.954 1170.2 Q157.616 1168.09 153.612 1168.09 Q151.737 1168.09 149.862 1168.51 Q148.01 1168.92 146.066 1169.8 L146.066 1152.44 Z" fill="#000000" fill-rule="nonzero" fill-opacity="1" /><path clip-path="url(#clip190)" d="M186.181 1155.52 Q182.57 1155.52 180.741 1159.08 Q178.936 1162.63 178.936 1169.76 Q178.936 1176.86 180.741 1180.43 Q182.57 1183.97 186.181 1183.97 Q189.815 1183.97 191.621 1180.43 Q193.45 1176.86 193.45 1169.76 Q193.45 1162.63 191.621 1159.08 Q189.815 1155.52 186.181 1155.52 M186.181 1151.82 Q191.991 1151.82 195.047 1156.42 Q198.125 1161.01 198.125 1169.76 Q198.125 1178.48 195.047 1183.09 Q191.991 1187.67 186.181 1187.67 Q180.371 1187.67 177.292 1183.09 Q174.237 1178.48 174.237 1169.76 Q174.237 1161.01 177.292 1156.42 Q180.371 1151.82 186.181 1151.82 Z" fill="#000000" fill-rule="nonzero" fill-opacity="1" /><path clip-path="url(#clip190)" d="M116.668 877.725 L124.306 877.725 L124.306 851.36 L115.996 853.026 L115.996 848.767 L124.26 847.101 L128.936 847.101 L128.936 877.725 L136.575 877.725 L136.575 881.661 L116.668 881.661 L116.668 877.725 Z" fill="#000000" fill-rule="nonzero" fill-opacity="1" /><path clip-path="url(#clip190)" d="M156.019 850.179 Q152.408 850.179 150.579 853.744 Q148.774 857.286 148.774 864.415 Q148.774 871.522 150.579 875.086 Q152.408 878.628 156.019 878.628 Q159.653 878.628 161.459 875.086 Q163.288 871.522 163.288 864.415 Q163.288 857.286 161.459 853.744 Q159.653 850.179 156.019 850.179 M156.019 846.476 Q161.829 846.476 164.885 851.082 Q167.964 855.665 167.964 864.415 Q167.964 873.142 164.885 877.749 Q161.829 882.332 156.019 882.332 Q150.209 882.332 147.13 877.749 Q144.075 873.142 144.075 864.415 Q144.075 855.665 147.13 851.082 Q150.209 846.476 156.019 846.476 Z" fill="#000000" fill-rule="nonzero" fill-opacity="1" /><path clip-path="url(#clip190)" d="M186.181 850.179 Q182.57 850.179 180.741 853.744 Q178.936 857.286 178.936 864.415 Q178.936 871.522 180.741 875.086 Q182.57 878.628 186.181 878.628 Q189.815 878.628 191.621 875.086 Q193.45 871.522 193.45 864.415 Q193.45 857.286 191.621 853.744 Q189.815 850.179 186.181 850.179 M186.181 846.476 Q191.991 846.476 195.047 851.082 Q198.125 855.665 198.125 864.415 Q198.125 873.142 195.047 877.749 Q191.991 882.332 186.181 882.332 Q180.371 882.332 177.292 877.749 Q174.237 873.142 174.237 864.415 Q174.237 855.665 177.292 851.082 Q180.371 846.476 186.181 846.476 Z" fill="#000000" fill-rule="nonzero" fill-opacity="1" /><path clip-path="url(#clip190)" d="M116.668 572.385 L124.306 572.385 L124.306 546.02 L115.996 547.686 L115.996 543.427 L124.26 541.761 L128.936 541.761 L128.936 572.385 L136.575 572.385 L136.575 576.321 L116.668 576.321 L116.668 572.385 Z" fill="#000000" fill-rule="nonzero" fill-opacity="1" /><path clip-path="url(#clip190)" d="M146.066 541.761 L164.422 541.761 L164.422 545.696 L150.348 545.696 L150.348 554.168 Q151.366 553.821 152.385 553.659 Q153.403 553.473 154.422 553.473 Q160.209 553.473 163.589 556.645 Q166.968 559.816 166.968 565.233 Q166.968 570.811 163.496 573.913 Q160.024 576.992 153.704 576.992 Q151.528 576.992 149.26 576.621 Q147.015 576.251 144.607 575.51 L144.607 570.811 Q146.691 571.946 148.913 572.501 Q151.135 573.057 153.612 573.057 Q157.616 573.057 159.954 570.95 Q162.292 568.844 162.292 565.233 Q162.292 561.622 159.954 559.515 Q157.616 557.409 153.612 557.409 Q151.737 557.409 149.862 557.825 Q148.01 558.242 146.066 559.122 L146.066 541.761 Z" fill="#000000" fill-rule="nonzero" fill-opacity="1" /><path clip-path="url(#clip190)" d="M186.181 544.839 Q182.57 544.839 180.741 548.404 Q178.936 551.946 178.936 559.075 Q178.936 566.182 180.741 569.746 Q182.57 573.288 186.181 573.288 Q189.815 573.288 191.621 569.746 Q193.45 566.182 193.45 559.075 Q193.45 551.946 191.621 548.404 Q189.815 544.839 186.181 544.839 M186.181 541.136 Q191.991 541.136 195.047 545.742 Q198.125 550.325 198.125 559.075 Q198.125 567.802 195.047 572.409 Q191.991 576.992 186.181 576.992 Q180.371 576.992 177.292 572.409 Q174.237 567.802 174.237 559.075 Q174.237 550.325 177.292 545.742 Q180.371 541.136 186.181 541.136 Z" fill="#000000" fill-rule="nonzero" fill-opacity="1" /><path clip-path="url(#clip190)" d="M119.885 267.045 L136.204 267.045 L136.204 270.981 L114.26 270.981 L114.26 267.045 Q116.922 264.291 121.505 259.661 Q126.112 255.008 127.292 253.666 Q129.538 251.143 130.417 249.407 Q131.32 247.647 131.32 245.958 Q131.32 243.203 129.376 241.467 Q127.455 239.731 124.353 239.731 Q122.154 239.731 119.7 240.495 Q117.269 241.258 114.492 242.809 L114.492 238.087 Q117.316 236.953 119.769 236.374 Q122.223 235.796 124.26 235.796 Q129.63 235.796 132.825 238.481 Q136.019 241.166 136.019 245.657 Q136.019 247.786 135.209 249.708 Q134.422 251.606 132.316 254.198 Q131.737 254.87 128.635 258.087 Q125.533 261.282 119.885 267.045 Z" fill="#000000" fill-rule="nonzero" fill-opacity="1" /><path clip-path="url(#clip190)" d="M156.019 239.499 Q152.408 239.499 150.579 243.064 Q148.774 246.606 148.774 253.735 Q148.774 260.842 150.579 264.406 Q152.408 267.948 156.019 267.948 Q159.653 267.948 161.459 264.406 Q163.288 260.842 163.288 253.735 Q163.288 246.606 161.459 243.064 Q159.653 239.499 156.019 239.499 M156.019 235.796 Q161.829 235.796 164.885 240.402 Q167.964 244.985 167.964 253.735 Q167.964 262.462 164.885 267.069 Q161.829 271.652 156.019 271.652 Q150.209 271.652 147.13 267.069 Q144.075 262.462 144.075 253.735 Q144.075 244.985 147.13 240.402 Q150.209 235.796 156.019 235.796 Z" fill="#000000" fill-rule="nonzero" fill-opacity="1" /><path clip-path="url(#clip190)" d="M186.181 239.499 Q182.57 239.499 180.741 243.064 Q178.936 246.606 178.936 253.735 Q178.936 260.842 180.741 264.406 Q182.57 267.948 186.181 267.948 Q189.815 267.948 191.621 264.406 Q193.45 260.842 193.45 253.735 Q193.45 246.606 191.621 243.064 Q189.815 239.499 186.181 239.499 M186.181 235.796 Q191.991 235.796 195.047 240.402 Q198.125 244.985 198.125 253.735 Q198.125 262.462 195.047 267.069 Q191.991 271.652 186.181 271.652 Q180.371 271.652 177.292 267.069 Q174.237 262.462 174.237 253.735 Q174.237 244.985 177.292 240.402 Q180.371 235.796 186.181 235.796 Z" fill="#000000" fill-rule="nonzero" fill-opacity="1" /><path clip-path="url(#clip190)" d="M46.212 980.707 Q39.7508 980.707 36.0905 983.38 Q32.3984 986.022 32.3984 990.669 Q32.3984 995.316 36.0905 997.99 Q39.7508 1000.63 46.212 1000.63 Q52.6732 1000.63 56.3653 997.99 Q60.0256 995.316 60.0256 990.669 Q60.0256 986.022 56.3653 983.38 Q52.6732 980.707 46.212 980.707 M33.7671 1000.63 Q30.5842 998.785 29.0564 995.984 Q27.4968 993.152 27.4968 989.237 Q27.4968 982.744 32.6531 978.702 Q37.8093 974.628 46.212 974.628 Q54.6147 974.628 59.771 978.702 Q64.9272 982.744 64.9272 989.237 Q64.9272 993.152 63.3994 995.984 Q61.8398 998.785 58.657 1000.63 L64.0042 1000.63 L64.0042 1006.52 L14.479 1006.52 L14.479 1000.63 L33.7671 1000.63 Z" fill="#000000" fill-rule="nonzero" fill-opacity="1" /><path clip-path="url(#clip190)" d="M46.0847 948.719 Q46.0847 955.817 47.7079 958.554 Q49.3312 961.291 53.2461 961.291 Q56.3653 961.291 58.2114 959.254 Q60.0256 957.185 60.0256 953.652 Q60.0256 948.783 56.5881 945.855 Q53.1188 942.894 47.3897 942.894 L46.0847 942.894 L46.0847 948.719 M43.6657 937.038 L64.0042 937.038 L64.0042 942.894 L58.5933 942.894 Q61.8398 944.9 63.3994 947.892 Q64.9272 950.883 64.9272 955.212 Q64.9272 960.687 61.8716 963.933 Q58.7843 967.148 53.6281 967.148 Q47.6125 967.148 44.5569 963.137 Q41.5014 959.095 41.5014 951.106 L41.5014 942.894 L40.9285 942.894 Q36.8862 942.894 34.6901 945.568 Q32.4621 948.21 32.4621 953.016 Q32.4621 956.071 33.1941 958.968 Q33.9262 961.864 35.3903 964.538 L29.9795 964.538 Q28.7381 961.323 28.1334 958.299 Q27.4968 955.276 27.4968 952.411 Q27.4968 944.677 31.5072 940.857 Q35.5176 937.038 43.6657 937.038 Z" fill="#000000" fill-rule="nonzero" fill-opacity="1" /><path clip-path="url(#clip190)" d="M42.4881 895.343 L64.0042 895.343 L64.0042 901.199 L42.679 901.199 Q37.6183 901.199 35.1038 903.172 Q32.5894 905.146 32.5894 909.093 Q32.5894 913.835 35.6131 916.572 Q38.6368 919.31 43.8567 919.31 L64.0042 919.31 L64.0042 925.198 L28.3562 925.198 L28.3562 919.31 L33.8944 919.31 Q30.6797 917.209 29.0883 914.376 Q27.4968 911.512 27.4968 907.788 Q27.4968 901.645 31.3163 898.494 Q35.1038 895.343 42.4881 895.343 Z" fill="#000000" fill-rule="nonzero" fill-opacity="1" /><path clip-path="url(#clip190)" d="M33.7671 860.204 L14.479 860.204 L14.479 854.347 L64.0042 854.347 L64.0042 860.204 L58.657 860.204 Q61.8398 862.05 63.3994 864.883 Q64.9272 867.684 64.9272 871.63 Q64.9272 878.092 59.771 882.166 Q54.6147 886.208 46.212 886.208 Q37.8093 886.208 32.6531 882.166 Q27.4968 878.092 27.4968 871.63 Q27.4968 867.684 29.0564 864.883 Q30.5842 862.05 33.7671 860.204 M46.212 880.16 Q52.6732 880.16 56.3653 877.519 Q60.0256 874.845 60.0256 870.198 Q60.0256 865.551 56.3653 862.878 Q52.6732 860.204 46.212 860.204 Q39.7508 860.204 36.0905 862.878 Q32.3984 865.551 32.3984 870.198 Q32.3984 874.845 36.0905 877.519 Q39.7508 880.16 46.212 880.16 Z" fill="#000000" fill-rule="nonzero" fill-opacity="1" /><path clip-path="url(#clip190)" d="M28.3562 845.69 L28.3562 839.834 L56.1743 832.513 L28.3562 825.224 L28.3562 818.318 L56.1743 810.997 L28.3562 803.708 L28.3562 797.852 L64.0042 807.178 L64.0042 814.084 L34.7856 821.755 L64.0042 829.458 L64.0042 836.364 L28.3562 845.69 Z" fill="#000000" fill-rule="nonzero" fill-opacity="1" /><path clip-path="url(#clip190)" d="M28.3562 788.972 L28.3562 783.115 L64.0042 783.115 L64.0042 788.972 L28.3562 788.972 M14.479 788.972 L14.479 783.115 L21.895 783.115 L21.895 788.972 L14.479 788.972 Z" fill="#000000" fill-rule="nonzero" fill-opacity="1" /><path clip-path="url(#clip190)" d="M33.7671 747.404 L14.479 747.404 L14.479 741.547 L64.0042 741.547 L64.0042 747.404 L58.657 747.404 Q61.8398 749.25 63.3994 752.082 Q64.9272 754.883 64.9272 758.83 Q64.9272 765.291 59.771 769.365 Q54.6147 773.408 46.212 773.408 Q37.8093 773.408 32.6531 769.365 Q27.4968 765.291 27.4968 758.83 Q27.4968 754.883 29.0564 752.082 Q30.5842 749.25 33.7671 747.404 M46.212 767.36 Q52.6732 767.36 56.3653 764.718 Q60.0256 762.045 60.0256 757.398 Q60.0256 752.751 56.3653 750.077 Q52.6732 747.404 46.212 747.404 Q39.7508 747.404 36.0905 750.077 Q32.3984 752.751 32.3984 757.398 Q32.3984 762.045 36.0905 764.718 Q39.7508 767.36 46.212 767.36 Z" fill="#000000" fill-rule="nonzero" fill-opacity="1" /><path clip-path="url(#clip190)" d="M18.2347 723.691 L28.3562 723.691 L28.3562 711.628 L32.9077 711.628 L32.9077 723.691 L52.2594 723.691 Q56.6199 723.691 57.8613 722.514 Q59.1026 721.304 59.1026 717.644 L59.1026 711.628 L64.0042 711.628 L64.0042 717.644 Q64.0042 724.423 61.4897 727.002 Q58.9434 729.58 52.2594 729.58 L32.9077 729.58 L32.9077 733.876 L28.3562 733.876 L28.3562 729.58 L18.2347 729.58 L18.2347 723.691 Z" fill="#000000" fill-rule="nonzero" fill-opacity="1" /><path clip-path="url(#clip190)" d="M42.4881 674.293 L64.0042 674.293 L64.0042 680.15 L42.679 680.15 Q37.6183 680.15 35.1038 682.123 Q32.5894 684.097 32.5894 688.043 Q32.5894 692.786 35.6131 695.523 Q38.6368 698.26 43.8567 698.26 L64.0042 698.26 L64.0042 704.149 L14.479 704.149 L14.479 698.26 L33.8944 698.26 Q30.6797 696.16 29.0883 693.327 Q27.4968 690.462 27.4968 686.738 Q27.4968 680.596 31.3163 677.444 Q35.1038 674.293 42.4881 674.293 Z" fill="#000000" fill-rule="nonzero" fill-opacity="1" /><path clip-path="url(#clip190)" d="M14.479 642.433 L14.479 628.938 L19.0304 628.938 L19.0304 636.577 L68.0464 636.577 L68.0464 628.938 L72.5979 628.938 L72.5979 642.433 L14.479 642.433 Z" fill="#000000" fill-rule="nonzero" fill-opacity="1" /><path clip-path="url(#clip190)" d="M57.2247 583.805 L44.4614 583.805 L44.4614 594.308 L39.1779 594.308 L39.1779 577.439 L59.58 577.439 Q62.2218 581.163 63.5904 585.651 Q64.9272 590.139 64.9272 595.231 Q64.9272 606.371 58.4342 612.673 Q51.9093 618.944 40.2919 618.944 Q28.6427 618.944 22.1496 612.673 Q15.6248 606.371 15.6248 595.231 Q15.6248 590.584 16.7706 586.415 Q17.9164 582.214 20.1444 578.681 L26.9876 578.681 Q23.9639 582.245 22.4361 586.256 Q20.9083 590.266 20.9083 594.69 Q20.9083 603.411 25.7781 607.804 Q30.6479 612.164 40.2919 612.164 Q49.9041 612.164 54.7739 607.804 Q59.6436 603.411 59.6436 594.69 Q59.6436 591.285 59.0707 588.611 Q58.466 585.937 57.2247 583.805 Z" fill="#000000" fill-rule="nonzero" fill-opacity="1" /><path clip-path="url(#clip190)" d="M41.3104 559.265 L58.7206 559.265 L58.7206 548.953 Q58.7206 543.765 56.5881 541.282 Q54.4238 538.768 49.9996 538.768 Q45.5436 538.768 43.4429 541.282 Q41.3104 543.765 41.3104 548.953 L41.3104 559.265 M21.7677 559.265 L36.0905 559.265 L36.0905 549.748 Q36.0905 545.038 34.34 542.746 Q32.5576 540.423 28.9291 540.423 Q25.3325 540.423 23.5501 542.746 Q21.7677 545.038 21.7677 549.748 L21.7677 559.265 M16.4842 565.695 L16.4842 549.271 Q16.4842 541.919 19.5397 537.94 Q22.5952 533.961 28.2289 533.961 Q32.5894 533.961 35.1675 535.998 Q37.7456 538.036 38.3822 541.982 Q39.4007 537.24 42.6472 534.63 Q45.8619 531.988 50.6998 531.988 Q57.0655 531.988 60.5348 536.317 Q64.0042 540.645 64.0042 548.634 L64.0042 565.695 L16.4842 565.695 Z" fill="#000000" fill-rule="nonzero" fill-opacity="1" /><path clip-path="url(#clip190)" d="M16.4842 510.822 L16.4842 505.411 L70.0516 521.962 L70.0516 527.373 L16.4842 510.822 Z" fill="#000000" fill-rule="nonzero" fill-opacity="1" /><path clip-path="url(#clip190)" d="M29.4065 476.543 L34.9447 476.543 Q33.6716 479.025 33.035 481.699 Q32.3984 484.373 32.3984 487.237 Q32.3984 491.598 33.7352 493.794 Q35.072 495.958 37.7456 495.958 Q39.7826 495.958 40.9603 494.399 Q42.1061 492.839 43.1565 488.128 L43.6021 486.123 Q44.9389 479.885 47.3897 477.275 Q49.8086 474.633 54.1691 474.633 Q59.1344 474.633 62.0308 478.58 Q64.9272 482.495 64.9272 489.37 Q64.9272 492.234 64.3543 495.353 Q63.8132 498.441 62.6992 501.878 L56.6518 501.878 Q58.3387 498.632 59.198 495.481 Q60.0256 492.33 60.0256 489.242 Q60.0256 485.105 58.6251 482.877 Q57.1929 480.649 54.6147 480.649 Q52.2276 480.649 50.9545 482.272 Q49.6813 483.863 48.5037 489.306 L48.0262 491.343 Q46.8804 496.786 44.5251 499.205 Q42.138 501.624 38.0002 501.624 Q32.9713 501.624 30.2341 498.059 Q27.4968 494.494 27.4968 487.937 Q27.4968 484.691 27.9743 481.826 Q28.4517 478.962 29.4065 476.543 Z" fill="#000000" fill-rule="nonzero" fill-opacity="1" /><path clip-path="url(#clip190)" d="M14.479 451.621 L72.5979 451.621 L72.5979 465.116 L68.0464 465.116 L68.0464 457.509 L19.0304 457.509 L19.0304 465.116 L14.479 465.116 L14.479 451.621 Z" fill="#000000" fill-rule="nonzero" fill-opacity="1" /><polyline clip-path="url(#clip192)" style="stroke:#009af9; stroke-linecap:round; stroke-linejoin:round; stroke-width:4; stroke-opacity:1; fill:none" points="294.087,295.746 395.127,157.007 454.231,135.543 496.167,117.497 555.271,103.685 614.376,97.3697 656.311,93.2654 707.084,175.622 751.147,85.838 799.287,136.639 858.391,629.236 904.812,634.062 956.362,629.156 1005.85,627.019 1055.84,626.878 1105.78,625.35 1155.31,660.153 1205.14,629.942 1254.75,630.665 1304.49,757.687 1363.59,1065.42 1410.56,1234.36 1457.63,1252.34 1504.85,1256.02 1551.95,1256.05 1599.11,1256.33 1646.21,1256.78 1693.35,1256.09 1740.46,1262.76 1787.59,1261.35 1846.7,1307.16 1910.42,1350.61 1974.15,1365.02 2037.88,1362.27 2101.61,1369.05 2165.34,1369.78 2229.07,1371.47 2292.79,1372.3 "/>
<circle clip-path="url(#clip192)" cx="294.087" cy="295.746" r="7.2" fill="#009af9" fill-rule="evenodd" fill-opacity="1" stroke="#000000" stroke-opacity="1" stroke-width="3.2"/>
<circle clip-path="url(#clip192)" cx="395.127" cy="157.007" r="7.2" fill="#009af9" fill-rule="evenodd" fill-opacity="1" stroke="#000000" stroke-opacity="1" stroke-width="3.2"/>
<circle clip-path="url(#clip192)" cx="454.231" cy="135.543" r="7.2" fill="#009af9" fill-rule="evenodd" fill-opacity="1" stroke="#000000" stroke-opacity="1" stroke-width="3.2"/>
<circle clip-path="url(#clip192)" cx="496.167" cy="117.497" r="7.2" fill="#009af9" fill-rule="evenodd" fill-opacity="1" stroke="#000000" stroke-opacity="1" stroke-width="3.2"/>
<circle clip-path="url(#clip192)" cx="555.271" cy="103.685" r="7.2" fill="#009af9" fill-rule="evenodd" fill-opacity="1" stroke="#000000" stroke-opacity="1" stroke-width="3.2"/>
<circle clip-path="url(#clip192)" cx="614.376" cy="97.3697" r="7.2" fill="#009af9" fill-rule="evenodd" fill-opacity="1" stroke="#000000" stroke-opacity="1" stroke-width="3.2"/>
<circle clip-path="url(#clip192)" cx="656.311" cy="93.2654" r="7.2" fill="#009af9" fill-rule="evenodd" fill-opacity="1" stroke="#000000" stroke-opacity="1" stroke-width="3.2"/>
<circle clip-path="url(#clip192)" cx="707.084" cy="175.622" r="7.2" fill="#009af9" fill-rule="evenodd" fill-opacity="1" stroke="#000000" stroke-opacity="1" stroke-width="3.2"/>
<circle clip-path="url(#clip192)" cx="751.147" cy="85.838" r="7.2" fill="#009af9" fill-rule="evenodd" fill-opacity="1" stroke="#000000" stroke-opacity="1" stroke-width="3.2"/>
<circle clip-path="url(#clip192)" cx="799.287" cy="136.639" r="7.2" fill="#009af9" fill-rule="evenodd" fill-opacity="1" stroke="#000000" stroke-opacity="1" stroke-width="3.2"/>
<circle clip-path="url(#clip192)" cx="858.391" cy="629.236" r="7.2" fill="#009af9" fill-rule="evenodd" fill-opacity="1" stroke="#000000" stroke-opacity="1" stroke-width="3.2"/>
<circle clip-path="url(#clip192)" cx="904.812" cy="634.062" r="7.2" fill="#009af9" fill-rule="evenodd" fill-opacity="1" stroke="#000000" stroke-opacity="1" stroke-width="3.2"/>
<circle clip-path="url(#clip192)" cx="956.362" cy="629.156" r="7.2" fill="#009af9" fill-rule="evenodd" fill-opacity="1" stroke="#000000" stroke-opacity="1" stroke-width="3.2"/>
<circle clip-path="url(#clip192)" cx="1005.85" cy="627.019" r="7.2" fill="#009af9" fill-rule="evenodd" fill-opacity="1" stroke="#000000" stroke-opacity="1" stroke-width="3.2"/>
<circle clip-path="url(#clip192)" cx="1055.84" cy="626.878" r="7.2" fill="#009af9" fill-rule="evenodd" fill-opacity="1" stroke="#000000" stroke-opacity="1" stroke-width="3.2"/>
<circle clip-path="url(#clip192)" cx="1105.78" cy="625.35" r="7.2" fill="#009af9" fill-rule="evenodd" fill-opacity="1" stroke="#000000" stroke-opacity="1" stroke-width="3.2"/>
<circle clip-path="url(#clip192)" cx="1155.31" cy="660.153" r="7.2" fill="#009af9" fill-rule="evenodd" fill-opacity="1" stroke="#000000" stroke-opacity="1" stroke-width="3.2"/>
<circle clip-path="url(#clip192)" cx="1205.14" cy="629.942" r="7.2" fill="#009af9" fill-rule="evenodd" fill-opacity="1" stroke="#000000" stroke-opacity="1" stroke-width="3.2"/>
<circle clip-path="url(#clip192)" cx="1254.75" cy="630.665" r="7.2" fill="#009af9" fill-rule="evenodd" fill-opacity="1" stroke="#000000" stroke-opacity="1" stroke-width="3.2"/>
<circle clip-path="url(#clip192)" cx="1304.49" cy="757.687" r="7.2" fill="#009af9" fill-rule="evenodd" fill-opacity="1" stroke="#000000" stroke-opacity="1" stroke-width="3.2"/>
<circle clip-path="url(#clip192)" cx="1363.59" cy="1065.42" r="7.2" fill="#009af9" fill-rule="evenodd" fill-opacity="1" stroke="#000000" stroke-opacity="1" stroke-width="3.2"/>
<circle clip-path="url(#clip192)" cx="1410.56" cy="1234.36" r="7.2" fill="#009af9" fill-rule="evenodd" fill-opacity="1" stroke="#000000" stroke-opacity="1" stroke-width="3.2"/>
<circle clip-path="url(#clip192)" cx="1457.63" cy="1252.34" r="7.2" fill="#009af9" fill-rule="evenodd" fill-opacity="1" stroke="#000000" stroke-opacity="1" stroke-width="3.2"/>
<circle clip-path="url(#clip192)" cx="1504.85" cy="1256.02" r="7.2" fill="#009af9" fill-rule="evenodd" fill-opacity="1" stroke="#000000" stroke-opacity="1" stroke-width="3.2"/>
<circle clip-path="url(#clip192)" cx="1551.95" cy="1256.05" r="7.2" fill="#009af9" fill-rule="evenodd" fill-opacity="1" stroke="#000000" stroke-opacity="1" stroke-width="3.2"/>
<circle clip-path="url(#clip192)" cx="1599.11" cy="1256.33" r="7.2" fill="#009af9" fill-rule="evenodd" fill-opacity="1" stroke="#000000" stroke-opacity="1" stroke-width="3.2"/>
<circle clip-path="url(#clip192)" cx="1646.21" cy="1256.78" r="7.2" fill="#009af9" fill-rule="evenodd" fill-opacity="1" stroke="#000000" stroke-opacity="1" stroke-width="3.2"/>
<circle clip-path="url(#clip192)" cx="1693.35" cy="1256.09" r="7.2" fill="#009af9" fill-rule="evenodd" fill-opacity="1" stroke="#000000" stroke-opacity="1" stroke-width="3.2"/>
<circle clip-path="url(#clip192)" cx="1740.46" cy="1262.76" r="7.2" fill="#009af9" fill-rule="evenodd" fill-opacity="1" stroke="#000000" stroke-opacity="1" stroke-width="3.2"/>
<circle clip-path="url(#clip192)" cx="1787.59" cy="1261.35" r="7.2" fill="#009af9" fill-rule="evenodd" fill-opacity="1" stroke="#000000" stroke-opacity="1" stroke-width="3.2"/>
<circle clip-path="url(#clip192)" cx="1846.7" cy="1307.16" r="7.2" fill="#009af9" fill-rule="evenodd" fill-opacity="1" stroke="#000000" stroke-opacity="1" stroke-width="3.2"/>
<circle clip-path="url(#clip192)" cx="1910.42" cy="1350.61" r="7.2" fill="#009af9" fill-rule="evenodd" fill-opacity="1" stroke="#000000" stroke-opacity="1" stroke-width="3.2"/>
<circle clip-path="url(#clip192)" cx="1974.15" cy="1365.02" r="7.2" fill="#009af9" fill-rule="evenodd" fill-opacity="1" stroke="#000000" stroke-opacity="1" stroke-width="3.2"/>
<circle clip-path="url(#clip192)" cx="2037.88" cy="1362.27" r="7.2" fill="#009af9" fill-rule="evenodd" fill-opacity="1" stroke="#000000" stroke-opacity="1" stroke-width="3.2"/>
<circle clip-path="url(#clip192)" cx="2101.61" cy="1369.05" r="7.2" fill="#009af9" fill-rule="evenodd" fill-opacity="1" stroke="#000000" stroke-opacity="1" stroke-width="3.2"/>
<circle clip-path="url(#clip192)" cx="2165.34" cy="1369.78" r="7.2" fill="#009af9" fill-rule="evenodd" fill-opacity="1" stroke="#000000" stroke-opacity="1" stroke-width="3.2"/>
<circle clip-path="url(#clip192)" cx="2229.07" cy="1371.47" r="7.2" fill="#009af9" fill-rule="evenodd" fill-opacity="1" stroke="#000000" stroke-opacity="1" stroke-width="3.2"/>
<circle clip-path="url(#clip192)" cx="2292.79" cy="1372.3" r="7.2" fill="#009af9" fill-rule="evenodd" fill-opacity="1" stroke="#000000" stroke-opacity="1" stroke-width="3.2"/>
<polyline clip-path="url(#clip192)" style="stroke:#ffa500; stroke-linecap:round; stroke-linejoin:round; stroke-width:8; stroke-opacity:1; fill:none" points="799.287,2774.55 799.287,-1316.41 "/>
<polyline clip-path="url(#clip192)" style="stroke:#ff0000; stroke-linecap:round; stroke-linejoin:round; stroke-width:8; stroke-opacity:1; fill:none" points="1304.49,2774.55 1304.49,-1316.41 "/>
<polyline clip-path="url(#clip192)" style="stroke:#800080; stroke-linecap:round; stroke-linejoin:round; stroke-width:8; stroke-opacity:1; fill:none" points="1787.59,2774.55 1787.59,-1316.41 "/>
<path clip-path="url(#clip190)" d="M1431.64 351.899 L2282.13 351.899 L2282.13 92.6992 L1431.64 92.6992  Z" fill="#ffffff" fill-rule="evenodd" fill-opacity="1"/>
<polyline clip-path="url(#clip190)" style="stroke:#000000; stroke-linecap:round; stroke-linejoin:round; stroke-width:4; stroke-opacity:1; fill:none" points="1431.64,351.899 2282.13,351.899 2282.13,92.6992 1431.64,92.6992 1431.64,351.899 "/>
<polyline clip-path="url(#clip190)" style="stroke:#009af9; stroke-linecap:round; stroke-linejoin:round; stroke-width:4; stroke-opacity:1; fill:none" points="1455.18,144.539 1596.42,144.539 "/>
<circle clip-path="url(#clip190)" cx="1525.8" cy="144.539" r="18.432" fill="#009af9" fill-rule="evenodd" fill-opacity="1" stroke="#000000" stroke-opacity="1" stroke-width="8.192"/>
<path clip-path="url(#clip190)" d="M1638.39 136.657 L1638.39 140.685 Q1636.58 139.759 1634.64 139.296 Q1632.7 138.833 1630.61 138.833 Q1627.44 138.833 1625.84 139.805 Q1624.27 140.778 1624.27 142.722 Q1624.27 144.204 1625.4 145.06 Q1626.54 145.893 1629.96 146.657 L1631.42 146.981 Q1635.96 147.954 1637.86 149.736 Q1639.78 151.495 1639.78 154.666 Q1639.78 158.278 1636.91 160.384 Q1634.06 162.49 1629.06 162.49 Q1626.98 162.49 1624.71 162.074 Q1622.46 161.68 1619.96 160.87 L1619.96 156.472 Q1622.32 157.699 1624.62 158.324 Q1626.91 158.926 1629.15 158.926 Q1632.16 158.926 1633.78 157.907 Q1635.4 156.866 1635.4 154.991 Q1635.4 153.254 1634.22 152.328 Q1633.07 151.403 1629.11 150.546 L1627.63 150.199 Q1623.67 149.366 1621.91 147.653 Q1620.15 145.916 1620.15 142.907 Q1620.15 139.25 1622.74 137.259 Q1625.33 135.268 1630.1 135.268 Q1632.46 135.268 1634.55 135.616 Q1636.63 135.963 1638.39 136.657 Z" fill="#000000" fill-rule="nonzero" fill-opacity="1" /><path clip-path="url(#clip190)" d="M1663.62 139.829 L1663.62 125.801 L1667.88 125.801 L1667.88 161.819 L1663.62 161.819 L1663.62 157.93 Q1662.28 160.245 1660.22 161.379 Q1658.18 162.49 1655.31 162.49 Q1650.61 162.49 1647.65 158.74 Q1644.71 154.991 1644.71 148.879 Q1644.71 142.768 1647.65 139.018 Q1650.61 135.268 1655.31 135.268 Q1658.18 135.268 1660.22 136.403 Q1662.28 137.514 1663.62 139.829 M1649.11 148.879 Q1649.11 153.578 1651.03 156.264 Q1652.97 158.926 1656.35 158.926 Q1659.73 158.926 1661.68 156.264 Q1663.62 153.578 1663.62 148.879 Q1663.62 144.18 1661.68 141.518 Q1659.73 138.833 1656.35 138.833 Q1652.97 138.833 1651.03 141.518 Q1649.11 144.18 1649.11 148.879 Z" fill="#000000" fill-rule="nonzero" fill-opacity="1" /><path clip-path="url(#clip190)" d="M1688.44 148.787 Q1683.27 148.787 1681.28 149.967 Q1679.29 151.148 1679.29 153.995 Q1679.29 156.264 1680.77 157.606 Q1682.28 158.926 1684.85 158.926 Q1688.39 158.926 1690.52 156.426 Q1692.67 153.903 1692.67 149.736 L1692.67 148.787 L1688.44 148.787 M1696.93 147.028 L1696.93 161.819 L1692.67 161.819 L1692.67 157.884 Q1691.21 160.245 1689.04 161.379 Q1686.86 162.49 1683.71 162.49 Q1679.73 162.49 1677.37 160.268 Q1675.03 158.023 1675.03 154.273 Q1675.03 149.898 1677.95 147.676 Q1680.89 145.454 1686.7 145.454 L1692.67 145.454 L1692.67 145.037 Q1692.67 142.097 1690.73 140.5 Q1688.81 138.879 1685.31 138.879 Q1683.09 138.879 1680.98 139.412 Q1678.88 139.944 1676.93 141.009 L1676.93 137.074 Q1679.27 136.171 1681.47 135.731 Q1683.67 135.268 1685.75 135.268 Q1691.38 135.268 1694.15 138.185 Q1696.93 141.102 1696.93 147.028 Z" fill="#000000" fill-rule="nonzero" fill-opacity="1" /><path clip-path="url(#clip190)" d="M1727.25 135.893 L1717.88 148.509 L1727.74 161.819 L1722.72 161.819 L1715.17 151.634 L1707.63 161.819 L1702.6 161.819 L1712.67 148.254 L1703.46 135.893 L1708.48 135.893 L1715.36 145.129 L1722.23 135.893 L1727.25 135.893 Z" fill="#000000" fill-rule="nonzero" fill-opacity="1" /><path clip-path="url(#clip190)" d="M1737.88 157.93 L1737.88 171.68 L1733.6 171.68 L1733.6 135.893 L1737.88 135.893 L1737.88 139.829 Q1739.22 137.514 1741.26 136.403 Q1743.32 135.268 1746.17 135.268 Q1750.89 135.268 1753.83 139.018 Q1756.79 142.768 1756.79 148.879 Q1756.79 154.991 1753.83 158.74 Q1750.89 162.49 1746.17 162.49 Q1743.32 162.49 1741.26 161.379 Q1739.22 160.245 1737.88 157.93 M1752.37 148.879 Q1752.37 144.18 1750.43 141.518 Q1748.5 138.833 1745.13 138.833 Q1741.75 138.833 1739.8 141.518 Q1737.88 144.18 1737.88 148.879 Q1737.88 153.578 1739.8 156.264 Q1741.75 158.926 1745.13 158.926 Q1748.5 158.926 1750.43 156.264 Q1752.37 153.578 1752.37 148.879 Z" fill="#000000" fill-rule="nonzero" fill-opacity="1" /><path clip-path="url(#clip190)" d="M1774.64 164.227 Q1772.83 168.856 1771.12 170.268 Q1769.41 171.68 1766.54 171.68 L1763.13 171.68 L1763.13 168.115 L1765.63 168.115 Q1767.39 168.115 1768.37 167.282 Q1769.34 166.449 1770.52 163.347 L1771.28 161.403 L1760.8 135.893 L1765.31 135.893 L1773.41 156.171 L1781.51 135.893 L1786.03 135.893 L1774.64 164.227 Z" fill="#000000" fill-rule="nonzero" fill-opacity="1" /><path clip-path="url(#clip190)" d="M1794.59 155.94 L1799.29 155.94 L1799.29 161.819 L1794.59 161.819 L1794.59 155.94 M1794.59 127.259 L1799.29 127.259 L1799.29 142.421 L1798.83 150.685 L1795.08 150.685 L1794.59 142.421 L1794.59 127.259 Z" fill="#000000" fill-rule="nonzero" fill-opacity="1" /><polyline clip-path="url(#clip190)" style="stroke:#ffa500; stroke-linecap:round; stroke-linejoin:round; stroke-width:8; stroke-opacity:1; fill:none" points="1455.18,196.379 1596.42,196.379 "/>
<path clip-path="url(#clip190)" d="M1619.96 179.099 L1624.64 179.099 L1624.64 209.724 L1641.47 209.724 L1641.47 213.659 L1619.96 213.659 L1619.96 179.099 Z" fill="#000000" fill-rule="nonzero" fill-opacity="1" /><path clip-path="url(#clip190)" d="M1647.6 209.724 L1655.24 209.724 L1655.24 183.358 L1646.93 185.025 L1646.93 180.766 L1655.2 179.099 L1659.87 179.099 L1659.87 209.724 L1667.51 209.724 L1667.51 213.659 L1647.6 213.659 L1647.6 209.724 Z" fill="#000000" fill-rule="nonzero" fill-opacity="1" /><path clip-path="url(#clip190)" d="M1691.98 192.132 L1721.65 192.132 L1721.65 196.02 L1691.98 196.02 L1691.98 192.132 M1691.98 201.576 L1721.65 201.576 L1721.65 205.511 L1691.98 205.511 L1691.98 201.576 Z" fill="#000000" fill-rule="nonzero" fill-opacity="1" /><path clip-path="url(#clip190)" d="M1747.63 209.724 L1755.26 209.724 L1755.26 183.358 L1746.95 185.025 L1746.95 180.766 L1755.22 179.099 L1759.89 179.099 L1759.89 209.724 L1767.53 209.724 L1767.53 213.659 L1747.63 213.659 L1747.63 209.724 Z" fill="#000000" fill-rule="nonzero" fill-opacity="1" /><path clip-path="url(#clip190)" d="M1786.98 182.178 Q1783.37 182.178 1781.54 185.743 Q1779.73 189.284 1779.73 196.414 Q1779.73 203.52 1781.54 207.085 Q1783.37 210.627 1786.98 210.627 Q1790.61 210.627 1792.42 207.085 Q1794.25 203.52 1794.25 196.414 Q1794.25 189.284 1792.42 185.743 Q1790.61 182.178 1786.98 182.178 M1786.98 178.474 Q1792.79 178.474 1795.84 183.081 Q1798.92 187.664 1798.92 196.414 Q1798.92 205.141 1795.84 209.747 Q1792.79 214.33 1786.98 214.33 Q1781.17 214.33 1778.09 209.747 Q1775.03 205.141 1775.03 196.414 Q1775.03 187.664 1778.09 183.081 Q1781.17 178.474 1786.98 178.474 Z" fill="#000000" fill-rule="nonzero" fill-opacity="1" /><path clip-path="url(#clip190)" d="M1811.17 209.724 L1827.49 209.724 L1827.49 213.659 L1805.54 213.659 L1805.54 209.724 Q1808.2 206.969 1812.79 202.34 Q1817.39 197.687 1818.57 196.344 Q1820.82 193.821 1821.7 192.085 Q1822.6 190.326 1822.6 188.636 Q1822.6 185.882 1820.66 184.145 Q1818.74 182.409 1815.63 182.409 Q1813.43 182.409 1810.98 183.173 Q1808.55 183.937 1805.77 185.488 L1805.77 180.766 Q1808.6 179.632 1811.05 179.053 Q1813.5 178.474 1815.54 178.474 Q1820.91 178.474 1824.11 181.159 Q1827.3 183.845 1827.3 188.335 Q1827.3 190.465 1826.49 192.386 Q1825.7 194.284 1823.6 196.877 Q1823.02 197.548 1819.92 200.766 Q1816.81 203.96 1811.17 209.724 Z" fill="#000000" fill-rule="nonzero" fill-opacity="1" /><path clip-path="url(#clip190)" d="M1850.15 183.173 L1838.34 201.622 L1850.15 201.622 L1850.15 183.173 M1848.92 179.099 L1854.8 179.099 L1854.8 201.622 L1859.73 201.622 L1859.73 205.511 L1854.8 205.511 L1854.8 213.659 L1850.15 213.659 L1850.15 205.511 L1834.55 205.511 L1834.55 200.997 L1848.92 179.099 Z" fill="#000000" fill-rule="nonzero" fill-opacity="1" /><path clip-path="url(#clip190)" d="M1892.16 177.687 Q1889.06 183.011 1887.55 188.22 Q1886.05 193.428 1886.05 198.775 Q1886.05 204.122 1887.55 209.377 Q1889.08 214.608 1892.16 219.909 L1888.46 219.909 Q1884.99 214.469 1883.25 209.215 Q1881.54 203.96 1881.54 198.775 Q1881.54 193.613 1883.25 188.382 Q1884.96 183.15 1888.46 177.687 L1892.16 177.687 Z" fill="#000000" fill-rule="nonzero" fill-opacity="1" /><path clip-path="url(#clip190)" d="M1915.19 195.025 Q1918.55 195.743 1920.43 198.011 Q1922.32 200.28 1922.32 203.613 Q1922.32 208.729 1918.8 211.53 Q1915.29 214.33 1908.8 214.33 Q1906.63 214.33 1904.31 213.891 Q1902.02 213.474 1899.57 212.618 L1899.57 208.104 Q1901.51 209.238 1903.83 209.817 Q1906.14 210.395 1908.67 210.395 Q1913.06 210.395 1915.36 208.659 Q1917.67 206.923 1917.67 203.613 Q1917.67 200.557 1915.52 198.844 Q1913.39 197.108 1909.57 197.108 L1905.54 197.108 L1905.54 193.266 L1909.75 193.266 Q1913.2 193.266 1915.03 191.9 Q1916.86 190.511 1916.86 187.919 Q1916.86 185.257 1914.96 183.845 Q1913.09 182.409 1909.57 182.409 Q1907.65 182.409 1905.45 182.826 Q1903.25 183.243 1900.61 184.122 L1900.61 179.956 Q1903.27 179.215 1905.59 178.845 Q1907.93 178.474 1909.99 178.474 Q1915.31 178.474 1918.41 180.905 Q1921.51 183.312 1921.51 187.432 Q1921.51 190.303 1919.87 192.294 Q1918.23 194.261 1915.19 195.025 Z" fill="#000000" fill-rule="nonzero" fill-opacity="1" /><path clip-path="url(#clip190)" d="M1935.22 209.724 L1951.54 209.724 L1951.54 213.659 L1929.59 213.659 L1929.59 209.724 Q1932.25 206.969 1936.84 202.34 Q1941.44 197.687 1942.62 196.344 Q1944.87 193.821 1945.75 192.085 Q1946.65 190.326 1946.65 188.636 Q1946.65 185.882 1944.71 184.145 Q1942.79 182.409 1939.68 182.409 Q1937.49 182.409 1935.03 183.173 Q1932.6 183.937 1929.82 185.488 L1929.82 180.766 Q1932.65 179.632 1935.1 179.053 Q1937.55 178.474 1939.59 178.474 Q1944.96 178.474 1948.16 181.159 Q1951.35 183.845 1951.35 188.335 Q1951.35 190.465 1950.54 192.386 Q1949.75 194.284 1947.65 196.877 Q1947.07 197.548 1943.97 200.766 Q1940.86 203.96 1935.22 209.724 Z" fill="#000000" fill-rule="nonzero" fill-opacity="1" /><path clip-path="url(#clip190)" d="M1961.35 207.78 L1966.24 207.78 L1966.24 213.659 L1961.35 213.659 L1961.35 207.78 Z" fill="#000000" fill-rule="nonzero" fill-opacity="1" /><path clip-path="url(#clip190)" d="M1986.42 182.178 Q1982.81 182.178 1980.98 185.743 Q1979.17 189.284 1979.17 196.414 Q1979.17 203.52 1980.98 207.085 Q1982.81 210.627 1986.42 210.627 Q1990.05 210.627 1991.86 207.085 Q1993.69 203.52 1993.69 196.414 Q1993.69 189.284 1991.86 185.743 Q1990.05 182.178 1986.42 182.178 M1986.42 178.474 Q1992.23 178.474 1995.29 183.081 Q1998.36 187.664 1998.36 196.414 Q1998.36 205.141 1995.29 209.747 Q1992.23 214.33 1986.42 214.33 Q1980.61 214.33 1977.53 209.747 Q1974.48 205.141 1974.48 196.414 Q1974.48 187.664 1977.53 183.081 Q1980.61 178.474 1986.42 178.474 Z" fill="#000000" fill-rule="nonzero" fill-opacity="1" /><path clip-path="url(#clip190)" d="M2021.23 179.099 L2025.91 179.099 L2025.91 193.706 L2041.42 179.099 L2047.44 179.099 L2030.29 195.21 L2048.67 213.659 L2042.51 213.659 L2025.91 197.016 L2025.91 213.659 L2021.23 213.659 L2021.23 179.099 Z" fill="#000000" fill-rule="nonzero" fill-opacity="1" /><path clip-path="url(#clip190)" d="M2052.14 187.733 L2056.4 187.733 L2056.4 213.659 L2052.14 213.659 L2052.14 187.733 M2052.14 177.641 L2056.4 177.641 L2056.4 183.034 L2052.14 183.034 L2052.14 177.641 Z" fill="#000000" fill-rule="nonzero" fill-opacity="1" /><path clip-path="url(#clip190)" d="M2070.17 197.155 L2070.17 209.817 L2077.67 209.817 Q2081.44 209.817 2083.25 208.266 Q2085.08 206.692 2085.08 203.474 Q2085.08 200.233 2083.25 198.706 Q2081.44 197.155 2077.67 197.155 L2070.17 197.155 M2070.17 182.942 L2070.17 193.358 L2077.09 193.358 Q2080.52 193.358 2082.18 192.085 Q2083.87 190.789 2083.87 188.15 Q2083.87 185.534 2082.18 184.238 Q2080.52 182.942 2077.09 182.942 L2070.17 182.942 M2065.49 179.099 L2077.44 179.099 Q2082.79 179.099 2085.68 181.321 Q2088.57 183.544 2088.57 187.641 Q2088.57 190.812 2087.09 192.687 Q2085.61 194.562 2082.74 195.025 Q2086.19 195.766 2088.09 198.127 Q2090.01 200.465 2090.01 203.983 Q2090.01 208.613 2086.86 211.136 Q2083.71 213.659 2077.9 213.659 L2065.49 213.659 L2065.49 179.099 Z" fill="#000000" fill-rule="nonzero" fill-opacity="1" /><path clip-path="url(#clip190)" d="M2097.16 177.687 L2100.86 177.687 Q2104.34 183.15 2106.05 188.382 Q2107.79 193.613 2107.79 198.775 Q2107.79 203.96 2106.05 209.215 Q2104.34 214.469 2100.86 219.909 L2097.16 219.909 Q2100.24 214.608 2101.74 209.377 Q2103.27 204.122 2103.27 198.775 Q2103.27 193.428 2101.74 188.22 Q2100.24 183.011 2097.16 177.687 Z" fill="#000000" fill-rule="nonzero" fill-opacity="1" /><polyline clip-path="url(#clip190)" style="stroke:#ff0000; stroke-linecap:round; stroke-linejoin:round; stroke-width:8; stroke-opacity:1; fill:none" points="1455.18,248.219 1596.42,248.219 "/>
<path clip-path="url(#clip190)" d="M1619.96 230.939 L1624.64 230.939 L1624.64 261.564 L1641.47 261.564 L1641.47 265.499 L1619.96 265.499 L1619.96 230.939 Z" fill="#000000" fill-rule="nonzero" fill-opacity="1" /><path clip-path="url(#clip190)" d="M1650.82 261.564 L1667.14 261.564 L1667.14 265.499 L1645.2 265.499 L1645.2 261.564 Q1647.86 258.809 1652.44 254.18 Q1657.05 249.527 1658.23 248.184 Q1660.47 245.661 1661.35 243.925 Q1662.26 242.166 1662.26 240.476 Q1662.26 237.722 1660.31 235.985 Q1658.39 234.249 1655.29 234.249 Q1653.09 234.249 1650.63 235.013 Q1648.2 235.777 1645.43 237.328 L1645.43 232.606 Q1648.25 231.472 1650.7 230.893 Q1653.16 230.314 1655.2 230.314 Q1660.57 230.314 1663.76 232.999 Q1666.95 235.685 1666.95 240.175 Q1666.95 242.305 1666.14 244.226 Q1665.36 246.124 1663.25 248.717 Q1662.67 249.388 1659.57 252.606 Q1656.47 255.8 1650.82 261.564 Z" fill="#000000" fill-rule="nonzero" fill-opacity="1" /><path clip-path="url(#clip190)" d="M1691.98 243.972 L1721.65 243.972 L1721.65 247.86 L1691.98 247.86 L1691.98 243.972 M1691.98 253.416 L1721.65 253.416 L1721.65 257.351 L1691.98 257.351 L1691.98 253.416 Z" fill="#000000" fill-rule="nonzero" fill-opacity="1" /><path clip-path="url(#clip190)" d="M1760.98 246.865 Q1764.34 247.583 1766.21 249.851 Q1768.11 252.12 1768.11 255.453 Q1768.11 260.569 1764.59 263.37 Q1761.07 266.17 1754.59 266.17 Q1752.42 266.17 1750.1 265.731 Q1747.81 265.314 1745.36 264.458 L1745.36 259.944 Q1747.3 261.078 1749.62 261.657 Q1751.93 262.235 1754.45 262.235 Q1758.85 262.235 1761.14 260.499 Q1763.46 258.763 1763.46 255.453 Q1763.46 252.397 1761.31 250.684 Q1759.18 248.948 1755.36 248.948 L1751.33 248.948 L1751.33 245.106 L1755.54 245.106 Q1758.99 245.106 1760.82 243.74 Q1762.65 242.351 1762.65 239.759 Q1762.65 237.097 1760.75 235.685 Q1758.88 234.249 1755.36 234.249 Q1753.44 234.249 1751.24 234.666 Q1749.04 235.083 1746.4 235.962 L1746.4 231.796 Q1749.06 231.055 1751.38 230.685 Q1753.71 230.314 1755.77 230.314 Q1761.1 230.314 1764.2 232.745 Q1767.3 235.152 1767.3 239.272 Q1767.3 242.143 1765.66 244.134 Q1764.01 246.101 1760.98 246.865 Z" fill="#000000" fill-rule="nonzero" fill-opacity="1" /><path clip-path="url(#clip190)" d="M1781 261.564 L1797.32 261.564 L1797.32 265.499 L1775.38 265.499 L1775.38 261.564 Q1778.04 258.809 1782.62 254.18 Q1787.23 249.527 1788.41 248.184 Q1790.66 245.661 1791.54 243.925 Q1792.44 242.166 1792.44 240.476 Q1792.44 237.722 1790.5 235.985 Q1788.57 234.249 1785.47 234.249 Q1783.27 234.249 1780.82 235.013 Q1778.39 235.777 1775.61 237.328 L1775.61 232.606 Q1778.44 231.472 1780.89 230.893 Q1783.34 230.314 1785.38 230.314 Q1790.75 230.314 1793.94 232.999 Q1797.14 235.685 1797.14 240.175 Q1797.14 242.305 1796.33 244.226 Q1795.54 246.124 1793.44 248.717 Q1792.86 249.388 1789.75 252.606 Q1786.65 255.8 1781 261.564 Z" fill="#000000" fill-rule="nonzero" fill-opacity="1" /><path clip-path="url(#clip190)" d="M1805.96 230.939 L1828.18 230.939 L1828.18 232.93 L1815.63 265.499 L1810.75 265.499 L1822.56 234.874 L1805.96 234.874 L1805.96 230.939 Z" fill="#000000" fill-rule="nonzero" fill-opacity="1" /><path clip-path="url(#clip190)" d="M1847.88 246.356 Q1844.73 246.356 1842.88 248.509 Q1841.05 250.661 1841.05 254.411 Q1841.05 258.138 1842.88 260.314 Q1844.73 262.467 1847.88 262.467 Q1851.03 262.467 1852.86 260.314 Q1854.71 258.138 1854.71 254.411 Q1854.71 250.661 1852.86 248.509 Q1851.03 246.356 1847.88 246.356 M1857.16 231.703 L1857.16 235.962 Q1855.4 235.129 1853.6 234.689 Q1851.81 234.249 1850.06 234.249 Q1845.43 234.249 1842.97 237.374 Q1840.54 240.499 1840.19 246.819 Q1841.56 244.805 1843.62 243.74 Q1845.68 242.652 1848.16 242.652 Q1853.37 242.652 1856.37 245.823 Q1859.41 248.971 1859.41 254.411 Q1859.41 259.735 1856.26 262.953 Q1853.11 266.17 1847.88 266.17 Q1841.88 266.17 1838.71 261.587 Q1835.54 256.981 1835.54 248.254 Q1835.54 240.06 1839.43 235.198 Q1843.32 230.314 1849.87 230.314 Q1851.63 230.314 1853.41 230.661 Q1855.22 231.009 1857.16 231.703 Z" fill="#000000" fill-rule="nonzero" fill-opacity="1" /><path clip-path="url(#clip190)" d="M1877.46 249.087 Q1874.13 249.087 1872.21 250.87 Q1870.31 252.652 1870.31 255.777 Q1870.31 258.902 1872.21 260.684 Q1874.13 262.467 1877.46 262.467 Q1880.8 262.467 1882.72 260.684 Q1884.64 258.879 1884.64 255.777 Q1884.64 252.652 1882.72 250.87 Q1880.82 249.087 1877.46 249.087 M1872.79 247.097 Q1869.78 246.356 1868.09 244.296 Q1866.42 242.235 1866.42 239.272 Q1866.42 235.129 1869.36 232.722 Q1872.32 230.314 1877.46 230.314 Q1882.62 230.314 1885.56 232.722 Q1888.5 235.129 1888.5 239.272 Q1888.5 242.235 1886.81 244.296 Q1885.15 246.356 1882.16 247.097 Q1885.54 247.884 1887.42 250.175 Q1889.31 252.467 1889.31 255.777 Q1889.31 260.8 1886.24 263.485 Q1883.18 266.17 1877.46 266.17 Q1871.74 266.17 1868.67 263.485 Q1865.61 260.8 1865.61 255.777 Q1865.61 252.467 1867.51 250.175 Q1869.41 247.884 1872.79 247.097 M1871.07 239.712 Q1871.07 242.397 1872.74 243.902 Q1874.43 245.407 1877.46 245.407 Q1880.47 245.407 1882.16 243.902 Q1883.87 242.397 1883.87 239.712 Q1883.87 237.027 1882.16 235.522 Q1880.47 234.018 1877.46 234.018 Q1874.43 234.018 1872.74 235.522 Q1871.07 237.027 1871.07 239.712 Z" fill="#000000" fill-rule="nonzero" fill-opacity="1" /><path clip-path="url(#clip190)" d="M1922.32 229.527 Q1919.22 234.851 1917.72 240.06 Q1916.21 245.268 1916.21 250.615 Q1916.21 255.962 1917.72 261.217 Q1919.24 266.448 1922.32 271.749 L1918.62 271.749 Q1915.15 266.309 1913.41 261.055 Q1911.7 255.8 1911.7 250.615 Q1911.7 245.453 1913.41 240.222 Q1915.12 234.99 1918.62 229.527 L1922.32 229.527 Z" fill="#000000" fill-rule="nonzero" fill-opacity="1" /><path clip-path="url(#clip190)" d="M1932 261.564 L1939.64 261.564 L1939.64 235.198 L1931.33 236.865 L1931.33 232.606 L1939.59 230.939 L1944.27 230.939 L1944.27 261.564 L1951.91 261.564 L1951.91 265.499 L1932 265.499 L1932 261.564 Z" fill="#000000" fill-rule="nonzero" fill-opacity="1" /><path clip-path="url(#clip190)" d="M1971.35 234.018 Q1967.74 234.018 1965.91 237.583 Q1964.11 241.124 1964.11 248.254 Q1964.11 255.36 1965.91 258.925 Q1967.74 262.467 1971.35 262.467 Q1974.98 262.467 1976.79 258.925 Q1978.62 255.36 1978.62 248.254 Q1978.62 241.124 1976.79 237.583 Q1974.98 234.018 1971.35 234.018 M1971.35 230.314 Q1977.16 230.314 1980.22 234.921 Q1983.3 239.504 1983.3 248.254 Q1983.3 256.981 1980.22 261.587 Q1977.16 266.17 1971.35 266.17 Q1965.54 266.17 1962.46 261.587 Q1959.41 256.981 1959.41 248.254 Q1959.41 239.504 1962.46 234.921 Q1965.54 230.314 1971.35 230.314 Z" fill="#000000" fill-rule="nonzero" fill-opacity="1" /><path clip-path="url(#clip190)" d="M1995.54 261.564 L2011.86 261.564 L2011.86 265.499 L1989.92 265.499 L1989.92 261.564 Q1992.58 258.809 1997.16 254.18 Q2001.77 249.527 2002.95 248.184 Q2005.19 245.661 2006.07 243.925 Q2006.98 242.166 2006.98 240.476 Q2006.98 237.722 2005.03 235.985 Q2003.11 234.249 2000.01 234.249 Q1997.81 234.249 1995.36 235.013 Q1992.92 235.777 1990.15 237.328 L1990.15 232.606 Q1992.97 231.472 1995.42 230.893 Q1997.88 230.314 1999.92 230.314 Q2005.29 230.314 2008.48 232.999 Q2011.67 235.685 2011.67 240.175 Q2011.67 242.305 2010.86 244.226 Q2010.08 246.124 2007.97 248.717 Q2007.39 249.388 2004.29 252.606 Q2001.19 255.8 1995.54 261.564 Z" fill="#000000" fill-rule="nonzero" fill-opacity="1" /><path clip-path="url(#clip190)" d="M2034.52 235.013 L2022.72 253.462 L2034.52 253.462 L2034.52 235.013 M2033.29 230.939 L2039.17 230.939 L2039.17 253.462 L2044.1 253.462 L2044.1 257.351 L2039.17 257.351 L2039.17 265.499 L2034.52 265.499 L2034.52 257.351 L2018.92 257.351 L2018.92 252.837 L2033.29 230.939 Z" fill="#000000" fill-rule="nonzero" fill-opacity="1" /><path clip-path="url(#clip190)" d="M2051.84 259.62 L2056.72 259.62 L2056.72 265.499 L2051.84 265.499 L2051.84 259.62 Z" fill="#000000" fill-rule="nonzero" fill-opacity="1" /><path clip-path="url(#clip190)" d="M2076.91 234.018 Q2073.29 234.018 2071.47 237.583 Q2069.66 241.124 2069.66 248.254 Q2069.66 255.36 2071.47 258.925 Q2073.29 262.467 2076.91 262.467 Q2080.54 262.467 2082.35 258.925 Q2084.17 255.36 2084.17 248.254 Q2084.17 241.124 2082.35 237.583 Q2080.54 234.018 2076.91 234.018 M2076.91 230.314 Q2082.72 230.314 2085.77 234.921 Q2088.85 239.504 2088.85 248.254 Q2088.85 256.981 2085.77 261.587 Q2082.72 266.17 2076.91 266.17 Q2071.1 266.17 2068.02 261.587 Q2064.96 256.981 2064.96 248.254 Q2064.96 239.504 2068.02 234.921 Q2071.1 230.314 2076.91 230.314 Z" fill="#000000" fill-rule="nonzero" fill-opacity="1" /><path clip-path="url(#clip190)" d="M2111.72 230.939 L2116.4 230.939 L2116.4 245.546 L2131.91 230.939 L2137.92 230.939 L2120.77 247.05 L2139.15 265.499 L2132.99 265.499 L2116.4 248.856 L2116.4 265.499 L2111.72 265.499 L2111.72 230.939 Z" fill="#000000" fill-rule="nonzero" fill-opacity="1" /><path clip-path="url(#clip190)" d="M2142.62 239.573 L2146.88 239.573 L2146.88 265.499 L2142.62 265.499 L2142.62 239.573 M2142.62 229.481 L2146.88 229.481 L2146.88 234.874 L2142.62 234.874 L2142.62 229.481 Z" fill="#000000" fill-rule="nonzero" fill-opacity="1" /><path clip-path="url(#clip190)" d="M2160.66 248.995 L2160.66 261.657 L2168.16 261.657 Q2171.93 261.657 2173.73 260.106 Q2175.56 258.532 2175.56 255.314 Q2175.56 252.073 2173.73 250.546 Q2171.93 248.995 2168.16 248.995 L2160.66 248.995 M2160.66 234.782 L2160.66 245.198 L2167.58 245.198 Q2171 245.198 2172.67 243.925 Q2174.36 242.629 2174.36 239.99 Q2174.36 237.374 2172.67 236.078 Q2171 234.782 2167.58 234.782 L2160.66 234.782 M2155.98 230.939 L2167.92 230.939 Q2173.27 230.939 2176.16 233.161 Q2179.06 235.384 2179.06 239.481 Q2179.06 242.652 2177.58 244.527 Q2176.09 246.402 2173.22 246.865 Q2176.67 247.606 2178.57 249.967 Q2180.49 252.305 2180.49 255.823 Q2180.49 260.453 2177.34 262.976 Q2174.2 265.499 2168.39 265.499 L2155.98 265.499 L2155.98 230.939 Z" fill="#000000" fill-rule="nonzero" fill-opacity="1" /><path clip-path="url(#clip190)" d="M2187.65 229.527 L2191.35 229.527 Q2194.82 234.99 2196.53 240.222 Q2198.27 245.453 2198.27 250.615 Q2198.27 255.8 2196.53 261.055 Q2194.82 266.309 2191.35 271.749 L2187.65 271.749 Q2190.72 266.448 2192.23 261.217 Q2193.76 255.962 2193.76 250.615 Q2193.76 245.268 2192.23 240.06 Q2190.72 234.851 2187.65 229.527 Z" fill="#000000" fill-rule="nonzero" fill-opacity="1" /><polyline clip-path="url(#clip190)" style="stroke:#800080; stroke-linecap:round; stroke-linejoin:round; stroke-width:8; stroke-opacity:1; fill:none" points="1455.18,300.059 1596.42,300.059 "/>
<path clip-path="url(#clip190)" d="M1619.96 282.779 L1624.64 282.779 L1624.64 313.404 L1641.47 313.404 L1641.47 317.339 L1619.96 317.339 L1619.96 282.779 Z" fill="#000000" fill-rule="nonzero" fill-opacity="1" /><path clip-path="url(#clip190)" d="M1660.96 298.705 Q1664.32 299.423 1666.19 301.691 Q1668.09 303.96 1668.09 307.293 Q1668.09 312.409 1664.57 315.21 Q1661.05 318.01 1654.57 318.01 Q1652.39 318.01 1650.08 317.571 Q1647.79 317.154 1645.33 316.298 L1645.33 311.784 Q1647.28 312.918 1649.59 313.497 Q1651.91 314.075 1654.43 314.075 Q1658.83 314.075 1661.12 312.339 Q1663.44 310.603 1663.44 307.293 Q1663.44 304.237 1661.28 302.524 Q1659.15 300.788 1655.33 300.788 L1651.31 300.788 L1651.31 296.946 L1655.52 296.946 Q1658.97 296.946 1660.8 295.58 Q1662.63 294.191 1662.63 291.599 Q1662.63 288.937 1660.73 287.525 Q1658.85 286.089 1655.33 286.089 Q1653.41 286.089 1651.21 286.506 Q1649.01 286.923 1646.38 287.802 L1646.38 283.636 Q1649.04 282.895 1651.35 282.525 Q1653.69 282.154 1655.75 282.154 Q1661.07 282.154 1664.18 284.585 Q1667.28 286.992 1667.28 291.112 Q1667.28 293.983 1665.63 295.974 Q1663.99 297.941 1660.96 298.705 Z" fill="#000000" fill-rule="nonzero" fill-opacity="1" /><path clip-path="url(#clip190)" d="M1691.98 295.812 L1721.65 295.812 L1721.65 299.7 L1691.98 299.7 L1691.98 295.812 M1691.98 305.256 L1721.65 305.256 L1721.65 309.191 L1691.98 309.191 L1691.98 305.256 Z" fill="#000000" fill-rule="nonzero" fill-opacity="1" /><path clip-path="url(#clip190)" d="M1746.95 316.622 L1746.95 312.362 Q1748.71 313.196 1750.52 313.635 Q1752.32 314.075 1754.06 314.075 Q1758.69 314.075 1761.12 310.973 Q1763.57 307.848 1763.92 301.506 Q1762.58 303.497 1760.52 304.561 Q1758.46 305.626 1755.96 305.626 Q1750.77 305.626 1747.74 302.501 Q1744.73 299.353 1744.73 293.913 Q1744.73 288.589 1747.88 285.372 Q1751.03 282.154 1756.26 282.154 Q1762.25 282.154 1765.4 286.761 Q1768.57 291.344 1768.57 300.094 Q1768.57 308.265 1764.69 313.149 Q1760.82 318.01 1754.27 318.01 Q1752.51 318.01 1750.7 317.663 Q1748.9 317.316 1746.95 316.622 M1756.26 301.969 Q1759.41 301.969 1761.24 299.816 Q1763.09 297.663 1763.09 293.913 Q1763.09 290.187 1761.24 288.034 Q1759.41 285.858 1756.26 285.858 Q1753.11 285.858 1751.26 288.034 Q1749.43 290.187 1749.43 293.913 Q1749.43 297.663 1751.26 299.816 Q1753.11 301.969 1756.26 301.969 Z" fill="#000000" fill-rule="nonzero" fill-opacity="1" /><path clip-path="url(#clip190)" d="M1786.98 285.858 Q1783.37 285.858 1781.54 289.423 Q1779.73 292.964 1779.73 300.094 Q1779.73 307.2 1781.54 310.765 Q1783.37 314.307 1786.98 314.307 Q1790.61 314.307 1792.42 310.765 Q1794.25 307.2 1794.25 300.094 Q1794.25 292.964 1792.42 289.423 Q1790.61 285.858 1786.98 285.858 M1786.98 282.154 Q1792.79 282.154 1795.84 286.761 Q1798.92 291.344 1798.92 300.094 Q1798.92 308.821 1795.84 313.427 Q1792.79 318.01 1786.98 318.01 Q1781.17 318.01 1778.09 313.427 Q1775.03 308.821 1775.03 300.094 Q1775.03 291.344 1778.09 286.761 Q1781.17 282.154 1786.98 282.154 Z" fill="#000000" fill-rule="nonzero" fill-opacity="1" /><path clip-path="url(#clip190)" d="M1807.95 313.404 L1815.59 313.404 L1815.59 287.038 L1807.28 288.705 L1807.28 284.446 L1815.54 282.779 L1820.22 282.779 L1820.22 313.404 L1827.86 313.404 L1827.86 317.339 L1807.95 317.339 L1807.95 313.404 Z" fill="#000000" fill-rule="nonzero" fill-opacity="1" /><path clip-path="url(#clip190)" d="M1838.11 313.404 L1845.75 313.404 L1845.75 287.038 L1837.44 288.705 L1837.44 284.446 L1845.7 282.779 L1850.38 282.779 L1850.38 313.404 L1858.02 313.404 L1858.02 317.339 L1838.11 317.339 L1838.11 313.404 Z" fill="#000000" fill-rule="nonzero" fill-opacity="1" /><path clip-path="url(#clip190)" d="M1871.49 313.404 L1887.81 313.404 L1887.81 317.339 L1865.87 317.339 L1865.87 313.404 Q1868.53 310.649 1873.11 306.02 Q1877.72 301.367 1878.9 300.024 Q1881.14 297.501 1882.02 295.765 Q1882.93 294.006 1882.93 292.316 Q1882.93 289.562 1880.98 287.825 Q1879.06 286.089 1875.96 286.089 Q1873.76 286.089 1871.3 286.853 Q1868.87 287.617 1866.1 289.168 L1866.1 284.446 Q1868.92 283.312 1871.37 282.733 Q1873.83 282.154 1875.87 282.154 Q1881.24 282.154 1884.43 284.839 Q1887.62 287.525 1887.62 292.015 Q1887.62 294.145 1886.81 296.066 Q1886.03 297.964 1883.92 300.557 Q1883.34 301.228 1880.24 304.446 Q1877.14 307.64 1871.49 313.404 Z" fill="#000000" fill-rule="nonzero" fill-opacity="1" /><path clip-path="url(#clip190)" d="M1907.62 285.858 Q1904.01 285.858 1902.18 289.423 Q1900.38 292.964 1900.38 300.094 Q1900.38 307.2 1902.18 310.765 Q1904.01 314.307 1907.62 314.307 Q1911.26 314.307 1913.06 310.765 Q1914.89 307.2 1914.89 300.094 Q1914.89 292.964 1913.06 289.423 Q1911.26 285.858 1907.62 285.858 M1907.62 282.154 Q1913.43 282.154 1916.49 286.761 Q1919.57 291.344 1919.57 300.094 Q1919.57 308.821 1916.49 313.427 Q1913.43 318.01 1907.62 318.01 Q1901.81 318.01 1898.74 313.427 Q1895.68 308.821 1895.68 300.094 Q1895.68 291.344 1898.74 286.761 Q1901.81 282.154 1907.62 282.154 Z" fill="#000000" fill-rule="nonzero" fill-opacity="1" /><path clip-path="url(#clip190)" d="M1952.49 281.367 Q1949.38 286.691 1947.88 291.9 Q1946.37 297.108 1946.37 302.455 Q1946.37 307.802 1947.88 313.057 Q1949.41 318.288 1952.49 323.589 L1948.78 323.589 Q1945.31 318.149 1943.57 312.895 Q1941.86 307.64 1941.86 302.455 Q1941.86 297.293 1943.57 292.062 Q1945.29 286.83 1948.78 281.367 L1952.49 281.367 Z" fill="#000000" fill-rule="nonzero" fill-opacity="1" /><path clip-path="url(#clip190)" d="M1965.38 313.404 L1981.7 313.404 L1981.7 317.339 L1959.75 317.339 L1959.75 313.404 Q1962.42 310.649 1967 306.02 Q1971.61 301.367 1972.79 300.024 Q1975.03 297.501 1975.91 295.765 Q1976.81 294.006 1976.81 292.316 Q1976.81 289.562 1974.87 287.825 Q1972.95 286.089 1969.85 286.089 Q1967.65 286.089 1965.19 286.853 Q1962.76 287.617 1959.99 289.168 L1959.99 284.446 Q1962.81 283.312 1965.26 282.733 Q1967.72 282.154 1969.75 282.154 Q1975.12 282.154 1978.32 284.839 Q1981.51 287.525 1981.51 292.015 Q1981.51 294.145 1980.7 296.066 Q1979.92 297.964 1977.81 300.557 Q1977.23 301.228 1974.13 304.446 Q1971.03 307.64 1965.38 313.404 Z" fill="#000000" fill-rule="nonzero" fill-opacity="1" /><path clip-path="url(#clip190)" d="M2001.51 300.927 Q1998.18 300.927 1996.26 302.71 Q1994.36 304.492 1994.36 307.617 Q1994.36 310.742 1996.26 312.524 Q1998.18 314.307 2001.51 314.307 Q2004.85 314.307 2006.77 312.524 Q2008.69 310.719 2008.69 307.617 Q2008.69 304.492 2006.77 302.71 Q2004.87 300.927 2001.51 300.927 M1996.84 298.937 Q1993.83 298.196 1992.14 296.136 Q1990.47 294.075 1990.47 291.112 Q1990.47 286.969 1993.41 284.562 Q1996.37 282.154 2001.51 282.154 Q2006.67 282.154 2009.61 284.562 Q2012.55 286.969 2012.55 291.112 Q2012.55 294.075 2010.86 296.136 Q2009.2 298.196 2006.21 298.937 Q2009.59 299.724 2011.47 302.015 Q2013.36 304.307 2013.36 307.617 Q2013.36 312.64 2010.29 315.325 Q2007.23 318.01 2001.51 318.01 Q1995.8 318.01 1992.72 315.325 Q1989.66 312.64 1989.66 307.617 Q1989.66 304.307 1991.56 302.015 Q1993.46 299.724 1996.84 298.937 M1995.12 291.552 Q1995.12 294.237 1996.79 295.742 Q1998.48 297.247 2001.51 297.247 Q2004.52 297.247 2006.21 295.742 Q2007.92 294.237 2007.92 291.552 Q2007.92 288.867 2006.21 287.362 Q2004.52 285.858 2001.51 285.858 Q1998.48 285.858 1996.79 287.362 Q1995.12 288.867 1995.12 291.552 Z" fill="#000000" fill-rule="nonzero" fill-opacity="1" /><path clip-path="url(#clip190)" d="M2022.48 313.404 L2030.12 313.404 L2030.12 287.038 L2021.81 288.705 L2021.81 284.446 L2030.08 282.779 L2034.75 282.779 L2034.75 313.404 L2042.39 313.404 L2042.39 317.339 L2022.48 317.339 L2022.48 313.404 Z" fill="#000000" fill-rule="nonzero" fill-opacity="1" /><path clip-path="url(#clip190)" d="M2062.42 298.196 Q2059.27 298.196 2057.42 300.349 Q2055.59 302.501 2055.59 306.251 Q2055.59 309.978 2057.42 312.154 Q2059.27 314.307 2062.42 314.307 Q2065.56 314.307 2067.39 312.154 Q2069.24 309.978 2069.24 306.251 Q2069.24 302.501 2067.39 300.349 Q2065.56 298.196 2062.42 298.196 M2071.7 283.543 L2071.7 287.802 Q2069.94 286.969 2068.13 286.529 Q2066.35 286.089 2064.59 286.089 Q2059.96 286.089 2057.51 289.214 Q2055.08 292.339 2054.73 298.659 Q2056.1 296.645 2058.16 295.58 Q2060.22 294.492 2062.69 294.492 Q2067.9 294.492 2070.91 297.663 Q2073.94 300.811 2073.94 306.251 Q2073.94 311.575 2070.79 314.793 Q2067.65 318.01 2062.42 318.01 Q2056.42 318.01 2053.25 313.427 Q2050.08 308.821 2050.08 300.094 Q2050.08 291.9 2053.97 287.038 Q2057.85 282.154 2064.41 282.154 Q2066.17 282.154 2067.95 282.501 Q2069.75 282.849 2071.7 283.543 Z" fill="#000000" fill-rule="nonzero" fill-opacity="1" /><path clip-path="url(#clip190)" d="M2092 285.858 Q2088.39 285.858 2086.56 289.423 Q2084.75 292.964 2084.75 300.094 Q2084.75 307.2 2086.56 310.765 Q2088.39 314.307 2092 314.307 Q2095.63 314.307 2097.44 310.765 Q2099.27 307.2 2099.27 300.094 Q2099.27 292.964 2097.44 289.423 Q2095.63 285.858 2092 285.858 M2092 282.154 Q2097.81 282.154 2100.86 286.761 Q2103.94 291.344 2103.94 300.094 Q2103.94 308.821 2100.86 313.427 Q2097.81 318.01 2092 318.01 Q2086.19 318.01 2083.11 313.427 Q2080.05 308.821 2080.05 300.094 Q2080.05 291.344 2083.11 286.761 Q2086.19 282.154 2092 282.154 Z" fill="#000000" fill-rule="nonzero" fill-opacity="1" /><path clip-path="url(#clip190)" d="M2112.16 311.46 L2117.04 311.46 L2117.04 317.339 L2112.16 317.339 L2112.16 311.46 Z" fill="#000000" fill-rule="nonzero" fill-opacity="1" /><path clip-path="url(#clip190)" d="M2137.23 285.858 Q2133.62 285.858 2131.79 289.423 Q2129.98 292.964 2129.98 300.094 Q2129.98 307.2 2131.79 310.765 Q2133.62 314.307 2137.23 314.307 Q2140.86 314.307 2142.67 310.765 Q2144.5 307.2 2144.5 300.094 Q2144.5 292.964 2142.67 289.423 Q2140.86 285.858 2137.23 285.858 M2137.23 282.154 Q2143.04 282.154 2146.1 286.761 Q2149.17 291.344 2149.17 300.094 Q2149.17 308.821 2146.1 313.427 Q2143.04 318.01 2137.23 318.01 Q2131.42 318.01 2128.34 313.427 Q2125.29 308.821 2125.29 300.094 Q2125.29 291.344 2128.34 286.761 Q2131.42 282.154 2137.23 282.154 Z" fill="#000000" fill-rule="nonzero" fill-opacity="1" /><path clip-path="url(#clip190)" d="M2172.04 282.779 L2176.72 282.779 L2176.72 297.386 L2192.23 282.779 L2198.25 282.779 L2181.09 298.89 L2199.47 317.339 L2193.32 317.339 L2176.72 300.696 L2176.72 317.339 L2172.04 317.339 L2172.04 282.779 Z" fill="#000000" fill-rule="nonzero" fill-opacity="1" /><path clip-path="url(#clip190)" d="M2202.95 291.413 L2207.21 291.413 L2207.21 317.339 L2202.95 317.339 L2202.95 291.413 M2202.95 281.321 L2207.21 281.321 L2207.21 286.714 L2202.95 286.714 L2202.95 281.321 Z" fill="#000000" fill-rule="nonzero" fill-opacity="1" /><path clip-path="url(#clip190)" d="M2220.98 300.835 L2220.98 313.497 L2228.48 313.497 Q2232.25 313.497 2234.06 311.946 Q2235.89 310.372 2235.89 307.154 Q2235.89 303.913 2234.06 302.386 Q2232.25 300.835 2228.48 300.835 L2220.98 300.835 M2220.98 286.622 L2220.98 297.038 L2227.9 297.038 Q2231.33 297.038 2232.99 295.765 Q2234.68 294.469 2234.68 291.83 Q2234.68 289.214 2232.99 287.918 Q2231.33 286.622 2227.9 286.622 L2220.98 286.622 M2216.3 282.779 L2228.25 282.779 Q2233.59 282.779 2236.49 285.001 Q2239.38 287.224 2239.38 291.321 Q2239.38 294.492 2237.9 296.367 Q2236.42 298.242 2233.55 298.705 Q2237 299.446 2238.9 301.807 Q2240.82 304.145 2240.82 307.663 Q2240.82 312.293 2237.67 314.816 Q2234.52 317.339 2228.71 317.339 L2216.3 317.339 L2216.3 282.779 Z" fill="#000000" fill-rule="nonzero" fill-opacity="1" /><path clip-path="url(#clip190)" d="M2247.97 281.367 L2251.67 281.367 Q2255.15 286.83 2256.86 292.062 Q2258.59 297.293 2258.59 302.455 Q2258.59 307.64 2256.86 312.895 Q2255.15 318.149 2251.67 323.589 L2247.97 323.589 Q2251.05 318.288 2252.55 313.057 Q2254.08 307.802 2254.08 302.455 Q2254.08 297.108 2252.55 291.9 Q2251.05 286.691 2247.97 281.367 Z" fill="#000000" fill-rule="nonzero" fill-opacity="1" /></svg>
