<?xml version="1.0" encoding="utf-8"?>
<svg xmlns="http://www.w3.org/2000/svg" xmlns:xlink="http://www.w3.org/1999/xlink" width="600" height="400" viewBox="0 0 2400 1600">
<defs>
  <clipPath id="clip320">
    <rect x="0" y="0" width="2400" height="1600"/>
  </clipPath>
</defs>
<path clip-path="url(#clip320)" d="M0 1600 L2400 1600 L2400 0 L0 0  Z" fill="#ffffff" fill-rule="evenodd" fill-opacity="1"/>
<defs>
  <clipPath id="clip321">
    <rect x="480" y="0" width="1681" height="1600"/>
  </clipPath>
</defs>
<path clip-path="url(#clip320)" d="M205.121 1410.9 L2352.76 1410.9 L2352.76 47.2441 L205.121 47.2441  Z" fill="#ffffff" fill-rule="evenodd" fill-opacity="1"/>
<defs>
  <clipPath id="clip322">
    <rect x="205" y="47" width="2149" height="1365"/>
  </clipPath>
</defs>
<polyline clip-path="url(#clip322)" style="stroke:#000000; stroke-linecap:round; stroke-linejoin:round; stroke-width:2; stroke-opacity:0.1; fill:none" points="774.515,1410.9 774.515,47.2441 "/>
<polyline clip-path="url(#clip322)" style="stroke:#000000; stroke-linecap:round; stroke-linejoin:round; stroke-width:2; stroke-opacity:0.1; fill:none" points="1795.24,1410.9 1795.24,47.2441 "/>
<polyline clip-path="url(#clip322)" style="stroke:#000000; stroke-linecap:round; stroke-linejoin:round; stroke-width:2; stroke-opacity:0.1; fill:none" points="774.515,1410.9 774.515,47.2441 "/>
<polyline clip-path="url(#clip322)" style="stroke:#000000; stroke-linecap:round; stroke-linejoin:round; stroke-width:2; stroke-opacity:0.1; fill:none" points="1795.24,1410.9 1795.24,47.2441 "/>
<polyline clip-path="url(#clip320)" style="stroke:#000000; stroke-linecap:round; stroke-linejoin:round; stroke-width:4; stroke-opacity:1; fill:none" points="205.121,1410.9 2352.76,1410.9 "/>
<polyline clip-path="url(#clip320)" style="stroke:#000000; stroke-linecap:round; stroke-linejoin:round; stroke-width:4; stroke-opacity:1; fill:none" points="205.121,47.2441 2352.76,47.2441 "/>
<polyline clip-path="url(#clip320)" style="stroke:#000000; stroke-linecap:round; stroke-linejoin:round; stroke-width:4; stroke-opacity:1; fill:none" points="774.515,1410.9 774.515,1392 "/>
<polyline clip-path="url(#clip320)" style="stroke:#000000; stroke-linecap:round; stroke-linejoin:round; stroke-width:4; stroke-opacity:1; fill:none" points="1795.24,1410.9 1795.24,1392 "/>
<polyline clip-path="url(#clip320)" style="stroke:#000000; stroke-linecap:round; stroke-linejoin:round; stroke-width:4; stroke-opacity:1; fill:none" points="774.515,47.2441 774.515,66.1417 "/>
<polyline clip-path="url(#clip320)" style="stroke:#000000; stroke-linecap:round; stroke-linejoin:round; stroke-width:4; stroke-opacity:1; fill:none" points="1795.24,47.2441 1795.24,66.1417 "/>
<path clip-path="url(#clip320)" d="M739.958 1485.02 L747.597 1485.02 L747.597 1458.66 L739.287 1460.32 L739.287 1456.06 L747.551 1454.4 L752.227 1454.4 L752.227 1485.02 L759.866 1485.02 L759.866 1488.96 L739.958 1488.96 L739.958 1485.02 Z" fill="#000000" fill-rule="nonzero" fill-opacity="1" /><path clip-path="url(#clip320)" d="M779.31 1457.48 Q775.699 1457.48 773.87 1461.04 Q772.065 1464.58 772.065 1471.71 Q772.065 1478.82 773.87 1482.38 Q775.699 1485.92 779.31 1485.92 Q782.944 1485.92 784.75 1482.38 Q786.578 1478.82 786.578 1471.71 Q786.578 1464.58 784.75 1461.04 Q782.944 1457.48 779.31 1457.48 M779.31 1453.77 Q785.12 1453.77 788.176 1458.38 Q791.254 1462.96 791.254 1471.71 Q791.254 1480.44 788.176 1485.04 Q785.12 1489.63 779.31 1489.63 Q773.5 1489.63 770.421 1485.04 Q767.366 1480.44 767.366 1471.71 Q767.366 1462.96 770.421 1458.38 Q773.5 1453.77 779.31 1453.77 Z" fill="#000000" fill-rule="nonzero" fill-opacity="1" /><path clip-path="url(#clip320)" d="M803.95 1446.41 Q806.677 1446.99 808.2 1448.83 Q809.742 1450.68 809.742 1453.38 Q809.742 1457.54 806.884 1459.82 Q804.025 1462.09 798.759 1462.09 Q796.991 1462.09 795.11 1461.73 Q793.248 1461.4 791.254 1460.7 L791.254 1457.03 Q792.834 1457.95 794.715 1458.42 Q796.596 1458.89 798.646 1458.89 Q802.219 1458.89 804.081 1457.48 Q805.962 1456.07 805.962 1453.38 Q805.962 1450.9 804.213 1449.51 Q802.483 1448.1 799.379 1448.1 L796.107 1448.1 L796.107 1444.98 L799.53 1444.98 Q802.332 1444.98 803.818 1443.87 Q805.304 1442.74 805.304 1440.63 Q805.304 1438.47 803.762 1437.32 Q802.238 1436.16 799.379 1436.16 Q797.818 1436.16 796.032 1436.49 Q794.245 1436.83 792.101 1437.55 L792.101 1434.16 Q794.264 1433.56 796.144 1433.26 Q798.044 1432.96 799.718 1432.96 Q804.044 1432.96 806.564 1434.93 Q809.084 1436.89 809.084 1440.24 Q809.084 1442.57 807.749 1444.19 Q806.413 1445.79 803.95 1446.41 Z" fill="#000000" fill-rule="nonzero" fill-opacity="1" /><path clip-path="url(#clip320)" d="M1760.23 1485.02 L1767.87 1485.02 L1767.87 1458.66 L1759.56 1460.32 L1759.56 1456.06 L1767.83 1454.4 L1772.5 1454.4 L1772.5 1485.02 L1780.14 1485.02 L1780.14 1488.96 L1760.23 1488.96 L1760.23 1485.02 Z" fill="#000000" fill-rule="nonzero" fill-opacity="1" /><path clip-path="url(#clip320)" d="M1799.59 1457.48 Q1795.98 1457.48 1794.15 1461.04 Q1792.34 1464.58 1792.34 1471.71 Q1792.34 1478.82 1794.15 1482.38 Q1795.98 1485.92 1799.59 1485.92 Q1803.22 1485.92 1805.03 1482.38 Q1806.85 1478.82 1806.85 1471.71 Q1806.85 1464.58 1805.03 1461.04 Q1803.22 1457.48 1799.59 1457.48 M1799.59 1453.77 Q1805.4 1453.77 1808.45 1458.38 Q1811.53 1462.96 1811.53 1471.71 Q1811.53 1480.44 1808.45 1485.04 Q1805.4 1489.63 1799.59 1489.63 Q1793.78 1489.63 1790.7 1485.04 Q1787.64 1480.44 1787.64 1471.71 Q1787.64 1462.96 1790.7 1458.38 Q1793.78 1453.77 1799.59 1453.77 Z" fill="#000000" fill-rule="nonzero" fill-opacity="1" /><path clip-path="url(#clip320)" d="M1821.56 1445.99 Q1819 1445.99 1817.49 1447.74 Q1816.01 1449.49 1816.01 1452.54 Q1816.01 1455.57 1817.49 1457.33 Q1819 1459.08 1821.56 1459.08 Q1824.11 1459.08 1825.6 1457.33 Q1827.1 1455.57 1827.1 1452.54 Q1827.1 1449.49 1825.6 1447.74 Q1824.11 1445.99 1821.56 1445.99 M1829.1 1434.09 L1829.1 1437.55 Q1827.67 1436.87 1826.2 1436.51 Q1824.75 1436.16 1823.32 1436.16 Q1819.56 1436.16 1817.57 1438.69 Q1815.59 1441.23 1815.31 1446.37 Q1816.42 1444.73 1818.09 1443.87 Q1819.77 1442.98 1821.78 1442.98 Q1826.01 1442.98 1828.46 1445.56 Q1830.92 1448.12 1830.92 1452.54 Q1830.92 1456.86 1828.36 1459.48 Q1825.81 1462.09 1821.56 1462.09 Q1816.68 1462.09 1814.11 1458.37 Q1811.53 1454.62 1811.53 1447.53 Q1811.53 1440.88 1814.69 1436.93 Q1817.85 1432.96 1823.17 1432.96 Q1824.6 1432.96 1826.05 1433.24 Q1827.52 1433.52 1829.1 1434.09 Z" fill="#000000" fill-rule="nonzero" fill-opacity="1" /><path clip-path="url(#clip320)" d="M1074.73 1538.54 L1080.93 1538.54 L1092.07 1568.46 L1103.21 1538.54 L1109.42 1538.54 L1096.05 1574.19 L1088.09 1574.19 L1074.73 1538.54 Z" fill="#000000" fill-rule="nonzero" fill-opacity="1" /><path clip-path="url(#clip320)" d="M1148 1554.9 L1148 1557.76 L1121.07 1557.76 Q1121.45 1563.81 1124.7 1566.99 Q1127.98 1570.14 1133.8 1570.14 Q1137.17 1570.14 1140.33 1569.32 Q1143.51 1568.49 1146.63 1566.83 L1146.63 1572.37 Q1143.48 1573.71 1140.17 1574.41 Q1136.86 1575.11 1133.45 1575.11 Q1124.92 1575.11 1119.92 1570.14 Q1114.96 1565.18 1114.96 1556.71 Q1114.96 1547.96 1119.67 1542.83 Q1124.41 1537.68 1132.43 1537.68 Q1139.62 1537.68 1143.79 1542.33 Q1148 1546.94 1148 1554.9 M1142.14 1553.18 Q1142.08 1548.37 1139.43 1545.51 Q1136.82 1542.64 1132.5 1542.64 Q1127.59 1542.64 1124.63 1545.41 Q1121.71 1548.18 1121.26 1553.21 L1142.14 1553.18 Z" fill="#000000" fill-rule="nonzero" fill-opacity="1" /><path clip-path="url(#clip320)" d="M1183.26 1539.91 L1183.26 1545.38 Q1180.78 1544.01 1178.26 1543.34 Q1175.78 1542.64 1173.24 1542.64 Q1167.54 1542.64 1164.39 1546.27 Q1161.24 1549.87 1161.24 1556.39 Q1161.24 1562.92 1164.39 1566.55 Q1167.54 1570.14 1173.24 1570.14 Q1175.78 1570.14 1178.26 1569.47 Q1180.78 1568.77 1183.26 1567.41 L1183.26 1572.82 Q1180.81 1573.96 1178.17 1574.54 Q1175.56 1575.11 1172.6 1575.11 Q1164.55 1575.11 1159.8 1570.05 Q1155.06 1564.99 1155.06 1556.39 Q1155.06 1547.67 1159.84 1542.68 Q1164.64 1537.68 1172.98 1537.68 Q1175.69 1537.68 1178.26 1538.25 Q1180.84 1538.79 1183.26 1539.91 Z" fill="#000000" fill-rule="nonzero" fill-opacity="1" /><path clip-path="url(#clip320)" d="M1199.24 1528.42 L1199.24 1538.54 L1211.3 1538.54 L1211.3 1543.09 L1199.24 1543.09 L1199.24 1562.44 Q1199.24 1566.8 1200.42 1568.04 Q1201.63 1569.28 1205.29 1569.28 L1211.3 1569.28 L1211.3 1574.19 L1205.29 1574.19 Q1198.51 1574.19 1195.93 1571.67 Q1193.35 1569.12 1193.35 1562.44 L1193.35 1543.09 L1189.05 1543.09 L1189.05 1538.54 L1193.35 1538.54 L1193.35 1528.42 L1199.24 1528.42 Z" fill="#000000" fill-rule="nonzero" fill-opacity="1" /><path clip-path="url(#clip320)" d="M1232.82 1542.64 Q1228.11 1542.64 1225.37 1546.34 Q1222.63 1550 1222.63 1556.39 Q1222.63 1562.79 1225.34 1566.48 Q1228.08 1570.14 1232.82 1570.14 Q1237.5 1570.14 1240.23 1566.45 Q1242.97 1562.76 1242.97 1556.39 Q1242.97 1550.06 1240.23 1546.37 Q1237.5 1542.64 1232.82 1542.64 M1232.82 1537.68 Q1240.46 1537.68 1244.82 1542.64 Q1249.18 1547.61 1249.18 1556.39 Q1249.18 1565.15 1244.82 1570.14 Q1240.46 1575.11 1232.82 1575.11 Q1225.15 1575.11 1220.79 1570.14 Q1216.46 1565.15 1216.46 1556.39 Q1216.46 1547.61 1220.79 1542.64 Q1225.15 1537.68 1232.82 1537.68 Z" fill="#000000" fill-rule="nonzero" fill-opacity="1" /><path clip-path="url(#clip320)" d="M1279.54 1544.01 Q1278.56 1543.44 1277.38 1543.18 Q1276.23 1542.9 1274.83 1542.9 Q1269.87 1542.9 1267.19 1546.14 Q1264.55 1549.36 1264.55 1555.41 L1264.55 1574.19 L1258.66 1574.19 L1258.66 1538.54 L1264.55 1538.54 L1264.55 1544.08 Q1266.4 1540.83 1269.36 1539.27 Q1272.32 1537.68 1276.55 1537.68 Q1277.16 1537.68 1277.89 1537.77 Q1278.62 1537.84 1279.51 1538 L1279.54 1544.01 Z" fill="#000000" fill-rule="nonzero" fill-opacity="1" /><path clip-path="url(#clip320)" d="M1329.13 1539.59 L1329.13 1545.13 Q1326.65 1543.85 1323.98 1543.22 Q1321.3 1542.58 1318.44 1542.58 Q1314.08 1542.58 1311.88 1543.92 Q1309.72 1545.25 1309.72 1547.93 Q1309.72 1549.96 1311.28 1551.14 Q1312.84 1552.29 1317.55 1553.34 L1319.55 1553.78 Q1325.79 1555.12 1328.4 1557.57 Q1331.04 1559.99 1331.04 1564.35 Q1331.04 1569.32 1327.1 1572.21 Q1323.18 1575.11 1316.31 1575.11 Q1313.44 1575.11 1310.32 1574.54 Q1307.23 1573.99 1303.8 1572.88 L1303.8 1566.83 Q1307.04 1568.52 1310.19 1569.38 Q1313.35 1570.21 1316.43 1570.21 Q1320.57 1570.21 1322.8 1568.81 Q1325.03 1567.37 1325.03 1564.8 Q1325.03 1562.41 1323.4 1561.14 Q1321.81 1559.86 1316.37 1558.68 L1314.33 1558.21 Q1308.89 1557.06 1306.47 1554.71 Q1304.05 1552.32 1304.05 1548.18 Q1304.05 1543.15 1307.62 1540.42 Q1311.18 1537.68 1317.74 1537.68 Q1320.98 1537.68 1323.85 1538.16 Q1326.71 1538.63 1329.13 1539.59 Z" fill="#000000" fill-rule="nonzero" fill-opacity="1" /><path clip-path="url(#clip320)" d="M1340.37 1538.54 L1346.22 1538.54 L1346.22 1574.19 L1340.37 1574.19 L1340.37 1538.54 M1340.37 1524.66 L1346.22 1524.66 L1346.22 1532.08 L1340.37 1532.08 L1340.37 1524.66 Z" fill="#000000" fill-rule="nonzero" fill-opacity="1" /><path clip-path="url(#clip320)" d="M1355.93 1538.54 L1383.75 1538.54 L1383.75 1543.88 L1361.72 1569.51 L1383.75 1569.51 L1383.75 1574.19 L1355.14 1574.19 L1355.14 1568.84 L1377.16 1543.22 L1355.93 1543.22 L1355.93 1538.54 Z" fill="#000000" fill-rule="nonzero" fill-opacity="1" /><path clip-path="url(#clip320)" d="M1423.19 1554.9 L1423.19 1557.76 L1396.26 1557.76 Q1396.64 1563.81 1399.89 1566.99 Q1403.17 1570.14 1408.99 1570.14 Q1412.36 1570.14 1415.51 1569.32 Q1418.7 1568.49 1421.82 1566.83 L1421.82 1572.37 Q1418.67 1573.71 1415.36 1574.41 Q1412.05 1575.11 1408.64 1575.11 Q1400.11 1575.11 1395.11 1570.14 Q1390.15 1565.18 1390.15 1556.71 Q1390.15 1547.96 1394.86 1542.83 Q1399.6 1537.68 1407.62 1537.68 Q1414.81 1537.68 1418.98 1542.33 Q1423.19 1546.94 1423.19 1554.9 M1417.33 1553.18 Q1417.27 1548.37 1414.62 1545.51 Q1412.01 1542.64 1407.68 1542.64 Q1402.78 1542.64 1399.82 1545.41 Q1396.89 1548.18 1396.45 1553.21 L1417.33 1553.18 Z" fill="#000000" fill-rule="nonzero" fill-opacity="1" /><path clip-path="url(#clip320)" d="M1483.15 1552.67 L1483.15 1574.19 L1477.29 1574.19 L1477.29 1552.86 Q1477.29 1547.8 1475.32 1545.29 Q1473.35 1542.77 1469.4 1542.77 Q1464.66 1542.77 1461.92 1545.79 Q1459.18 1548.82 1459.18 1554.04 L1459.18 1574.19 L1453.3 1574.19 L1453.3 1538.54 L1459.18 1538.54 L1459.18 1544.08 Q1461.28 1540.86 1464.12 1539.27 Q1466.98 1537.68 1470.71 1537.68 Q1476.85 1537.68 1480 1541.5 Q1483.15 1545.29 1483.15 1552.67 Z" fill="#000000" fill-rule="nonzero" fill-opacity="1" /><polyline clip-path="url(#clip322)" style="stroke:#000000; stroke-linecap:round; stroke-linejoin:round; stroke-width:2; stroke-opacity:0.1; fill:none" points="205.121,1315.98 2352.76,1315.98 "/>
<polyline clip-path="url(#clip322)" style="stroke:#000000; stroke-linecap:round; stroke-linejoin:round; stroke-width:2; stroke-opacity:0.1; fill:none" points="205.121,1054.73 2352.76,1054.73 "/>
<polyline clip-path="url(#clip322)" style="stroke:#000000; stroke-linecap:round; stroke-linejoin:round; stroke-width:2; stroke-opacity:0.1; fill:none" points="205.121,793.466 2352.76,793.466 "/>
<polyline clip-path="url(#clip322)" style="stroke:#000000; stroke-linecap:round; stroke-linejoin:round; stroke-width:2; stroke-opacity:0.1; fill:none" points="205.121,532.207 2352.76,532.207 "/>
<polyline clip-path="url(#clip322)" style="stroke:#000000; stroke-linecap:round; stroke-linejoin:round; stroke-width:2; stroke-opacity:0.1; fill:none" points="205.121,270.948 2352.76,270.948 "/>
<polyline clip-path="url(#clip322)" style="stroke:#000000; stroke-linecap:round; stroke-linejoin:round; stroke-width:2; stroke-opacity:0.1; fill:none" points="205.121,1315.98 2352.76,1315.98 "/>
<polyline clip-path="url(#clip322)" style="stroke:#000000; stroke-linecap:round; stroke-linejoin:round; stroke-width:2; stroke-opacity:0.1; fill:none" points="205.121,1054.73 2352.76,1054.73 "/>
<polyline clip-path="url(#clip322)" style="stroke:#000000; stroke-linecap:round; stroke-linejoin:round; stroke-width:2; stroke-opacity:0.1; fill:none" points="205.121,793.466 2352.76,793.466 "/>
<polyline clip-path="url(#clip322)" style="stroke:#000000; stroke-linecap:round; stroke-linejoin:round; stroke-width:2; stroke-opacity:0.1; fill:none" points="205.121,532.207 2352.76,532.207 "/>
<polyline clip-path="url(#clip322)" style="stroke:#000000; stroke-linecap:round; stroke-linejoin:round; stroke-width:2; stroke-opacity:0.1; fill:none" points="205.121,270.948 2352.76,270.948 "/>
<polyline clip-path="url(#clip320)" style="stroke:#000000; stroke-linecap:round; stroke-linejoin:round; stroke-width:4; stroke-opacity:1; fill:none" points="205.121,1410.9 205.121,47.2441 "/>
<polyline clip-path="url(#clip320)" style="stroke:#000000; stroke-linecap:round; stroke-linejoin:round; stroke-width:4; stroke-opacity:1; fill:none" points="2352.76,1410.9 2352.76,47.2441 "/>
<polyline clip-path="url(#clip320)" style="stroke:#000000; stroke-linecap:round; stroke-linejoin:round; stroke-width:4; stroke-opacity:1; fill:none" points="205.121,1315.98 224.019,1315.98 "/>
<polyline clip-path="url(#clip320)" style="stroke:#000000; stroke-linecap:round; stroke-linejoin:round; stroke-width:4; stroke-opacity:1; fill:none" points="205.121,1054.73 224.019,1054.73 "/>
<polyline clip-path="url(#clip320)" style="stroke:#000000; stroke-linecap:round; stroke-linejoin:round; stroke-width:4; stroke-opacity:1; fill:none" points="205.121,793.466 224.019,793.466 "/>
<polyline clip-path="url(#clip320)" style="stroke:#000000; stroke-linecap:round; stroke-linejoin:round; stroke-width:4; stroke-opacity:1; fill:none" points="205.121,532.207 224.019,532.207 "/>
<polyline clip-path="url(#clip320)" style="stroke:#000000; stroke-linecap:round; stroke-linejoin:round; stroke-width:4; stroke-opacity:1; fill:none" points="205.121,270.948 224.019,270.948 "/>
<polyline clip-path="url(#clip320)" style="stroke:#000000; stroke-linecap:round; stroke-linejoin:round; stroke-width:4; stroke-opacity:1; fill:none" points="2352.76,1315.98 2333.86,1315.98 "/>
<polyline clip-path="url(#clip320)" style="stroke:#000000; stroke-linecap:round; stroke-linejoin:round; stroke-width:4; stroke-opacity:1; fill:none" points="2352.76,1054.73 2333.86,1054.73 "/>
<polyline clip-path="url(#clip320)" style="stroke:#000000; stroke-linecap:round; stroke-linejoin:round; stroke-width:4; stroke-opacity:1; fill:none" points="2352.76,793.466 2333.86,793.466 "/>
<polyline clip-path="url(#clip320)" style="stroke:#000000; stroke-linecap:round; stroke-linejoin:round; stroke-width:4; stroke-opacity:1; fill:none" points="2352.76,532.207 2333.86,532.207 "/>
<polyline clip-path="url(#clip320)" style="stroke:#000000; stroke-linecap:round; stroke-linejoin:round; stroke-width:4; stroke-opacity:1; fill:none" points="2352.76,270.948 2333.86,270.948 "/>
<path clip-path="url(#clip320)" d="M117.825 1329.33 L125.464 1329.33 L125.464 1302.96 L117.154 1304.63 L117.154 1300.37 L125.418 1298.7 L130.093 1298.7 L130.093 1329.33 L137.732 1329.33 L137.732 1333.26 L117.825 1333.26 L117.825 1329.33 Z" fill="#000000" fill-rule="nonzero" fill-opacity="1" /><path clip-path="url(#clip320)" d="M157.177 1301.78 Q153.566 1301.78 151.737 1305.35 Q149.931 1308.89 149.931 1316.02 Q149.931 1323.13 151.737 1326.69 Q153.566 1330.23 157.177 1330.23 Q160.811 1330.23 162.616 1326.69 Q164.445 1323.13 164.445 1316.02 Q164.445 1308.89 162.616 1305.35 Q160.811 1301.78 157.177 1301.78 M157.177 1298.08 Q162.987 1298.08 166.042 1302.69 Q169.121 1307.27 169.121 1316.02 Q169.121 1324.75 166.042 1329.35 Q162.987 1333.94 157.177 1333.94 Q151.366 1333.94 148.288 1329.35 Q145.232 1324.75 145.232 1316.02 Q145.232 1307.27 148.288 1302.69 Q151.366 1298.08 157.177 1298.08 Z" fill="#000000" fill-rule="nonzero" fill-opacity="1" /><path clip-path="url(#clip320)" d="M121.043 1068.07 L137.362 1068.07 L137.362 1072.01 L115.418 1072.01 L115.418 1068.07 Q118.08 1065.32 122.663 1060.69 Q127.269 1056.03 128.45 1054.69 Q130.695 1052.17 131.575 1050.43 Q132.478 1048.67 132.478 1046.98 Q132.478 1044.23 130.533 1042.49 Q128.612 1040.76 125.51 1040.76 Q123.311 1040.76 120.857 1041.52 Q118.427 1042.28 115.649 1043.83 L115.649 1039.11 Q118.473 1037.98 120.927 1037.4 Q123.38 1036.82 125.418 1036.82 Q130.788 1036.82 133.982 1039.51 Q137.177 1042.19 137.177 1046.68 Q137.177 1048.81 136.367 1050.73 Q135.579 1052.63 133.473 1055.22 Q132.894 1055.89 129.792 1059.11 Q126.691 1062.31 121.043 1068.07 Z" fill="#000000" fill-rule="nonzero" fill-opacity="1" /><path clip-path="url(#clip320)" d="M157.177 1040.52 Q153.566 1040.52 151.737 1044.09 Q149.931 1047.63 149.931 1054.76 Q149.931 1061.87 151.737 1065.43 Q153.566 1068.97 157.177 1068.97 Q160.811 1068.97 162.616 1065.43 Q164.445 1061.87 164.445 1054.76 Q164.445 1047.63 162.616 1044.09 Q160.811 1040.52 157.177 1040.52 M157.177 1036.82 Q162.987 1036.82 166.042 1041.43 Q169.121 1046.01 169.121 1054.76 Q169.121 1063.49 166.042 1068.09 Q162.987 1072.68 157.177 1072.68 Q151.366 1072.68 148.288 1068.09 Q145.232 1063.49 145.232 1054.76 Q145.232 1046.01 148.288 1041.43 Q151.366 1036.82 157.177 1036.82 Z" fill="#000000" fill-rule="nonzero" fill-opacity="1" /><path clip-path="url(#clip320)" d="M131.181 792.112 Q134.538 792.83 136.413 795.098 Q138.311 797.367 138.311 800.7 Q138.311 805.816 134.792 808.617 Q131.274 811.418 124.793 811.418 Q122.617 811.418 120.302 810.978 Q118.01 810.561 115.556 809.705 L115.556 805.191 Q117.501 806.325 119.816 806.904 Q122.13 807.482 124.654 807.482 Q129.052 807.482 131.343 805.746 Q133.658 804.01 133.658 800.7 Q133.658 797.644 131.505 795.932 Q129.376 794.195 125.556 794.195 L121.529 794.195 L121.529 790.353 L125.742 790.353 Q129.191 790.353 131.019 788.987 Q132.848 787.598 132.848 785.006 Q132.848 782.344 130.95 780.932 Q129.075 779.496 125.556 779.496 Q123.635 779.496 121.436 779.913 Q119.237 780.33 116.598 781.209 L116.598 777.043 Q119.26 776.302 121.575 775.932 Q123.913 775.561 125.973 775.561 Q131.297 775.561 134.399 777.992 Q137.501 780.399 137.501 784.52 Q137.501 787.39 135.857 789.381 Q134.214 791.348 131.181 792.112 Z" fill="#000000" fill-rule="nonzero" fill-opacity="1" /><path clip-path="url(#clip320)" d="M157.177 779.265 Q153.566 779.265 151.737 782.83 Q149.931 786.371 149.931 793.501 Q149.931 800.607 151.737 804.172 Q153.566 807.714 157.177 807.714 Q160.811 807.714 162.616 804.172 Q164.445 800.607 164.445 793.501 Q164.445 786.371 162.616 782.83 Q160.811 779.265 157.177 779.265 M157.177 775.561 Q162.987 775.561 166.042 780.168 Q169.121 784.751 169.121 793.501 Q169.121 802.228 166.042 806.834 Q162.987 811.418 157.177 811.418 Q151.366 811.418 148.288 806.834 Q145.232 802.228 145.232 793.501 Q145.232 784.751 148.288 780.168 Q151.366 775.561 157.177 775.561 Z" fill="#000000" fill-rule="nonzero" fill-opacity="1" /><path clip-path="url(#clip320)" d="M129.862 519.001 L118.056 537.45 L129.862 537.45 L129.862 519.001 M128.635 514.927 L134.515 514.927 L134.515 537.45 L139.445 537.45 L139.445 541.339 L134.515 541.339 L134.515 549.487 L129.862 549.487 L129.862 541.339 L114.26 541.339 L114.26 536.825 L128.635 514.927 Z" fill="#000000" fill-rule="nonzero" fill-opacity="1" /><path clip-path="url(#clip320)" d="M157.177 518.006 Q153.566 518.006 151.737 521.571 Q149.931 525.112 149.931 532.242 Q149.931 539.348 151.737 542.913 Q153.566 546.455 157.177 546.455 Q160.811 546.455 162.616 542.913 Q164.445 539.348 164.445 532.242 Q164.445 525.112 162.616 521.571 Q160.811 518.006 157.177 518.006 M157.177 514.302 Q162.987 514.302 166.042 518.909 Q169.121 523.492 169.121 532.242 Q169.121 540.969 166.042 545.575 Q162.987 550.159 157.177 550.159 Q151.366 550.159 148.288 545.575 Q145.232 540.969 145.232 532.242 Q145.232 523.492 148.288 518.909 Q151.366 514.302 157.177 514.302 Z" fill="#000000" fill-rule="nonzero" fill-opacity="1" /><path clip-path="url(#clip320)" d="M117.061 253.668 L135.417 253.668 L135.417 257.604 L121.343 257.604 L121.343 266.076 Q122.362 265.729 123.38 265.567 Q124.399 265.381 125.418 265.381 Q131.205 265.381 134.584 268.553 Q137.964 271.724 137.964 277.141 Q137.964 282.719 134.492 285.821 Q131.019 288.9 124.7 288.9 Q122.524 288.9 120.255 288.529 Q118.01 288.159 115.603 287.418 L115.603 282.719 Q117.686 283.853 119.908 284.409 Q122.13 284.965 124.607 284.965 Q128.612 284.965 130.95 282.858 Q133.288 280.752 133.288 277.141 Q133.288 273.529 130.95 271.423 Q128.612 269.316 124.607 269.316 Q122.732 269.316 120.857 269.733 Q119.006 270.15 117.061 271.029 L117.061 253.668 Z" fill="#000000" fill-rule="nonzero" fill-opacity="1" /><path clip-path="url(#clip320)" d="M157.177 256.747 Q153.566 256.747 151.737 260.312 Q149.931 263.854 149.931 270.983 Q149.931 278.09 151.737 281.654 Q153.566 285.196 157.177 285.196 Q160.811 285.196 162.616 281.654 Q164.445 278.09 164.445 270.983 Q164.445 263.854 162.616 260.312 Q160.811 256.747 157.177 256.747 M157.177 253.043 Q162.987 253.043 166.042 257.65 Q169.121 262.233 169.121 270.983 Q169.121 279.71 166.042 284.316 Q162.987 288.9 157.177 288.9 Q151.366 288.9 148.288 284.316 Q145.232 279.71 145.232 270.983 Q145.232 262.233 148.288 257.65 Q151.366 253.043 157.177 253.043 Z" fill="#000000" fill-rule="nonzero" fill-opacity="1" /><path clip-path="url(#clip320)" d="M46.212 980.707 Q39.7508 980.707 36.0905 983.38 Q32.3984 986.022 32.3984 990.669 Q32.3984 995.316 36.0905 997.99 Q39.7508 1000.63 46.212 1000.63 Q52.6732 1000.63 56.3653 997.99 Q60.0256 995.316 60.0256 990.669 Q60.0256 986.022 56.3653 983.38 Q52.6732 980.707 46.212 980.707 M33.7671 1000.63 Q30.5842 998.785 29.0564 995.984 Q27.4968 993.152 27.4968 989.237 Q27.4968 982.744 32.6531 978.702 Q37.8093 974.628 46.212 974.628 Q54.6147 974.628 59.771 978.702 Q64.9272 982.744 64.9272 989.237 Q64.9272 993.152 63.3994 995.984 Q61.8398 998.785 58.657 1000.63 L64.0042 1000.63 L64.0042 1006.52 L14.479 1006.52 L14.479 1000.63 L33.7671 1000.63 Z" fill="#000000" fill-rule="nonzero" fill-opacity="1" /><path clip-path="url(#clip320)" d="M46.0847 948.719 Q46.0847 955.817 47.7079 958.554 Q49.3312 961.291 53.2461 961.291 Q56.3653 961.291 58.2114 959.254 Q60.0256 957.185 60.0256 953.652 Q60.0256 948.783 56.5881 945.855 Q53.1188 942.894 47.3897 942.894 L46.0847 942.894 L46.0847 948.719 M43.6657 937.038 L64.0042 937.038 L64.0042 942.894 L58.5933 942.894 Q61.8398 944.9 63.3994 947.892 Q64.9272 950.883 64.9272 955.212 Q64.9272 960.687 61.8716 963.933 Q58.7843 967.148 53.6281 967.148 Q47.6125 967.148 44.5569 963.137 Q41.5014 959.095 41.5014 951.106 L41.5014 942.894 L40.9285 942.894 Q36.8862 942.894 34.6901 945.568 Q32.4621 948.21 32.4621 953.016 Q32.4621 956.071 33.1941 958.968 Q33.9262 961.864 35.3903 964.538 L29.9795 964.538 Q28.7381 961.323 28.1334 958.299 Q27.4968 955.276 27.4968 952.411 Q27.4968 944.677 31.5072 940.857 Q35.5176 937.038 43.6657 937.038 Z" fill="#000000" fill-rule="nonzero" fill-opacity="1" /><path clip-path="url(#clip320)" d="M42.4881 895.343 L64.0042 895.343 L64.0042 901.199 L42.679 901.199 Q37.6183 901.199 35.1038 903.172 Q32.5894 905.146 32.5894 909.093 Q32.5894 913.835 35.6131 916.572 Q38.6368 919.31 43.8567 919.31 L64.0042 919.31 L64.0042 925.198 L28.3562 925.198 L28.3562 919.31 L33.8944 919.31 Q30.6797 917.209 29.0883 914.376 Q27.4968 911.512 27.4968 907.788 Q27.4968 901.645 31.3163 898.494 Q35.1038 895.343 42.4881 895.343 Z" fill="#000000" fill-rule="nonzero" fill-opacity="1" /><path clip-path="url(#clip320)" d="M33.7671 860.204 L14.479 860.204 L14.479 854.347 L64.0042 854.347 L64.0042 860.204 L58.657 860.204 Q61.8398 862.05 63.3994 864.883 Q64.9272 867.684 64.9272 871.63 Q64.9272 878.092 59.771 882.166 Q54.6147 886.208 46.212 886.208 Q37.8093 886.208 32.6531 882.166 Q27.4968 878.092 27.4968 871.63 Q27.4968 867.684 29.0564 864.883 Q30.5842 862.05 33.7671 860.204 M46.212 880.16 Q52.6732 880.16 56.3653 877.519 Q60.0256 874.845 60.0256 870.198 Q60.0256 865.551 56.3653 862.878 Q52.6732 860.204 46.212 860.204 Q39.7508 860.204 36.0905 862.878 Q32.3984 865.551 32.3984 870.198 Q32.3984 874.845 36.0905 877.519 Q39.7508 880.16 46.212 880.16 Z" fill="#000000" fill-rule="nonzero" fill-opacity="1" /><path clip-path="url(#clip320)" d="M28.3562 845.69 L28.3562 839.834 L56.1743 832.513 L28.3562 825.224 L28.3562 818.318 L56.1743 810.997 L28.3562 803.708 L28.3562 797.852 L64.0042 807.178 L64.0042 814.084 L34.7856 821.755 L64.0042 829.458 L64.0042 836.364 L28.3562 845.69 Z" fill="#000000" fill-rule="nonzero" fill-opacity="1" /><path clip-path="url(#clip320)" d="M28.3562 788.972 L28.3562 783.115 L64.0042 783.115 L64.0042 788.972 L28.3562 788.972 M14.479 788.972 L14.479 783.115 L21.895 783.115 L21.895 788.972 L14.479 788.972 Z" fill="#000000" fill-rule="nonzero" fill-opacity="1" /><path clip-path="url(#clip320)" d="M33.7671 747.404 L14.479 747.404 L14.479 741.547 L64.0042 741.547 L64.0042 747.404 L58.657 747.404 Q61.8398 749.25 63.3994 752.082 Q64.9272 754.883 64.9272 758.83 Q64.9272 765.291 59.771 769.365 Q54.6147 773.408 46.212 773.408 Q37.8093 773.408 32.6531 769.365 Q27.4968 765.291 27.4968 758.83 Q27.4968 754.883 29.0564 752.082 Q30.5842 749.25 33.7671 747.404 M46.212 767.36 Q52.6732 767.36 56.3653 764.718 Q60.0256 762.045 60.0256 757.398 Q60.0256 752.751 56.3653 750.077 Q52.6732 747.404 46.212 747.404 Q39.7508 747.404 36.0905 750.077 Q32.3984 752.751 32.3984 757.398 Q32.3984 762.045 36.0905 764.718 Q39.7508 767.36 46.212 767.36 Z" fill="#000000" fill-rule="nonzero" fill-opacity="1" /><path clip-path="url(#clip320)" d="M18.2347 723.691 L28.3562 723.691 L28.3562 711.628 L32.9077 711.628 L32.9077 723.691 L52.2594 723.691 Q56.6199 723.691 57.8613 722.514 Q59.1026 721.304 59.1026 717.644 L59.1026 711.628 L64.0042 711.628 L64.0042 717.644 Q64.0042 724.423 61.4897 727.002 Q58.9434 729.58 52.2594 729.58 L32.9077 729.58 L32.9077 733.876 L28.3562 733.876 L28.3562 729.58 L18.2347 729.58 L18.2347 723.691 Z" fill="#000000" fill-rule="nonzero" fill-opacity="1" /><path clip-path="url(#clip320)" d="M42.4881 674.293 L64.0042 674.293 L64.0042 680.15 L42.679 680.15 Q37.6183 680.15 35.1038 682.123 Q32.5894 684.097 32.5894 688.043 Q32.5894 692.786 35.6131 695.523 Q38.6368 698.26 43.8567 698.26 L64.0042 698.26 L64.0042 704.149 L14.479 704.149 L14.479 698.26 L33.8944 698.26 Q30.6797 696.16 29.0883 693.327 Q27.4968 690.462 27.4968 686.738 Q27.4968 680.596 31.3163 677.444 Q35.1038 674.293 42.4881 674.293 Z" fill="#000000" fill-rule="nonzero" fill-opacity="1" /><path clip-path="url(#clip320)" d="M14.479 642.433 L14.479 628.938 L19.0304 628.938 L19.0304 636.577 L68.0464 636.577 L68.0464 628.938 L72.5979 628.938 L72.5979 642.433 L14.479 642.433 Z" fill="#000000" fill-rule="nonzero" fill-opacity="1" /><path clip-path="url(#clip320)" d="M57.2247 583.805 L44.4614 583.805 L44.4614 594.308 L39.1779 594.308 L39.1779 577.439 L59.58 577.439 Q62.2218 581.163 63.5904 585.651 Q64.9272 590.139 64.9272 595.231 Q64.9272 606.371 58.4342 612.673 Q51.9093 618.944 40.2919 618.944 Q28.6427 618.944 22.1496 612.673 Q15.6248 606.371 15.6248 595.231 Q15.6248 590.584 16.7706 586.415 Q17.9164 582.214 20.1444 578.681 L26.9876 578.681 Q23.9639 582.245 22.4361 586.256 Q20.9083 590.266 20.9083 594.69 Q20.9083 603.411 25.7781 607.804 Q30.6479 612.164 40.2919 612.164 Q49.9041 612.164 54.7739 607.804 Q59.6436 603.411 59.6436 594.69 Q59.6436 591.285 59.0707 588.611 Q58.466 585.937 57.2247 583.805 Z" fill="#000000" fill-rule="nonzero" fill-opacity="1" /><path clip-path="url(#clip320)" d="M41.3104 559.265 L58.7206 559.265 L58.7206 548.953 Q58.7206 543.765 56.5881 541.282 Q54.4238 538.768 49.9996 538.768 Q45.5436 538.768 43.4429 541.282 Q41.3104 543.765 41.3104 548.953 L41.3104 559.265 M21.7677 559.265 L36.0905 559.265 L36.0905 549.748 Q36.0905 545.038 34.34 542.746 Q32.5576 540.423 28.9291 540.423 Q25.3325 540.423 23.5501 542.746 Q21.7677 545.038 21.7677 549.748 L21.7677 559.265 M16.4842 565.695 L16.4842 549.271 Q16.4842 541.919 19.5397 537.94 Q22.5952 533.961 28.2289 533.961 Q32.5894 533.961 35.1675 535.998 Q37.7456 538.036 38.3822 541.982 Q39.4007 537.24 42.6472 534.63 Q45.8619 531.988 50.6998 531.988 Q57.0655 531.988 60.5348 536.317 Q64.0042 540.645 64.0042 548.634 L64.0042 565.695 L16.4842 565.695 Z" fill="#000000" fill-rule="nonzero" fill-opacity="1" /><path clip-path="url(#clip320)" d="M16.4842 510.822 L16.4842 505.411 L70.0516 521.962 L70.0516 527.373 L16.4842 510.822 Z" fill="#000000" fill-rule="nonzero" fill-opacity="1" /><path clip-path="url(#clip320)" d="M29.4065 476.543 L34.9447 476.543 Q33.6716 479.025 33.035 481.699 Q32.3984 484.373 32.3984 487.237 Q32.3984 491.598 33.7352 493.794 Q35.072 495.958 37.7456 495.958 Q39.7826 495.958 40.9603 494.399 Q42.1061 492.839 43.1565 488.128 L43.6021 486.123 Q44.9389 479.885 47.3897 477.275 Q49.8086 474.633 54.1691 474.633 Q59.1344 474.633 62.0308 478.58 Q64.9272 482.495 64.9272 489.37 Q64.9272 492.234 64.3543 495.353 Q63.8132 498.441 62.6992 501.878 L56.6518 501.878 Q58.3387 498.632 59.198 495.481 Q60.0256 492.33 60.0256 489.242 Q60.0256 485.105 58.6251 482.877 Q57.1929 480.649 54.6147 480.649 Q52.2276 480.649 50.9545 482.272 Q49.6813 483.863 48.5037 489.306 L48.0262 491.343 Q46.8804 496.786 44.5251 499.205 Q42.138 501.624 38.0002 501.624 Q32.9713 501.624 30.2341 498.059 Q27.4968 494.494 27.4968 487.937 Q27.4968 484.691 27.9743 481.826 Q28.4517 478.962 29.4065 476.543 Z" fill="#000000" fill-rule="nonzero" fill-opacity="1" /><path clip-path="url(#clip320)" d="M14.479 451.621 L72.5979 451.621 L72.5979 465.116 L68.0464 465.116 L68.0464 457.509 L19.0304 457.509 L19.0304 465.116 L14.479 465.116 L14.479 451.621 Z" fill="#000000" fill-rule="nonzero" fill-opacity="1" /><polyline clip-path="url(#clip322)" style="stroke:#009af9; stroke-linecap:round; stroke-linejoin:round; stroke-width:4; stroke-opacity:1; fill:none" points="265.903,345.778 368.326,210.209 428.24,158.407 470.75,134.708 530.663,232.339 590.577,173.851 633.087,150.568 684.554,114.101 729.221,100.86 778.019,85.838 837.933,404.787 884.989,521.739 937.245,506.223 987.413,503.376 1038.09,504.464 1088.71,504.565 1138.91,501.47 1189.43,500.026 1239.72,500.883 1290.14,521.309 1350.05,997.492 1397.66,1093.86 1445.38,1106.84 1493.24,1106.65 1540.99,1106.62 1588.79,1106.66 1636.54,1106.73 1684.32,1107.96 1732.08,1113.16 1779.86,1131.92 1839.77,1269.43 1904.37,1325.52 1968.97,1329.43 2033.57,1352.74 2098.17,1368.53 2162.77,1370.57 2227.37,1368.4 2291.97,1372.3 "/>
<circle clip-path="url(#clip322)" cx="265.903" cy="345.778" r="7.2" fill="#009af9" fill-rule="evenodd" fill-opacity="1" stroke="#000000" stroke-opacity="1" stroke-width="3.2"/>
<circle clip-path="url(#clip322)" cx="368.326" cy="210.209" r="7.2" fill="#009af9" fill-rule="evenodd" fill-opacity="1" stroke="#000000" stroke-opacity="1" stroke-width="3.2"/>
<circle clip-path="url(#clip322)" cx="428.24" cy="158.407" r="7.2" fill="#009af9" fill-rule="evenodd" fill-opacity="1" stroke="#000000" stroke-opacity="1" stroke-width="3.2"/>
<circle clip-path="url(#clip322)" cx="470.75" cy="134.708" r="7.2" fill="#009af9" fill-rule="evenodd" fill-opacity="1" stroke="#000000" stroke-opacity="1" stroke-width="3.2"/>
<circle clip-path="url(#clip322)" cx="530.663" cy="232.339" r="7.2" fill="#009af9" fill-rule="evenodd" fill-opacity="1" stroke="#000000" stroke-opacity="1" stroke-width="3.2"/>
<circle clip-path="url(#clip322)" cx="590.577" cy="173.851" r="7.2" fill="#009af9" fill-rule="evenodd" fill-opacity="1" stroke="#000000" stroke-opacity="1" stroke-width="3.2"/>
<circle clip-path="url(#clip322)" cx="633.087" cy="150.568" r="7.2" fill="#009af9" fill-rule="evenodd" fill-opacity="1" stroke="#000000" stroke-opacity="1" stroke-width="3.2"/>
<circle clip-path="url(#clip322)" cx="684.554" cy="114.101" r="7.2" fill="#009af9" fill-rule="evenodd" fill-opacity="1" stroke="#000000" stroke-opacity="1" stroke-width="3.2"/>
<circle clip-path="url(#clip322)" cx="729.221" cy="100.86" r="7.2" fill="#009af9" fill-rule="evenodd" fill-opacity="1" stroke="#000000" stroke-opacity="1" stroke-width="3.2"/>
<circle clip-path="url(#clip322)" cx="778.019" cy="85.838" r="7.2" fill="#009af9" fill-rule="evenodd" fill-opacity="1" stroke="#000000" stroke-opacity="1" stroke-width="3.2"/>
<circle clip-path="url(#clip322)" cx="837.933" cy="404.787" r="7.2" fill="#009af9" fill-rule="evenodd" fill-opacity="1" stroke="#000000" stroke-opacity="1" stroke-width="3.2"/>
<circle clip-path="url(#clip322)" cx="884.989" cy="521.739" r="7.2" fill="#009af9" fill-rule="evenodd" fill-opacity="1" stroke="#000000" stroke-opacity="1" stroke-width="3.2"/>
<circle clip-path="url(#clip322)" cx="937.245" cy="506.223" r="7.2" fill="#009af9" fill-rule="evenodd" fill-opacity="1" stroke="#000000" stroke-opacity="1" stroke-width="3.2"/>
<circle clip-path="url(#clip322)" cx="987.413" cy="503.376" r="7.2" fill="#009af9" fill-rule="evenodd" fill-opacity="1" stroke="#000000" stroke-opacity="1" stroke-width="3.2"/>
<circle clip-path="url(#clip322)" cx="1038.09" cy="504.464" r="7.2" fill="#009af9" fill-rule="evenodd" fill-opacity="1" stroke="#000000" stroke-opacity="1" stroke-width="3.2"/>
<circle clip-path="url(#clip322)" cx="1088.71" cy="504.565" r="7.2" fill="#009af9" fill-rule="evenodd" fill-opacity="1" stroke="#000000" stroke-opacity="1" stroke-width="3.2"/>
<circle clip-path="url(#clip322)" cx="1138.91" cy="501.47" r="7.2" fill="#009af9" fill-rule="evenodd" fill-opacity="1" stroke="#000000" stroke-opacity="1" stroke-width="3.2"/>
<circle clip-path="url(#clip322)" cx="1189.43" cy="500.026" r="7.2" fill="#009af9" fill-rule="evenodd" fill-opacity="1" stroke="#000000" stroke-opacity="1" stroke-width="3.2"/>
<circle clip-path="url(#clip322)" cx="1239.72" cy="500.883" r="7.2" fill="#009af9" fill-rule="evenodd" fill-opacity="1" stroke="#000000" stroke-opacity="1" stroke-width="3.2"/>
<circle clip-path="url(#clip322)" cx="1290.14" cy="521.309" r="7.2" fill="#009af9" fill-rule="evenodd" fill-opacity="1" stroke="#000000" stroke-opacity="1" stroke-width="3.2"/>
<circle clip-path="url(#clip322)" cx="1350.05" cy="997.492" r="7.2" fill="#009af9" fill-rule="evenodd" fill-opacity="1" stroke="#000000" stroke-opacity="1" stroke-width="3.2"/>
<circle clip-path="url(#clip322)" cx="1397.66" cy="1093.86" r="7.2" fill="#009af9" fill-rule="evenodd" fill-opacity="1" stroke="#000000" stroke-opacity="1" stroke-width="3.2"/>
<circle clip-path="url(#clip322)" cx="1445.38" cy="1106.84" r="7.2" fill="#009af9" fill-rule="evenodd" fill-opacity="1" stroke="#000000" stroke-opacity="1" stroke-width="3.2"/>
<circle clip-path="url(#clip322)" cx="1493.24" cy="1106.65" r="7.2" fill="#009af9" fill-rule="evenodd" fill-opacity="1" stroke="#000000" stroke-opacity="1" stroke-width="3.2"/>
<circle clip-path="url(#clip322)" cx="1540.99" cy="1106.62" r="7.2" fill="#009af9" fill-rule="evenodd" fill-opacity="1" stroke="#000000" stroke-opacity="1" stroke-width="3.2"/>
<circle clip-path="url(#clip322)" cx="1588.79" cy="1106.66" r="7.2" fill="#009af9" fill-rule="evenodd" fill-opacity="1" stroke="#000000" stroke-opacity="1" stroke-width="3.2"/>
<circle clip-path="url(#clip322)" cx="1636.54" cy="1106.73" r="7.2" fill="#009af9" fill-rule="evenodd" fill-opacity="1" stroke="#000000" stroke-opacity="1" stroke-width="3.2"/>
<circle clip-path="url(#clip322)" cx="1684.32" cy="1107.96" r="7.2" fill="#009af9" fill-rule="evenodd" fill-opacity="1" stroke="#000000" stroke-opacity="1" stroke-width="3.2"/>
<circle clip-path="url(#clip322)" cx="1732.08" cy="1113.16" r="7.2" fill="#009af9" fill-rule="evenodd" fill-opacity="1" stroke="#000000" stroke-opacity="1" stroke-width="3.2"/>
<circle clip-path="url(#clip322)" cx="1779.86" cy="1131.92" r="7.2" fill="#009af9" fill-rule="evenodd" fill-opacity="1" stroke="#000000" stroke-opacity="1" stroke-width="3.2"/>
<circle clip-path="url(#clip322)" cx="1839.77" cy="1269.43" r="7.2" fill="#009af9" fill-rule="evenodd" fill-opacity="1" stroke="#000000" stroke-opacity="1" stroke-width="3.2"/>
<circle clip-path="url(#clip322)" cx="1904.37" cy="1325.52" r="7.2" fill="#009af9" fill-rule="evenodd" fill-opacity="1" stroke="#000000" stroke-opacity="1" stroke-width="3.2"/>
<circle clip-path="url(#clip322)" cx="1968.97" cy="1329.43" r="7.2" fill="#009af9" fill-rule="evenodd" fill-opacity="1" stroke="#000000" stroke-opacity="1" stroke-width="3.2"/>
<circle clip-path="url(#clip322)" cx="2033.57" cy="1352.74" r="7.2" fill="#009af9" fill-rule="evenodd" fill-opacity="1" stroke="#000000" stroke-opacity="1" stroke-width="3.2"/>
<circle clip-path="url(#clip322)" cx="2098.17" cy="1368.53" r="7.2" fill="#009af9" fill-rule="evenodd" fill-opacity="1" stroke="#000000" stroke-opacity="1" stroke-width="3.2"/>
<circle clip-path="url(#clip322)" cx="2162.77" cy="1370.57" r="7.2" fill="#009af9" fill-rule="evenodd" fill-opacity="1" stroke="#000000" stroke-opacity="1" stroke-width="3.2"/>
<circle clip-path="url(#clip322)" cx="2227.37" cy="1368.4" r="7.2" fill="#009af9" fill-rule="evenodd" fill-opacity="1" stroke="#000000" stroke-opacity="1" stroke-width="3.2"/>
<circle clip-path="url(#clip322)" cx="2291.97" cy="1372.3" r="7.2" fill="#009af9" fill-rule="evenodd" fill-opacity="1" stroke="#000000" stroke-opacity="1" stroke-width="3.2"/>
<polyline clip-path="url(#clip322)" style="stroke:#ffa500; stroke-linecap:round; stroke-linejoin:round; stroke-width:8; stroke-opacity:1; fill:none" points="778.019,2774.55 778.019,-1316.41 "/>
<polyline clip-path="url(#clip322)" style="stroke:#ff0000; stroke-linecap:round; stroke-linejoin:round; stroke-width:8; stroke-opacity:1; fill:none" points="1290.14,2774.55 1290.14,-1316.41 "/>
<polyline clip-path="url(#clip322)" style="stroke:#800080; stroke-linecap:round; stroke-linejoin:round; stroke-width:8; stroke-opacity:1; fill:none" points="1779.86,2774.55 1779.86,-1316.41 "/>
<path clip-path="url(#clip320)" d="M1427.77 351.899 L2281.17 351.899 L2281.17 92.6992 L1427.77 92.6992  Z" fill="#ffffff" fill-rule="evenodd" fill-opacity="1"/>
<polyline clip-path="url(#clip320)" style="stroke:#000000; stroke-linecap:round; stroke-linejoin:round; stroke-width:4; stroke-opacity:1; fill:none" points="1427.77,351.899 2281.17,351.899 2281.17,92.6992 1427.77,92.6992 1427.77,351.899 "/>
<polyline clip-path="url(#clip320)" style="stroke:#009af9; stroke-linecap:round; stroke-linejoin:round; stroke-width:4; stroke-opacity:1; fill:none" points="1451.64,144.539 1594.81,144.539 "/>
<circle clip-path="url(#clip320)" cx="1523.22" cy="144.539" r="18.432" fill="#009af9" fill-rule="evenodd" fill-opacity="1" stroke="#000000" stroke-opacity="1" stroke-width="8.192"/>
<path clip-path="url(#clip320)" d="M1637.1 136.657 L1637.1 140.685 Q1635.29 139.759 1633.35 139.296 Q1631.41 138.833 1629.32 138.833 Q1626.15 138.833 1624.55 139.805 Q1622.98 140.778 1622.98 142.722 Q1622.98 144.204 1624.11 145.06 Q1625.25 145.893 1628.67 146.657 L1630.13 146.981 Q1634.67 147.954 1636.57 149.736 Q1638.49 151.495 1638.49 154.666 Q1638.49 158.278 1635.62 160.384 Q1632.77 162.49 1627.77 162.49 Q1625.69 162.49 1623.42 162.074 Q1621.17 161.68 1618.67 160.87 L1618.67 156.472 Q1621.04 157.699 1623.33 158.324 Q1625.62 158.926 1627.86 158.926 Q1630.87 158.926 1632.49 157.907 Q1634.11 156.866 1634.11 154.991 Q1634.11 153.254 1632.93 152.328 Q1631.78 151.403 1627.82 150.546 L1626.34 150.199 Q1622.38 149.366 1620.62 147.653 Q1618.86 145.916 1618.86 142.907 Q1618.86 139.25 1621.45 137.259 Q1624.04 135.268 1628.81 135.268 Q1631.17 135.268 1633.26 135.616 Q1635.34 135.963 1637.1 136.657 Z" fill="#000000" fill-rule="nonzero" fill-opacity="1" /><path clip-path="url(#clip320)" d="M1662.33 139.829 L1662.33 125.801 L1666.59 125.801 L1666.59 161.819 L1662.33 161.819 L1662.33 157.93 Q1660.99 160.245 1658.93 161.379 Q1656.89 162.49 1654.02 162.49 Q1649.32 162.49 1646.36 158.74 Q1643.42 154.991 1643.42 148.879 Q1643.42 142.768 1646.36 139.018 Q1649.32 135.268 1654.02 135.268 Q1656.89 135.268 1658.93 136.403 Q1660.99 137.514 1662.33 139.829 M1647.82 148.879 Q1647.82 153.578 1649.74 156.264 Q1651.68 158.926 1655.06 158.926 Q1658.44 158.926 1660.39 156.264 Q1662.33 153.578 1662.33 148.879 Q1662.33 144.18 1660.39 141.518 Q1658.44 138.833 1655.06 138.833 Q1651.68 138.833 1649.74 141.518 Q1647.82 144.18 1647.82 148.879 Z" fill="#000000" fill-rule="nonzero" fill-opacity="1" /><path clip-path="url(#clip320)" d="M1687.15 148.787 Q1681.98 148.787 1679.99 149.967 Q1678 151.148 1678 153.995 Q1678 156.264 1679.48 157.606 Q1680.99 158.926 1683.56 158.926 Q1687.1 158.926 1689.23 156.426 Q1691.38 153.903 1691.38 149.736 L1691.38 148.787 L1687.15 148.787 M1695.64 147.028 L1695.64 161.819 L1691.38 161.819 L1691.38 157.884 Q1689.92 160.245 1687.75 161.379 Q1685.57 162.49 1682.42 162.49 Q1678.44 162.49 1676.08 160.268 Q1673.74 158.023 1673.74 154.273 Q1673.74 149.898 1676.66 147.676 Q1679.6 145.454 1685.41 145.454 L1691.38 145.454 L1691.38 145.037 Q1691.38 142.097 1689.44 140.5 Q1687.52 138.879 1684.02 138.879 Q1681.8 138.879 1679.69 139.412 Q1677.59 139.944 1675.64 141.009 L1675.64 137.074 Q1677.98 136.171 1680.18 135.731 Q1682.38 135.268 1684.46 135.268 Q1690.09 135.268 1692.86 138.185 Q1695.64 141.102 1695.64 147.028 Z" fill="#000000" fill-rule="nonzero" fill-opacity="1" /><path clip-path="url(#clip320)" d="M1725.97 135.893 L1716.59 148.509 L1726.45 161.819 L1721.43 161.819 L1713.88 151.634 L1706.34 161.819 L1701.31 161.819 L1711.38 148.254 L1702.17 135.893 L1707.19 135.893 L1714.07 145.129 L1720.94 135.893 L1725.97 135.893 Z" fill="#000000" fill-rule="nonzero" fill-opacity="1" /><path clip-path="url(#clip320)" d="M1736.59 157.93 L1736.59 171.68 L1732.31 171.68 L1732.31 135.893 L1736.59 135.893 L1736.59 139.829 Q1737.93 137.514 1739.97 136.403 Q1742.03 135.268 1744.88 135.268 Q1749.6 135.268 1752.54 139.018 Q1755.5 142.768 1755.5 148.879 Q1755.5 154.991 1752.54 158.74 Q1749.6 162.49 1744.88 162.49 Q1742.03 162.49 1739.97 161.379 Q1737.93 160.245 1736.59 157.93 M1751.08 148.879 Q1751.08 144.18 1749.14 141.518 Q1747.22 138.833 1743.84 138.833 Q1740.46 138.833 1738.51 141.518 Q1736.59 144.18 1736.59 148.879 Q1736.59 153.578 1738.51 156.264 Q1740.46 158.926 1743.84 158.926 Q1747.22 158.926 1749.14 156.264 Q1751.08 153.578 1751.08 148.879 Z" fill="#000000" fill-rule="nonzero" fill-opacity="1" /><path clip-path="url(#clip320)" d="M1773.35 164.227 Q1771.54 168.856 1769.83 170.268 Q1768.12 171.68 1765.25 171.68 L1761.85 171.68 L1761.85 168.115 L1764.35 168.115 Q1766.1 168.115 1767.08 167.282 Q1768.05 166.449 1769.23 163.347 L1769.99 161.403 L1759.51 135.893 L1764.02 135.893 L1772.12 156.171 L1780.22 135.893 L1784.74 135.893 L1773.35 164.227 Z" fill="#000000" fill-rule="nonzero" fill-opacity="1" /><path clip-path="url(#clip320)" d="M1793.3 155.94 L1798 155.94 L1798 161.819 L1793.3 161.819 L1793.3 155.94 M1793.3 127.259 L1798 127.259 L1798 142.421 L1797.54 150.685 L1793.79 150.685 L1793.3 142.421 L1793.3 127.259 Z" fill="#000000" fill-rule="nonzero" fill-opacity="1" /><polyline clip-path="url(#clip320)" style="stroke:#ffa500; stroke-linecap:round; stroke-linejoin:round; stroke-width:8; stroke-opacity:1; fill:none" points="1451.64,196.379 1594.81,196.379 "/>
<path clip-path="url(#clip320)" d="M1618.67 179.099 L1623.35 179.099 L1623.35 209.724 L1640.18 209.724 L1640.18 213.659 L1618.67 213.659 L1618.67 179.099 Z" fill="#000000" fill-rule="nonzero" fill-opacity="1" /><path clip-path="url(#clip320)" d="M1646.31 209.724 L1653.95 209.724 L1653.95 183.358 L1645.64 185.025 L1645.64 180.766 L1653.91 179.099 L1658.58 179.099 L1658.58 209.724 L1666.22 209.724 L1666.22 213.659 L1646.31 213.659 L1646.31 209.724 Z" fill="#000000" fill-rule="nonzero" fill-opacity="1" /><path clip-path="url(#clip320)" d="M1690.69 192.132 L1720.36 192.132 L1720.36 196.02 L1690.69 196.02 L1690.69 192.132 M1690.69 201.576 L1720.36 201.576 L1720.36 205.511 L1690.69 205.511 L1690.69 201.576 Z" fill="#000000" fill-rule="nonzero" fill-opacity="1" /><path clip-path="url(#clip320)" d="M1746.34 209.724 L1753.97 209.724 L1753.97 183.358 L1745.66 185.025 L1745.66 180.766 L1753.93 179.099 L1758.6 179.099 L1758.6 209.724 L1766.24 209.724 L1766.24 213.659 L1746.34 213.659 L1746.34 209.724 Z" fill="#000000" fill-rule="nonzero" fill-opacity="1" /><path clip-path="url(#clip320)" d="M1785.69 182.178 Q1782.08 182.178 1780.25 185.743 Q1778.44 189.284 1778.44 196.414 Q1778.44 203.52 1780.25 207.085 Q1782.08 210.627 1785.69 210.627 Q1789.32 210.627 1791.13 207.085 Q1792.96 203.52 1792.96 196.414 Q1792.96 189.284 1791.13 185.743 Q1789.32 182.178 1785.69 182.178 M1785.69 178.474 Q1791.5 178.474 1794.55 183.081 Q1797.63 187.664 1797.63 196.414 Q1797.63 205.141 1794.55 209.747 Q1791.5 214.33 1785.69 214.33 Q1779.88 214.33 1776.8 209.747 Q1773.74 205.141 1773.74 196.414 Q1773.74 187.664 1776.8 183.081 Q1779.88 178.474 1785.69 178.474 Z" fill="#000000" fill-rule="nonzero" fill-opacity="1" /><path clip-path="url(#clip320)" d="M1809.88 209.724 L1826.2 209.724 L1826.2 213.659 L1804.25 213.659 L1804.25 209.724 Q1806.91 206.969 1811.5 202.34 Q1816.1 197.687 1817.28 196.344 Q1819.53 193.821 1820.41 192.085 Q1821.31 190.326 1821.31 188.636 Q1821.31 185.882 1819.37 184.145 Q1817.45 182.409 1814.34 182.409 Q1812.15 182.409 1809.69 183.173 Q1807.26 183.937 1804.48 185.488 L1804.48 180.766 Q1807.31 179.632 1809.76 179.053 Q1812.22 178.474 1814.25 178.474 Q1819.62 178.474 1822.82 181.159 Q1826.01 183.845 1826.01 188.335 Q1826.01 190.465 1825.2 192.386 Q1824.41 194.284 1822.31 196.877 Q1821.73 197.548 1818.63 200.766 Q1815.53 203.96 1809.88 209.724 Z" fill="#000000" fill-rule="nonzero" fill-opacity="1" /><path clip-path="url(#clip320)" d="M1848.86 183.173 L1837.05 201.622 L1848.86 201.622 L1848.86 183.173 M1847.63 179.099 L1853.51 179.099 L1853.51 201.622 L1858.44 201.622 L1858.44 205.511 L1853.51 205.511 L1853.51 213.659 L1848.86 213.659 L1848.86 205.511 L1833.26 205.511 L1833.26 200.997 L1847.63 179.099 Z" fill="#000000" fill-rule="nonzero" fill-opacity="1" /><path clip-path="url(#clip320)" d="M1890.87 177.687 Q1887.77 183.011 1886.27 188.22 Q1884.76 193.428 1884.76 198.775 Q1884.76 204.122 1886.27 209.377 Q1887.79 214.608 1890.87 219.909 L1887.17 219.909 Q1883.7 214.469 1881.96 209.215 Q1880.25 203.96 1880.25 198.775 Q1880.25 193.613 1881.96 188.382 Q1883.67 183.15 1887.17 177.687 L1890.87 177.687 Z" fill="#000000" fill-rule="nonzero" fill-opacity="1" /><path clip-path="url(#clip320)" d="M1913.9 195.025 Q1917.26 195.743 1919.14 198.011 Q1921.03 200.28 1921.03 203.613 Q1921.03 208.729 1917.52 211.53 Q1914 214.33 1907.52 214.33 Q1905.34 214.33 1903.02 213.891 Q1900.73 213.474 1898.28 212.618 L1898.28 208.104 Q1900.22 209.238 1902.54 209.817 Q1904.85 210.395 1907.38 210.395 Q1911.77 210.395 1914.07 208.659 Q1916.38 206.923 1916.38 203.613 Q1916.38 200.557 1914.23 198.844 Q1912.1 197.108 1908.28 197.108 L1904.25 197.108 L1904.25 193.266 L1908.46 193.266 Q1911.91 193.266 1913.74 191.9 Q1915.57 190.511 1915.57 187.919 Q1915.57 185.257 1913.67 183.845 Q1911.8 182.409 1908.28 182.409 Q1906.36 182.409 1904.16 182.826 Q1901.96 183.243 1899.32 184.122 L1899.32 179.956 Q1901.98 179.215 1904.3 178.845 Q1906.64 178.474 1908.7 178.474 Q1914.02 178.474 1917.12 180.905 Q1920.22 183.312 1920.22 187.432 Q1920.22 190.303 1918.58 192.294 Q1916.94 194.261 1913.9 195.025 Z" fill="#000000" fill-rule="nonzero" fill-opacity="1" /><path clip-path="url(#clip320)" d="M1933.93 209.724 L1950.25 209.724 L1950.25 213.659 L1928.3 213.659 L1928.3 209.724 Q1930.96 206.969 1935.55 202.34 Q1940.15 197.687 1941.33 196.344 Q1943.58 193.821 1944.46 192.085 Q1945.36 190.326 1945.36 188.636 Q1945.36 185.882 1943.42 184.145 Q1941.5 182.409 1938.4 182.409 Q1936.2 182.409 1933.74 183.173 Q1931.31 183.937 1928.53 185.488 L1928.53 180.766 Q1931.36 179.632 1933.81 179.053 Q1936.27 178.474 1938.3 178.474 Q1943.67 178.474 1946.87 181.159 Q1950.06 183.845 1950.06 188.335 Q1950.06 190.465 1949.25 192.386 Q1948.46 194.284 1946.36 196.877 Q1945.78 197.548 1942.68 200.766 Q1939.58 203.96 1933.93 209.724 Z" fill="#000000" fill-rule="nonzero" fill-opacity="1" /><path clip-path="url(#clip320)" d="M1960.06 207.78 L1964.95 207.78 L1964.95 213.659 L1960.06 213.659 L1960.06 207.78 Z" fill="#000000" fill-rule="nonzero" fill-opacity="1" /><path clip-path="url(#clip320)" d="M1985.13 182.178 Q1981.52 182.178 1979.69 185.743 Q1977.89 189.284 1977.89 196.414 Q1977.89 203.52 1979.69 207.085 Q1981.52 210.627 1985.13 210.627 Q1988.77 210.627 1990.57 207.085 Q1992.4 203.52 1992.4 196.414 Q1992.4 189.284 1990.57 185.743 Q1988.77 182.178 1985.13 182.178 M1985.13 178.474 Q1990.94 178.474 1994 183.081 Q1997.08 187.664 1997.08 196.414 Q1997.08 205.141 1994 209.747 Q1990.94 214.33 1985.13 214.33 Q1979.32 214.33 1976.24 209.747 Q1973.19 205.141 1973.19 196.414 Q1973.19 187.664 1976.24 183.081 Q1979.32 178.474 1985.13 178.474 Z" fill="#000000" fill-rule="nonzero" fill-opacity="1" /><path clip-path="url(#clip320)" d="M2019.95 179.099 L2024.62 179.099 L2024.62 193.706 L2040.13 179.099 L2046.15 179.099 L2029 195.21 L2047.38 213.659 L2041.22 213.659 L2024.62 197.016 L2024.62 213.659 L2019.95 213.659 L2019.95 179.099 Z" fill="#000000" fill-rule="nonzero" fill-opacity="1" /><path clip-path="url(#clip320)" d="M2050.85 187.733 L2055.11 187.733 L2055.11 213.659 L2050.85 213.659 L2050.85 187.733 M2050.85 177.641 L2055.11 177.641 L2055.11 183.034 L2050.85 183.034 L2050.85 177.641 Z" fill="#000000" fill-rule="nonzero" fill-opacity="1" /><path clip-path="url(#clip320)" d="M2068.88 197.155 L2068.88 209.817 L2076.38 209.817 Q2080.15 209.817 2081.96 208.266 Q2083.79 206.692 2083.79 203.474 Q2083.79 200.233 2081.96 198.706 Q2080.15 197.155 2076.38 197.155 L2068.88 197.155 M2068.88 182.942 L2068.88 193.358 L2075.8 193.358 Q2079.23 193.358 2080.89 192.085 Q2082.58 190.789 2082.58 188.15 Q2082.58 185.534 2080.89 184.238 Q2079.23 182.942 2075.8 182.942 L2068.88 182.942 M2064.2 179.099 L2076.15 179.099 Q2081.5 179.099 2084.39 181.321 Q2087.28 183.544 2087.28 187.641 Q2087.28 190.812 2085.8 192.687 Q2084.32 194.562 2081.45 195.025 Q2084.9 195.766 2086.8 198.127 Q2088.72 200.465 2088.72 203.983 Q2088.72 208.613 2085.57 211.136 Q2082.42 213.659 2076.61 213.659 L2064.2 213.659 L2064.2 179.099 Z" fill="#000000" fill-rule="nonzero" fill-opacity="1" /><path clip-path="url(#clip320)" d="M2095.87 177.687 L2099.57 177.687 Q2103.05 183.15 2104.76 188.382 Q2106.5 193.613 2106.5 198.775 Q2106.5 203.96 2104.76 209.215 Q2103.05 214.469 2099.57 219.909 L2095.87 219.909 Q2098.95 214.608 2100.45 209.377 Q2101.98 204.122 2101.98 198.775 Q2101.98 193.428 2100.45 188.22 Q2098.95 183.011 2095.87 177.687 Z" fill="#000000" fill-rule="nonzero" fill-opacity="1" /><polyline clip-path="url(#clip320)" style="stroke:#ff0000; stroke-linecap:round; stroke-linejoin:round; stroke-width:8; stroke-opacity:1; fill:none" points="1451.64,248.219 1594.81,248.219 "/>
<path clip-path="url(#clip320)" d="M1618.67 230.939 L1623.35 230.939 L1623.35 261.564 L1640.18 261.564 L1640.18 265.499 L1618.67 265.499 L1618.67 230.939 Z" fill="#000000" fill-rule="nonzero" fill-opacity="1" /><path clip-path="url(#clip320)" d="M1649.53 261.564 L1665.85 261.564 L1665.85 265.499 L1643.91 265.499 L1643.91 261.564 Q1646.57 258.809 1651.15 254.18 Q1655.76 249.527 1656.94 248.184 Q1659.18 245.661 1660.06 243.925 Q1660.97 242.166 1660.97 240.476 Q1660.97 237.722 1659.02 235.985 Q1657.1 234.249 1654 234.249 Q1651.8 234.249 1649.35 235.013 Q1646.92 235.777 1644.14 237.328 L1644.14 232.606 Q1646.96 231.472 1649.42 230.893 Q1651.87 230.314 1653.91 230.314 Q1659.28 230.314 1662.47 232.999 Q1665.67 235.685 1665.67 240.175 Q1665.67 242.305 1664.85 244.226 Q1664.07 246.124 1661.96 248.717 Q1661.38 249.388 1658.28 252.606 Q1655.18 255.8 1649.53 261.564 Z" fill="#000000" fill-rule="nonzero" fill-opacity="1" /><path clip-path="url(#clip320)" d="M1690.69 243.972 L1720.36 243.972 L1720.36 247.86 L1690.69 247.86 L1690.69 243.972 M1690.69 253.416 L1720.36 253.416 L1720.36 257.351 L1690.69 257.351 L1690.69 253.416 Z" fill="#000000" fill-rule="nonzero" fill-opacity="1" /><path clip-path="url(#clip320)" d="M1759.69 246.865 Q1763.05 247.583 1764.92 249.851 Q1766.82 252.12 1766.82 255.453 Q1766.82 260.569 1763.3 263.37 Q1759.78 266.17 1753.3 266.17 Q1751.13 266.17 1748.81 265.731 Q1746.52 265.314 1744.07 264.458 L1744.07 259.944 Q1746.01 261.078 1748.33 261.657 Q1750.64 262.235 1753.16 262.235 Q1757.56 262.235 1759.85 260.499 Q1762.17 258.763 1762.17 255.453 Q1762.17 252.397 1760.02 250.684 Q1757.89 248.948 1754.07 248.948 L1750.04 248.948 L1750.04 245.106 L1754.25 245.106 Q1757.7 245.106 1759.53 243.74 Q1761.36 242.351 1761.36 239.759 Q1761.36 237.097 1759.46 235.685 Q1757.59 234.249 1754.07 234.249 Q1752.15 234.249 1749.95 234.666 Q1747.75 235.083 1745.11 235.962 L1745.11 231.796 Q1747.77 231.055 1750.09 230.685 Q1752.42 230.314 1754.48 230.314 Q1759.81 230.314 1762.91 232.745 Q1766.01 235.152 1766.01 239.272 Q1766.01 242.143 1764.37 244.134 Q1762.72 246.101 1759.69 246.865 Z" fill="#000000" fill-rule="nonzero" fill-opacity="1" /><path clip-path="url(#clip320)" d="M1779.72 261.564 L1796.03 261.564 L1796.03 265.499 L1774.09 265.499 L1774.09 261.564 Q1776.75 258.809 1781.34 254.18 Q1785.94 249.527 1787.12 248.184 Q1789.37 245.661 1790.25 243.925 Q1791.15 242.166 1791.15 240.476 Q1791.15 237.722 1789.21 235.985 Q1787.28 234.249 1784.18 234.249 Q1781.98 234.249 1779.53 235.013 Q1777.1 235.777 1774.32 237.328 L1774.32 232.606 Q1777.15 231.472 1779.6 230.893 Q1782.05 230.314 1784.09 230.314 Q1789.46 230.314 1792.66 232.999 Q1795.85 235.685 1795.85 240.175 Q1795.85 242.305 1795.04 244.226 Q1794.25 246.124 1792.15 248.717 Q1791.57 249.388 1788.47 252.606 Q1785.36 255.8 1779.72 261.564 Z" fill="#000000" fill-rule="nonzero" fill-opacity="1" /><path clip-path="url(#clip320)" d="M1804.67 230.939 L1826.89 230.939 L1826.89 232.93 L1814.34 265.499 L1809.46 265.499 L1821.27 234.874 L1804.67 234.874 L1804.67 230.939 Z" fill="#000000" fill-rule="nonzero" fill-opacity="1" /><path clip-path="url(#clip320)" d="M1846.59 246.356 Q1843.44 246.356 1841.59 248.509 Q1839.76 250.661 1839.76 254.411 Q1839.76 258.138 1841.59 260.314 Q1843.44 262.467 1846.59 262.467 Q1849.74 262.467 1851.57 260.314 Q1853.42 258.138 1853.42 254.411 Q1853.42 250.661 1851.57 248.509 Q1849.74 246.356 1846.59 246.356 M1855.87 231.703 L1855.87 235.962 Q1854.11 235.129 1852.31 234.689 Q1850.53 234.249 1848.77 234.249 Q1844.14 234.249 1841.68 237.374 Q1839.25 240.499 1838.9 246.819 Q1840.27 244.805 1842.33 243.74 Q1844.39 242.652 1846.87 242.652 Q1852.08 242.652 1855.09 245.823 Q1858.12 248.971 1858.12 254.411 Q1858.12 259.735 1854.97 262.953 Q1851.82 266.17 1846.59 266.17 Q1840.59 266.17 1837.42 261.587 Q1834.25 256.981 1834.25 248.254 Q1834.25 240.06 1838.14 235.198 Q1842.03 230.314 1848.58 230.314 Q1850.34 230.314 1852.12 230.661 Q1853.93 231.009 1855.87 231.703 Z" fill="#000000" fill-rule="nonzero" fill-opacity="1" /><path clip-path="url(#clip320)" d="M1876.17 249.087 Q1872.84 249.087 1870.92 250.87 Q1869.02 252.652 1869.02 255.777 Q1869.02 258.902 1870.92 260.684 Q1872.84 262.467 1876.17 262.467 Q1879.51 262.467 1881.43 260.684 Q1883.35 258.879 1883.35 255.777 Q1883.35 252.652 1881.43 250.87 Q1879.53 249.087 1876.17 249.087 M1871.5 247.097 Q1868.49 246.356 1866.8 244.296 Q1865.13 242.235 1865.13 239.272 Q1865.13 235.129 1868.07 232.722 Q1871.03 230.314 1876.17 230.314 Q1881.34 230.314 1884.28 232.722 Q1887.21 235.129 1887.21 239.272 Q1887.21 242.235 1885.53 244.296 Q1883.86 246.356 1880.87 247.097 Q1884.25 247.884 1886.13 250.175 Q1888.03 252.467 1888.03 255.777 Q1888.03 260.8 1884.95 263.485 Q1881.89 266.17 1876.17 266.17 Q1870.46 266.17 1867.38 263.485 Q1864.32 260.8 1864.32 255.777 Q1864.32 252.467 1866.22 250.175 Q1868.12 247.884 1871.5 247.097 M1869.78 239.712 Q1869.78 242.397 1871.45 243.902 Q1873.14 245.407 1876.17 245.407 Q1879.18 245.407 1880.87 243.902 Q1882.59 242.397 1882.59 239.712 Q1882.59 237.027 1880.87 235.522 Q1879.18 234.018 1876.17 234.018 Q1873.14 234.018 1871.45 235.522 Q1869.78 237.027 1869.78 239.712 Z" fill="#000000" fill-rule="nonzero" fill-opacity="1" /><path clip-path="url(#clip320)" d="M1921.03 229.527 Q1917.93 234.851 1916.43 240.06 Q1914.92 245.268 1914.92 250.615 Q1914.92 255.962 1916.43 261.217 Q1917.96 266.448 1921.03 271.749 L1917.33 271.749 Q1913.86 266.309 1912.12 261.055 Q1910.41 255.8 1910.41 250.615 Q1910.41 245.453 1912.12 240.222 Q1913.84 234.99 1917.33 229.527 L1921.03 229.527 Z" fill="#000000" fill-rule="nonzero" fill-opacity="1" /><path clip-path="url(#clip320)" d="M1930.71 261.564 L1938.35 261.564 L1938.35 235.198 L1930.04 236.865 L1930.04 232.606 L1938.3 230.939 L1942.98 230.939 L1942.98 261.564 L1950.62 261.564 L1950.62 265.499 L1930.71 265.499 L1930.71 261.564 Z" fill="#000000" fill-rule="nonzero" fill-opacity="1" /><path clip-path="url(#clip320)" d="M1970.06 234.018 Q1966.45 234.018 1964.62 237.583 Q1962.82 241.124 1962.82 248.254 Q1962.82 255.36 1964.62 258.925 Q1966.45 262.467 1970.06 262.467 Q1973.7 262.467 1975.5 258.925 Q1977.33 255.36 1977.33 248.254 Q1977.33 241.124 1975.5 237.583 Q1973.7 234.018 1970.06 234.018 M1970.06 230.314 Q1975.87 230.314 1978.93 234.921 Q1982.01 239.504 1982.01 248.254 Q1982.01 256.981 1978.93 261.587 Q1975.87 266.17 1970.06 266.17 Q1964.25 266.17 1961.17 261.587 Q1958.12 256.981 1958.12 248.254 Q1958.12 239.504 1961.17 234.921 Q1964.25 230.314 1970.06 230.314 Z" fill="#000000" fill-rule="nonzero" fill-opacity="1" /><path clip-path="url(#clip320)" d="M1994.25 261.564 L2010.57 261.564 L2010.57 265.499 L1988.63 265.499 L1988.63 261.564 Q1991.29 258.809 1995.87 254.18 Q2000.48 249.527 2001.66 248.184 Q2003.9 245.661 2004.78 243.925 Q2005.69 242.166 2005.69 240.476 Q2005.69 237.722 2003.74 235.985 Q2001.82 234.249 1998.72 234.249 Q1996.52 234.249 1994.07 235.013 Q1991.64 235.777 1988.86 237.328 L1988.86 232.606 Q1991.68 231.472 1994.14 230.893 Q1996.59 230.314 1998.63 230.314 Q2004 230.314 2007.19 232.999 Q2010.39 235.685 2010.39 240.175 Q2010.39 242.305 2009.58 244.226 Q2008.79 246.124 2006.68 248.717 Q2006.1 249.388 2003 252.606 Q1999.9 255.8 1994.25 261.564 Z" fill="#000000" fill-rule="nonzero" fill-opacity="1" /><path clip-path="url(#clip320)" d="M2033.23 235.013 L2021.43 253.462 L2033.23 253.462 L2033.23 235.013 M2032.01 230.939 L2037.89 230.939 L2037.89 253.462 L2042.82 253.462 L2042.82 257.351 L2037.89 257.351 L2037.89 265.499 L2033.23 265.499 L2033.23 257.351 L2017.63 257.351 L2017.63 252.837 L2032.01 230.939 Z" fill="#000000" fill-rule="nonzero" fill-opacity="1" /><path clip-path="url(#clip320)" d="M2050.55 259.62 L2055.43 259.62 L2055.43 265.499 L2050.55 265.499 L2050.55 259.62 Z" fill="#000000" fill-rule="nonzero" fill-opacity="1" /><path clip-path="url(#clip320)" d="M2075.62 234.018 Q2072.01 234.018 2070.18 237.583 Q2068.37 241.124 2068.37 248.254 Q2068.37 255.36 2070.18 258.925 Q2072.01 262.467 2075.62 262.467 Q2079.25 262.467 2081.06 258.925 Q2082.89 255.36 2082.89 248.254 Q2082.89 241.124 2081.06 237.583 Q2079.25 234.018 2075.62 234.018 M2075.62 230.314 Q2081.43 230.314 2084.48 234.921 Q2087.56 239.504 2087.56 248.254 Q2087.56 256.981 2084.48 261.587 Q2081.43 266.17 2075.62 266.17 Q2069.81 266.17 2066.73 261.587 Q2063.67 256.981 2063.67 248.254 Q2063.67 239.504 2066.73 234.921 Q2069.81 230.314 2075.62 230.314 Z" fill="#000000" fill-rule="nonzero" fill-opacity="1" /><path clip-path="url(#clip320)" d="M2110.43 230.939 L2115.11 230.939 L2115.11 245.546 L2130.62 230.939 L2136.63 230.939 L2119.48 247.05 L2137.86 265.499 L2131.7 265.499 L2115.11 248.856 L2115.11 265.499 L2110.43 265.499 L2110.43 230.939 Z" fill="#000000" fill-rule="nonzero" fill-opacity="1" /><path clip-path="url(#clip320)" d="M2141.33 239.573 L2145.59 239.573 L2145.59 265.499 L2141.33 265.499 L2141.33 239.573 M2141.33 229.481 L2145.59 229.481 L2145.59 234.874 L2141.33 234.874 L2141.33 229.481 Z" fill="#000000" fill-rule="nonzero" fill-opacity="1" /><path clip-path="url(#clip320)" d="M2159.37 248.995 L2159.37 261.657 L2166.87 261.657 Q2170.64 261.657 2172.44 260.106 Q2174.27 258.532 2174.27 255.314 Q2174.27 252.073 2172.44 250.546 Q2170.64 248.995 2166.87 248.995 L2159.37 248.995 M2159.37 234.782 L2159.37 245.198 L2166.29 245.198 Q2169.71 245.198 2171.38 243.925 Q2173.07 242.629 2173.07 239.99 Q2173.07 237.374 2171.38 236.078 Q2169.71 234.782 2166.29 234.782 L2159.37 234.782 M2154.69 230.939 L2166.63 230.939 Q2171.98 230.939 2174.88 233.161 Q2177.77 235.384 2177.77 239.481 Q2177.77 242.652 2176.29 244.527 Q2174.81 246.402 2171.94 246.865 Q2175.38 247.606 2177.28 249.967 Q2179.2 252.305 2179.2 255.823 Q2179.2 260.453 2176.06 262.976 Q2172.91 265.499 2167.1 265.499 L2154.69 265.499 L2154.69 230.939 Z" fill="#000000" fill-rule="nonzero" fill-opacity="1" /><path clip-path="url(#clip320)" d="M2186.36 229.527 L2190.06 229.527 Q2193.53 234.99 2195.25 240.222 Q2196.98 245.453 2196.98 250.615 Q2196.98 255.8 2195.25 261.055 Q2193.53 266.309 2190.06 271.749 L2186.36 271.749 Q2189.44 266.448 2190.94 261.217 Q2192.47 255.962 2192.47 250.615 Q2192.47 245.268 2190.94 240.06 Q2189.44 234.851 2186.36 229.527 Z" fill="#000000" fill-rule="nonzero" fill-opacity="1" /><polyline clip-path="url(#clip320)" style="stroke:#800080; stroke-linecap:round; stroke-linejoin:round; stroke-width:8; stroke-opacity:1; fill:none" points="1451.64,300.059 1594.81,300.059 "/>
<path clip-path="url(#clip320)" d="M1618.67 282.779 L1623.35 282.779 L1623.35 313.404 L1640.18 313.404 L1640.18 317.339 L1618.67 317.339 L1618.67 282.779 Z" fill="#000000" fill-rule="nonzero" fill-opacity="1" /><path clip-path="url(#clip320)" d="M1659.67 298.705 Q1663.03 299.423 1664.9 301.691 Q1666.8 303.96 1666.8 307.293 Q1666.8 312.409 1663.28 315.21 Q1659.76 318.01 1653.28 318.01 Q1651.11 318.01 1648.79 317.571 Q1646.5 317.154 1644.04 316.298 L1644.04 311.784 Q1645.99 312.918 1648.3 313.497 Q1650.62 314.075 1653.14 314.075 Q1657.54 314.075 1659.83 312.339 Q1662.15 310.603 1662.15 307.293 Q1662.15 304.237 1659.99 302.524 Q1657.86 300.788 1654.04 300.788 L1650.02 300.788 L1650.02 296.946 L1654.23 296.946 Q1657.68 296.946 1659.51 295.58 Q1661.34 294.191 1661.34 291.599 Q1661.34 288.937 1659.44 287.525 Q1657.56 286.089 1654.04 286.089 Q1652.12 286.089 1649.92 286.506 Q1647.73 286.923 1645.09 287.802 L1645.09 283.636 Q1647.75 282.895 1650.06 282.525 Q1652.4 282.154 1654.46 282.154 Q1659.79 282.154 1662.89 284.585 Q1665.99 286.992 1665.99 291.112 Q1665.99 293.983 1664.35 295.974 Q1662.7 297.941 1659.67 298.705 Z" fill="#000000" fill-rule="nonzero" fill-opacity="1" /><path clip-path="url(#clip320)" d="M1690.69 295.812 L1720.36 295.812 L1720.36 299.7 L1690.69 299.7 L1690.69 295.812 M1690.69 305.256 L1720.36 305.256 L1720.36 309.191 L1690.69 309.191 L1690.69 305.256 Z" fill="#000000" fill-rule="nonzero" fill-opacity="1" /><path clip-path="url(#clip320)" d="M1745.66 316.622 L1745.66 312.362 Q1747.42 313.196 1749.23 313.635 Q1751.04 314.075 1752.77 314.075 Q1757.4 314.075 1759.83 310.973 Q1762.28 307.848 1762.63 301.506 Q1761.29 303.497 1759.23 304.561 Q1757.17 305.626 1754.67 305.626 Q1749.48 305.626 1746.45 302.501 Q1743.44 299.353 1743.44 293.913 Q1743.44 288.589 1746.59 285.372 Q1749.74 282.154 1754.97 282.154 Q1760.97 282.154 1764.11 286.761 Q1767.28 291.344 1767.28 300.094 Q1767.28 308.265 1763.4 313.149 Q1759.53 318.01 1752.98 318.01 Q1751.22 318.01 1749.41 317.663 Q1747.61 317.316 1745.66 316.622 M1754.97 301.969 Q1758.12 301.969 1759.95 299.816 Q1761.8 297.663 1761.8 293.913 Q1761.8 290.187 1759.95 288.034 Q1758.12 285.858 1754.97 285.858 Q1751.82 285.858 1749.97 288.034 Q1748.14 290.187 1748.14 293.913 Q1748.14 297.663 1749.97 299.816 Q1751.82 301.969 1754.97 301.969 Z" fill="#000000" fill-rule="nonzero" fill-opacity="1" /><path clip-path="url(#clip320)" d="M1785.69 285.858 Q1782.08 285.858 1780.25 289.423 Q1778.44 292.964 1778.44 300.094 Q1778.44 307.2 1780.25 310.765 Q1782.08 314.307 1785.69 314.307 Q1789.32 314.307 1791.13 310.765 Q1792.96 307.2 1792.96 300.094 Q1792.96 292.964 1791.13 289.423 Q1789.32 285.858 1785.69 285.858 M1785.69 282.154 Q1791.5 282.154 1794.55 286.761 Q1797.63 291.344 1797.63 300.094 Q1797.63 308.821 1794.55 313.427 Q1791.5 318.01 1785.69 318.01 Q1779.88 318.01 1776.8 313.427 Q1773.74 308.821 1773.74 300.094 Q1773.74 291.344 1776.8 286.761 Q1779.88 282.154 1785.69 282.154 Z" fill="#000000" fill-rule="nonzero" fill-opacity="1" /><path clip-path="url(#clip320)" d="M1806.66 313.404 L1814.3 313.404 L1814.3 287.038 L1805.99 288.705 L1805.99 284.446 L1814.25 282.779 L1818.93 282.779 L1818.93 313.404 L1826.57 313.404 L1826.57 317.339 L1806.66 317.339 L1806.66 313.404 Z" fill="#000000" fill-rule="nonzero" fill-opacity="1" /><path clip-path="url(#clip320)" d="M1836.82 313.404 L1844.46 313.404 L1844.46 287.038 L1836.15 288.705 L1836.15 284.446 L1844.41 282.779 L1849.09 282.779 L1849.09 313.404 L1856.73 313.404 L1856.73 317.339 L1836.82 317.339 L1836.82 313.404 Z" fill="#000000" fill-rule="nonzero" fill-opacity="1" /><path clip-path="url(#clip320)" d="M1870.2 313.404 L1886.52 313.404 L1886.52 317.339 L1864.58 317.339 L1864.58 313.404 Q1867.24 310.649 1871.82 306.02 Q1876.43 301.367 1877.61 300.024 Q1879.85 297.501 1880.73 295.765 Q1881.64 294.006 1881.64 292.316 Q1881.64 289.562 1879.69 287.825 Q1877.77 286.089 1874.67 286.089 Q1872.47 286.089 1870.02 286.853 Q1867.59 287.617 1864.81 289.168 L1864.81 284.446 Q1867.63 283.312 1870.09 282.733 Q1872.54 282.154 1874.58 282.154 Q1879.95 282.154 1883.14 284.839 Q1886.34 287.525 1886.34 292.015 Q1886.34 294.145 1885.53 296.066 Q1884.74 297.964 1882.63 300.557 Q1882.05 301.228 1878.95 304.446 Q1875.85 307.64 1870.2 313.404 Z" fill="#000000" fill-rule="nonzero" fill-opacity="1" /><path clip-path="url(#clip320)" d="M1906.34 285.858 Q1902.72 285.858 1900.9 289.423 Q1899.09 292.964 1899.09 300.094 Q1899.09 307.2 1900.9 310.765 Q1902.72 314.307 1906.34 314.307 Q1909.97 314.307 1911.77 310.765 Q1913.6 307.2 1913.6 300.094 Q1913.6 292.964 1911.77 289.423 Q1909.97 285.858 1906.34 285.858 M1906.34 282.154 Q1912.15 282.154 1915.2 286.761 Q1918.28 291.344 1918.28 300.094 Q1918.28 308.821 1915.2 313.427 Q1912.15 318.01 1906.34 318.01 Q1900.52 318.01 1897.45 313.427 Q1894.39 308.821 1894.39 300.094 Q1894.39 291.344 1897.45 286.761 Q1900.52 282.154 1906.34 282.154 Z" fill="#000000" fill-rule="nonzero" fill-opacity="1" /><path clip-path="url(#clip320)" d="M1951.2 281.367 Q1948.09 286.691 1946.59 291.9 Q1945.08 297.108 1945.08 302.455 Q1945.08 307.802 1946.59 313.057 Q1948.12 318.288 1951.2 323.589 L1947.49 323.589 Q1944.02 318.149 1942.28 312.895 Q1940.57 307.64 1940.57 302.455 Q1940.57 297.293 1942.28 292.062 Q1944 286.83 1947.49 281.367 L1951.2 281.367 Z" fill="#000000" fill-rule="nonzero" fill-opacity="1" /><path clip-path="url(#clip320)" d="M1964.09 313.404 L1980.41 313.404 L1980.41 317.339 L1958.46 317.339 L1958.46 313.404 Q1961.13 310.649 1965.71 306.02 Q1970.32 301.367 1971.5 300.024 Q1973.74 297.501 1974.62 295.765 Q1975.52 294.006 1975.52 292.316 Q1975.52 289.562 1973.58 287.825 Q1971.66 286.089 1968.56 286.089 Q1966.36 286.089 1963.9 286.853 Q1961.47 287.617 1958.7 289.168 L1958.7 284.446 Q1961.52 283.312 1963.97 282.733 Q1966.43 282.154 1968.46 282.154 Q1973.83 282.154 1977.03 284.839 Q1980.22 287.525 1980.22 292.015 Q1980.22 294.145 1979.41 296.066 Q1978.63 297.964 1976.52 300.557 Q1975.94 301.228 1972.84 304.446 Q1969.74 307.64 1964.09 313.404 Z" fill="#000000" fill-rule="nonzero" fill-opacity="1" /><path clip-path="url(#clip320)" d="M2000.22 300.927 Q1996.89 300.927 1994.97 302.71 Q1993.07 304.492 1993.07 307.617 Q1993.07 310.742 1994.97 312.524 Q1996.89 314.307 2000.22 314.307 Q2003.56 314.307 2005.48 312.524 Q2007.4 310.719 2007.4 307.617 Q2007.4 304.492 2005.48 302.71 Q2003.58 300.927 2000.22 300.927 M1995.55 298.937 Q1992.54 298.196 1990.85 296.136 Q1989.18 294.075 1989.18 291.112 Q1989.18 286.969 1992.12 284.562 Q1995.08 282.154 2000.22 282.154 Q2005.39 282.154 2008.33 284.562 Q2011.27 286.969 2011.27 291.112 Q2011.27 294.075 2009.58 296.136 Q2007.91 298.196 2004.92 298.937 Q2008.3 299.724 2010.18 302.015 Q2012.08 304.307 2012.08 307.617 Q2012.08 312.64 2009 315.325 Q2005.94 318.01 2000.22 318.01 Q1994.51 318.01 1991.43 315.325 Q1988.37 312.64 1988.37 307.617 Q1988.37 304.307 1990.27 302.015 Q1992.17 299.724 1995.55 298.937 M1993.83 291.552 Q1993.83 294.237 1995.5 295.742 Q1997.19 297.247 2000.22 297.247 Q2003.23 297.247 2004.92 295.742 Q2006.64 294.237 2006.64 291.552 Q2006.64 288.867 2004.92 287.362 Q2003.23 285.858 2000.22 285.858 Q1997.19 285.858 1995.5 287.362 Q1993.83 288.867 1993.83 291.552 Z" fill="#000000" fill-rule="nonzero" fill-opacity="1" /><path clip-path="url(#clip320)" d="M2021.2 313.404 L2028.83 313.404 L2028.83 287.038 L2020.52 288.705 L2020.52 284.446 L2028.79 282.779 L2033.46 282.779 L2033.46 313.404 L2041.1 313.404 L2041.1 317.339 L2021.2 317.339 L2021.2 313.404 Z" fill="#000000" fill-rule="nonzero" fill-opacity="1" /><path clip-path="url(#clip320)" d="M2061.13 298.196 Q2057.98 298.196 2056.13 300.349 Q2054.3 302.501 2054.3 306.251 Q2054.3 309.978 2056.13 312.154 Q2057.98 314.307 2061.13 314.307 Q2064.27 314.307 2066.1 312.154 Q2067.95 309.978 2067.95 306.251 Q2067.95 302.501 2066.1 300.349 Q2064.27 298.196 2061.13 298.196 M2070.41 283.543 L2070.41 287.802 Q2068.65 286.969 2066.84 286.529 Q2065.06 286.089 2063.3 286.089 Q2058.67 286.089 2056.22 289.214 Q2053.79 292.339 2053.44 298.659 Q2054.81 296.645 2056.87 295.58 Q2058.93 294.492 2061.4 294.492 Q2066.61 294.492 2069.62 297.663 Q2072.65 300.811 2072.65 306.251 Q2072.65 311.575 2069.51 314.793 Q2066.36 318.01 2061.13 318.01 Q2055.13 318.01 2051.96 313.427 Q2048.79 308.821 2048.79 300.094 Q2048.79 291.9 2052.68 287.038 Q2056.57 282.154 2063.12 282.154 Q2064.88 282.154 2066.66 282.501 Q2068.46 282.849 2070.41 283.543 Z" fill="#000000" fill-rule="nonzero" fill-opacity="1" /><path clip-path="url(#clip320)" d="M2090.71 285.858 Q2087.1 285.858 2085.27 289.423 Q2083.46 292.964 2083.46 300.094 Q2083.46 307.2 2085.27 310.765 Q2087.1 314.307 2090.71 314.307 Q2094.34 314.307 2096.15 310.765 Q2097.98 307.2 2097.98 300.094 Q2097.98 292.964 2096.15 289.423 Q2094.34 285.858 2090.71 285.858 M2090.71 282.154 Q2096.52 282.154 2099.57 286.761 Q2102.65 291.344 2102.65 300.094 Q2102.65 308.821 2099.57 313.427 Q2096.52 318.01 2090.71 318.01 Q2084.9 318.01 2081.82 313.427 Q2078.76 308.821 2078.76 300.094 Q2078.76 291.344 2081.82 286.761 Q2084.9 282.154 2090.71 282.154 Z" fill="#000000" fill-rule="nonzero" fill-opacity="1" /><path clip-path="url(#clip320)" d="M2110.87 311.46 L2115.76 311.46 L2115.76 317.339 L2110.87 317.339 L2110.87 311.46 Z" fill="#000000" fill-rule="nonzero" fill-opacity="1" /><path clip-path="url(#clip320)" d="M2135.94 285.858 Q2132.33 285.858 2130.5 289.423 Q2128.7 292.964 2128.7 300.094 Q2128.7 307.2 2130.5 310.765 Q2132.33 314.307 2135.94 314.307 Q2139.57 314.307 2141.38 310.765 Q2143.21 307.2 2143.21 300.094 Q2143.21 292.964 2141.38 289.423 Q2139.57 285.858 2135.94 285.858 M2135.94 282.154 Q2141.75 282.154 2144.81 286.761 Q2147.88 291.344 2147.88 300.094 Q2147.88 308.821 2144.81 313.427 Q2141.75 318.01 2135.94 318.01 Q2130.13 318.01 2127.05 313.427 Q2124 308.821 2124 300.094 Q2124 291.344 2127.05 286.761 Q2130.13 282.154 2135.94 282.154 Z" fill="#000000" fill-rule="nonzero" fill-opacity="1" /><path clip-path="url(#clip320)" d="M2170.76 282.779 L2175.43 282.779 L2175.43 297.386 L2190.94 282.779 L2196.96 282.779 L2179.81 298.89 L2198.19 317.339 L2192.03 317.339 L2175.43 300.696 L2175.43 317.339 L2170.76 317.339 L2170.76 282.779 Z" fill="#000000" fill-rule="nonzero" fill-opacity="1" /><path clip-path="url(#clip320)" d="M2201.66 291.413 L2205.92 291.413 L2205.92 317.339 L2201.66 317.339 L2201.66 291.413 M2201.66 281.321 L2205.92 281.321 L2205.92 286.714 L2201.66 286.714 L2201.66 281.321 Z" fill="#000000" fill-rule="nonzero" fill-opacity="1" /><path clip-path="url(#clip320)" d="M2219.69 300.835 L2219.69 313.497 L2227.19 313.497 Q2230.96 313.497 2232.77 311.946 Q2234.6 310.372 2234.6 307.154 Q2234.6 303.913 2232.77 302.386 Q2230.96 300.835 2227.19 300.835 L2219.69 300.835 M2219.69 286.622 L2219.69 297.038 L2226.61 297.038 Q2230.04 297.038 2231.7 295.765 Q2233.39 294.469 2233.39 291.83 Q2233.39 289.214 2231.7 287.918 Q2230.04 286.622 2226.61 286.622 L2219.69 286.622 M2215.01 282.779 L2226.96 282.779 Q2232.31 282.779 2235.2 285.001 Q2238.09 287.224 2238.09 291.321 Q2238.09 294.492 2236.61 296.367 Q2235.13 298.242 2232.26 298.705 Q2235.71 299.446 2237.61 301.807 Q2239.53 304.145 2239.53 307.663 Q2239.53 312.293 2236.38 314.816 Q2233.23 317.339 2227.42 317.339 L2215.01 317.339 L2215.01 282.779 Z" fill="#000000" fill-rule="nonzero" fill-opacity="1" /><path clip-path="url(#clip320)" d="M2246.68 281.367 L2250.38 281.367 Q2253.86 286.83 2255.57 292.062 Q2257.31 297.293 2257.31 302.455 Q2257.31 307.64 2255.57 312.895 Q2253.86 318.149 2250.38 323.589 L2246.68 323.589 Q2249.76 318.288 2251.26 313.057 Q2252.79 307.802 2252.79 302.455 Q2252.79 297.108 2251.26 291.9 Q2249.76 286.691 2246.68 281.367 Z" fill="#000000" fill-rule="nonzero" fill-opacity="1" /></svg>
